# File generated by ImageToStl.com - Free Image and 3D model conversion tools

mtllib basketball_court_low_poly_purple.mtl

o obj1
v 0.31785128 2.67646694 1.03213429
v 0.31950745 2.47864532 1.14276052
v 0.3113133 2.47873354 1.12629592
v 0.31250238 2.63961864 1.03480148
v 0.2603955 2.28065491 1.06078482
v 0.26564085 2.3167901 1.05816925
v 0.23048979 2.47864532 0.9642452
v 0.23870955 2.47873354 0.98069698
v -0.1635417 2.67646694 1.50525427
v -0.22990623 2.47864532 1.41672909
v -0.2135994 2.47873354 1.42523277
v -0.16078214 2.63961864 1.49995244
v -0.13389945 2.28065491 1.4483037
v -0.13660561 2.3167901 1.45350289
v -0.05296054 2.47864532 1.50882769
v -0.06928059 2.47873354 1.5003494
v 0.05276311 2.67646694 1.5414381
v -0.03476971 2.47873354 1.50612235
v 0.05187932 2.63961864 1.53552675
v 0.04326952 2.28065491 1.4779408
v 0.04413624 2.3167901 1.48373771
v 0.14432557 2.47864532 1.4793309
v 0.12613896 2.47873354 1.48206449
v -0.34969693 2.67646694 1.1319406
v -0.28601214 2.47864532 1.04146838
v -0.28906056 2.47873354 1.05960488
v -0.34380183 2.63961864 1.1329267
v -0.28637373 2.28065491 1.14253342
v -0.29215476 2.3167901 1.1415664
v -0.31892401 2.47864532 1.23821378
v -0.31590384 2.47873354 1.22007251
v 0.16412526 2.67646694 0.87571996
v 0.21418297 2.47873354 0.95574152
v 0.1613657 2.63961864 0.8810218
v 0.13448301 2.28065491 0.93267047
v 0.13718916 2.3167901 0.92747122
v 0.05354417 2.47864532 0.87214649
v 0.06986421 2.47873354 0.88062477
v 0.24902569 2.67646694 1.44357049
v 0.15745215 2.47873354 1.46644998
v 0.24483611 2.63961864 1.43930757
v 0.20402247 2.28065491 1.3977803
v 0.208131 2.3167901 1.40196061
v 0.28659579 2.47864532 1.33950579
v 0.27348927 2.47873354 1.3524071
v -0.05217966 2.67646694 0.83953631
v 0.03535333 2.47873354 0.87485176
v -0.05129585 2.63961864 0.8454476
v -0.04268605 2.28065491 0.90303355
v -0.04355276 2.3167901 0.89723665
v -0.1437421 2.47864532 0.90164328
v -0.12555549 2.47873354 0.89890969
v 0.28695726 2.28065491 1.23844087
v 0.29273829 2.3167901 1.2394079
v 0.28964418 2.47873354 1.32136929
v 0.31648728 2.47873354 1.16090178
v 0.35028043 2.67646718 1.24903369
v 0.34438533 2.63961887 1.24804759
v -0.20343901 2.28065491 0.98319405
v -0.20754752 2.3167901 0.97901368
v -0.15686868 2.47873354 0.9145242
v -0.27290565 2.47873354 1.02856708
v -0.24844226 2.67646718 0.93740398
v -0.24425265 2.63961887 0.94166684
v -0.06354879 2.87428856 1.572124
v -0.0805681 2.87441111 1.56328797
v -0.16589087 2.70783544 1.50976765
v -0.1931587 3.07194161 1.56215632
v -0.19075802 3.03988528 1.55754399
v -0.27567688 2.8742888 1.46171319
v -0.2586759 2.87441134 1.47058451
v -0.1767109 2.67657518 1.49187982
v -0.23378168 2.51214504 1.42053795
v -0.27171776 2.84006596 1.45782208
v -0.31726784 2.67646718 1.34884024
v -0.3041237 2.67657542 1.36223924
v -0.25981203 2.28065491 1.3201896
v -0.26505738 2.3167901 1.32280517
v -0.23812601 2.47873354 1.40027738
v -0.31072986 2.47873354 1.25467837
v -0.31191897 2.63961887 1.34617293
v -0.32429811 2.51214504 1.23901725
v -0.34693885 2.67657518 1.15050662
v -0.32006064 2.67657542 1.33027947
v -0.38239419 2.87428856 1.24770331
v -0.3769041 2.84006572 1.24688244
v -0.1723806 2.87428856 0.844212
v -0.153418 2.87441111 0.84135675
v -0.05293204 2.70783544 0.83450413
v -0.06166518 3.07194161 0.77609318
v -0.06089631 3.03988528 0.78123575
v 0.06413244 2.87428856 0.80885035
v 0.04516397 2.87441111 0.81166625
v 0.05444069 2.51214504 0.86678714
v 0.14561567 2.67657518 0.87260586
v -0.03366427 2.67657518 0.84261578
v 0.06321656 2.84006572 0.81432539
v 0.3435221 2.87428856 1.36913538
v 0.32985932 2.87441111 1.38259125
v 0.25259224 2.70783544 1.44719934
v 0.29399055 3.07194161 1.48932159
v 0.29034582 3.03988528 1.48561311
v 0.17296404 2.87428856 1.53676236
v 0.18665469 2.87441111 1.52333486
v 0.14675041 2.51214504 1.48419368
v 0.06956812 2.67657518 1.53307784
v 0.23223636 2.67657518 1.45196223
v 0.17048682 2.84006572 1.53179455
v -0.34293839 2.87428856 1.01183867
v -0.32927561 2.87441111 0.99838281
v -0.2520088 2.70783567 0.93377507
v -0.29340714 3.07194161 0.89165282
v -0.28976238 3.03988528 0.8953613
v -0.18607126 2.87441111 0.85763949
v 0.38297763 2.87428856 1.13327098
v 0.37983337 2.87441111 1.15218782
v 0.35529885 2.70783567 1.24987316
v 0.41354963 3.07194161 1.25961733
v 0.40842116 3.03988528 1.25875938
v 0.34670559 2.87441111 1.35022509
v 0.08115175 2.87441111 0.81768632
v 0.16647445 2.70783544 0.87120658
v 0.19374226 3.07194161 0.81881791
v 0.19134158 3.03988528 0.8234303
v 0.27626044 2.87428856 0.91926122
v 0.25925946 2.87441111 0.91038996
v 0.23436524 2.51214504 0.96043634
v 0.30470714 2.67657518 1.01873529
v 0.17729445 2.67657518 0.88909441
v 0.27230132 2.84006572 0.92315227
v 0.15400144 2.87441111 1.53961766
v 0.0535155 2.70783544 1.54647028
v 0.06224862 3.07194161 1.60488129
v 0.06147975 3.03988528 1.59973872
v -0.04458033 2.87441111 1.56930804
v -0.05385708 2.51214504 1.5141871
v -0.14503211 2.67657518 1.50836837
v 0.03424773 2.67657518 1.53835857
v -0.06263293 2.84006572 1.56664896
v -0.29083219 2.51214504 1.03895962
v -0.25712374 2.67657542 0.9540453
v -0.3410466 2.67657518 1.11528301
v -0.33801433 2.84006572 1.01440167
v 0.2848357 2.87441111 0.93641341
v 0.32240468 2.70783544 1.02986372
v 0.37525809 3.07194161 1.00350797
v 0.37060481 3.03988528 1.00582838
v 0.37443799 2.87441111 1.11610103
v 0.32488155 2.51214504 1.14195704
v 0.34752235 2.67657542 1.23046768
v 0.32064411 2.67657518 1.05069506
v 0.37748751 2.84006572 1.13409185
v -0.37924993 2.87441111 1.22878647
v -0.35471535 2.70783544 1.13110113
v -0.4129661 3.07194161 1.12135684
v -0.40783763 3.03988528 1.12221467
v -0.34612188 2.87441111 1.03074896
v -0.14616695 2.51214504 0.89678049
v -0.06898466 2.67657518 0.84789664
v -0.23165295 2.67657542 0.92901224
v -0.1699034 2.84006572 0.84917974
v 0.29141581 2.51214504 1.34201455
v 0.25770718 2.67657518 1.42692912
v 0.3416301 2.67657542 1.26569128
v 0.33859801 2.84006572 1.3665725
v -0.37385452 2.87441111 1.26487327
v -0.32182127 2.70783567 1.35111082
v -0.37467465 3.07194161 1.37746656
v -0.37002137 3.03988528 1.37514615
v -0.28425214 2.87441134 1.444561
v -0.35265097 3.05550385 1.39850461
v -0.21381187 3.05550385 1.53977132
v -0.2769289 2.90432191 1.46294367
v -0.06383844 2.90432167 1.5738554
v -0.16297533 3.05550385 1.56623125
v 0.03238232 3.05550385 1.59891105
v 0.17374742 2.90432167 1.53833342
v 0.08906268 3.05550385 1.59043658
v 0.26631898 3.05550385 1.50204659
v 0.34507927 2.90432167 1.36994588
v 0.30719325 3.05550385 1.46187472
v 0.39864239 3.05550385 1.28617704
v 0.38471383 2.90432167 1.13301134
v 0.40809795 3.05550385 1.22965205
v 0.37880927 3.05550385 1.03375745
v 0.27751246 2.90432167 0.91803068
v 0.35323444 3.05550385 0.98246992
v 0.2143954 3.05550385 0.84120297
v 0.06442207 2.90432167 0.80711889
v 0.16355887 3.05550385 0.81474298
v -0.03179885 3.05550385 0.78206342
v -0.17316398 2.90432167 0.842641
v -0.08847925 3.05550385 0.79053783
v -0.26573557 3.05550385 0.87892783
v -0.34449559 2.90432167 1.01102817
v -0.30660981 3.05550385 0.91909963
v -0.39805886 3.05550385 1.09479713
v -0.40751442 3.05550385 1.15132213
v -0.3782258 3.05550385 1.34721708
v -0.38413039 2.90432167 1.24796295
v -0.24477294 2.29668736 1.34084499
v -0.22328238 2.43896484 1.41021907
v -0.15429112 2.29668736 1.43290889
v -0.05142824 2.43896484 1.49966764
v 0.01772347 2.29668736 1.47747207
v -0.10959161 2.29668736 1.45617461
v 0.14018106 2.43896484 1.47101963
v 0.18307975 2.29668736 1.4124167
v 0.06756134 2.29668736 1.47002065
v 0.27835751 2.43896484 1.33521783
v 0.27861726 2.29668736 1.26259172
v 0.21901964 2.29668736 1.37709439
v 0.31032217 2.43896484 1.14413381
v 0.26784384 2.29668736 1.08522546
v 0.28693134 2.29668736 1.21289051
v 0.22386594 2.43896484 0.97075522
v 0.15487467 2.29668736 0.94806534
v 0.24535644 2.29668736 1.04012942
v 0.05201186 2.43896484 0.88130659
v -0.01713998 2.29668736 0.90350229
v 0.11017518 2.29668736 0.92479962
v -0.13959759 2.43896484 0.90995461
v -0.18249628 2.29668736 0.96855772
v -0.06697787 2.29668736 0.9109537
v -0.27777389 2.43896484 1.04575634
v -0.27803373 2.29668736 1.11838257
v -0.21843617 2.29668736 1.0038799
v -0.26726037 2.29668736 1.29574895
v -0.30973873 2.43896484 1.23684049
v -0.28634784 2.29668736 1.16808379
v -1.16280687 2.73643637 0.7124331
v -1.16280687 4.34789896 0.7124331
v -1.16280687 4.34789896 0.57462013
v -1.16280687 2.73643637 0.57462013
v -0.13313562 3.61997986 0.57462013
v 0.13313562 3.61997986 0.57462013
v 0.15521415 3.30437064 -0.26087475
v -0.15521415 3.30437064 -0.26087475
v 1.16280687 2.73643637 0.57462013
v 1.16280687 4.34789896 0.57462013
v 1.16280687 4.34789896 0.7124331
v 1.16280687 2.73643637 0.7124331
v 0.39705133 3.15896654 0.7124331
v 0.39705133 3.73646832 0.7124331
v -0.39705133 3.73646832 0.7124331
v -0.39705133 3.15896654 0.7124331
v -1.0914439 2.80347109 0.7124331
v -1.0914439 4.28086376 0.7124331
v -1.16280687 4.34789896 0.7124331
v -1.16280687 2.73643637 0.7124331
v 1.0914439 4.28086376 0.7124331
v 1.0914439 2.80347109 0.7124331
v 1.16280687 2.73643637 0.7124331
v 1.16280687 4.34789896 0.7124331
v -0.48149142 3.07964778 0.7124331
v -0.48149142 3.81578708 0.7124331
v -1.0914439 4.28086376 0.7124331
v -1.0914439 2.80347109 0.7124331
v 0.48149142 3.81578708 0.7124331
v 0.48149142 3.07964778 0.7124331
v 1.0914439 2.80347109 0.7124331
v 1.0914439 4.28086376 0.7124331
v 0.48149142 3.07964778 0.7124331
v -0.48149142 3.07964778 0.7124331
v -1.0914439 2.80347109 0.7124331
v 1.0914439 2.80347109 0.7124331
v -0.48149142 3.81578708 0.7124331
v 0.48149142 3.81578708 0.7124331
v 1.0914439 4.28086376 0.7124331
v -1.0914439 4.28086376 0.7124331
v -0.39705133 3.15896654 0.7124331
v -0.39705133 3.73646832 0.7124331
v -0.48149142 3.81578708 0.7124331
v -0.48149142 3.07964778 0.7124331
v 0.39705133 3.73646832 0.7124331
v 0.39705133 3.15896654 0.7124331
v 0.48149142 3.07964778 0.7124331
v 0.48149142 3.81578708 0.7124331
v 0.39705133 3.15896654 0.7124331
v -0.39705133 3.15896654 0.7124331
v -0.48149142 3.07964778 0.7124331
v 0.48149142 3.07964778 0.7124331
v -0.39705133 3.73646832 0.7124331
v 0.39705133 3.73646832 0.7124331
v 0.48149142 3.81578708 0.7124331
v -0.48149142 3.81578708 0.7124331
v -0.99359453 4.2282753 0.57462013
v -0.99359453 2.85605979 0.57462013
v -1.16280687 2.73643637 0.57462013
v -1.16280687 4.34789896 0.57462013
v 0.99359453 2.85605979 0.57462013
v 1.16280687 2.73643637 0.57462013
v 0.99359453 4.2282753 0.57462013
v 1.16280687 4.34789896 0.57462013
v -0.15521415 3.11122394 -0.26087475
v -0.15521415 3.22329307 -0.46733254
v -0.15521415 3.11122394 -0.46733254
v -0.13313562 3.46435547 0.57462013
v 0.13313562 3.46435547 0.57462013
v 0.15521415 3.11122394 -0.26087475
v 0.13313562 3.46435547 0.57462013
v -0.13313562 3.46435547 0.57462013
v -0.15521415 3.11122394 -0.26087475
v 0.15521415 3.11122394 -0.26087475
v 0.15521415 3.22329307 -0.46733254
v 0.15521415 3.11122394 -0.46733254
v -0.15521415 3.11122394 -0.26087475
v -0.15521415 3.11122394 -0.46733254
v -0.15521415 0.22438669 -0.46733254
v -0.15521415 0.22438669 -0.26087475
v 0.15521415 0.22438669 -0.46733254
v 0.15521415 0.22438669 -0.26087475
v 0.26729429 0.22438669 -0.18633312
v 0.26729429 0.22438669 -0.54187411
v -0.15521415 3.11122394 -0.46733254
v 0.15521415 3.11122394 -0.46733254
v 0.15521415 0.22438669 -0.46733254
v -0.15521415 0.22438669 -0.46733254
v 0.15521415 3.11122394 -0.46733254
v 0.15521415 3.11122394 -0.26087475
v 0.15521415 0.22438669 -0.26087475
v 0.15521415 0.22438669 -0.46733254
v 0.15521415 3.11122394 -0.26087475
v -0.15521415 3.11122394 -0.26087475
v -0.15521415 0.22438669 -0.26087475
v 0.15521415 0.22438669 -0.26087475
v -0.26729429 0.22438669 -0.18633312
v -0.26729429 0.22438669 -0.54187411
v -0.5581882 0.22438669 -0.73534006
v -0.5581882 0.22438669 0.00713283
v -0.15521415 0.22438669 -0.46733254
v -0.26729429 0.22438669 -0.54187411
v -0.15521415 0.22438669 -0.26087475
v -0.26729429 0.22438669 -0.18633312
v 0.5581882 0.22438669 0.00713283
v -0.5581882 0.22438669 0.00713283
v -1.17860806 0.01606353 0.41975802
v 1.17860806 0.01606353 0.41975802
v 0.26729429 0.22438669 -0.18633312
v -0.26729429 0.22438669 -0.18633312
v -0.5581882 0.22438669 0.00713283
v 0.5581882 0.22438669 0.00713283
v 0.26729429 0.22438669 -0.54187411
v 0.26729429 0.22438669 -0.18633312
v 0.5581882 0.22438669 0.00713283
v 0.5581882 0.22438669 -0.73534006
v -0.26729429 0.22438669 -0.54187411
v 0.26729429 0.22438669 -0.54187411
v 0.5581882 0.22438669 -0.73534006
v -0.5581882 0.22438669 -0.73534006
v 1.17860806 0.01606353 0.41975802
v -1.17860806 0.01606353 0.41975802
v -1.17860806 0.01606353 -1.14796519
v 1.17860806 0.01606353 -1.14796519
v 0.5581882 0.22438669 -0.73534006
v 0.5581882 0.22438669 0.00713283
v 1.17860806 0.01606353 0.41975802
v 1.17860806 0.01606353 -1.14796519
v -0.5581882 0.22438669 -0.73534006
v 0.5581882 0.22438669 -0.73534006
v 1.17860806 0.01606353 -1.14796519
v -1.17860806 0.01606353 -1.14796519
v -0.5581882 0.22438669 0.00713283
v -0.5581882 0.22438669 -0.73534006
v -1.17860806 0.01606353 -1.14796519
v -1.17860806 0.01606353 0.41975802
v -0.39705133 3.15896654 0.57177705
v -0.48149142 3.07964778 0.57177705
v -0.48149142 3.81578708 0.57177705
v -0.39705133 3.73646832 0.57177705
v 0.39705133 3.73646832 0.57177705
v 0.48149142 3.81578708 0.57177705
v 0.48149142 3.07964778 0.57177705
v 0.39705133 3.15896654 0.57177705
v -0.39717257 3.0691092 1.38868535
v -0.3164728 3.0691092 1.50180793
v -0.31407061 3.08167911 1.49944711
v -0.39415842 3.08167911 1.38718247
v -0.30750769 3.09088111 1.49299705
v -0.38592362 3.09088111 1.38307595
v -0.38592362 3.09088111 1.38307595
v -0.30750769 3.09088111 1.49299705
v -0.29854268 3.09424925 1.48418605
v -0.37467465 3.09424925 1.37746656
v -0.2895776 3.09088111 1.47537506
v -0.36342561 3.09088111 1.37185717
v -0.2830148 3.08167911 1.468925
v -0.35519081 3.08167911 1.367751
v -0.28061262 3.0691092 1.46656418
v -0.35217664 3.0691092 1.36624765
v -0.2830148 3.0565393 1.468925
v -0.35519081 3.0565393 1.367751
v -0.2895776 3.04733729 1.47537506
v -0.36342561 3.04733729 1.37185717
v -0.29854268 3.04396915 1.48418605
v -0.37467465 3.04396915 1.37746656
v -0.30750769 3.04733729 1.49299705
v -0.38592362 3.04733729 1.38307595
v -0.31407061 3.0565393 1.49944711
v -0.39415842 3.0565393 1.38718247
v -0.3164728 3.0691092 1.50180793
v -0.39717257 3.0691092 1.38868535
v -0.20476572 3.0691092 1.58445644
v -0.20321068 3.08167911 1.58146894
v -0.19896224 3.09088111 1.57330644
v -0.19896224 3.09088111 1.57330644
v -0.1931587 3.09424925 1.56215632
v -0.18735515 3.09088111 1.55100644
v -0.18310671 3.08167911 1.54284394
v -0.18155168 3.0691092 1.5398562
v -0.18310671 3.0565393 1.54284394
v -0.18735515 3.04733729 1.55100644
v -0.1931587 3.04396915 1.56215632
v -0.19896224 3.04733729 1.57330644
v -0.20321068 3.0565393 1.58146894
v -0.20476572 3.0691092 1.58445644
v -0.07298622 3.0691092 1.62854052
v -0.07243051 3.08167911 1.62521863
v -0.07091235 3.09088111 1.61614287
v -0.07091235 3.09088111 1.61614287
v -0.0688384 3.09424925 1.6037451
v -0.06676451 3.09088111 1.59134734
v -0.06524632 3.08167911 1.58227158
v -0.0646906 3.0691092 1.57894969
v -0.06524632 3.0565393 1.58227158
v -0.06676451 3.04733729 1.59134734
v -0.0688384 3.04396915 1.6037451
v -0.07091235 3.04733729 1.61614287
v -0.07243051 3.0565393 1.62521863
v -0.07298622 3.0691092 1.62854052
v 0.06596604 3.0691092 1.62974489
v 0.065468 3.08167911 1.62641382
v 0.06410732 3.09088111 1.61731303
v 0.06410732 3.09088111 1.61731303
v 0.06224862 3.09424925 1.60488129
v 0.06038991 3.09088111 1.59244931
v 0.05902923 3.08167911 1.58334863
v 0.0585312 3.0691092 1.58001769
v 0.05902923 3.0565393 1.58334863
v 0.06038991 3.04733729 1.59244931
v 0.06224862 3.04396915 1.60488129
v 0.06410732 3.04733729 1.61731303
v 0.065468 3.0565393 1.62641382
v 0.06596604 3.0691092 1.62974489
v 0.19848983 3.0691092 1.58795154
v 0.19698679 3.08167911 1.58493745
v 0.19288044 3.09088111 1.57670271
v 0.19288044 3.09088111 1.57670271
v 0.18727106 3.09424925 1.56545353
v 0.18166167 3.09088111 1.55420482
v 0.17755531 3.08167911 1.54596972
v 0.17605229 3.0691092 1.54295552
v 0.17755531 3.0565393 1.54596972
v 0.18166167 3.04733729 1.55420482
v 0.18727106 3.04396915 1.56545353
v 0.19288044 3.04733729 1.57670271
v 0.19698679 3.0565393 1.58493745
v 0.19848983 3.0691092 1.58795154
v 0.31161252 3.0691092 1.50725162
v 0.30925164 3.08167911 1.50484943
v 0.30280161 3.09088111 1.4982866
v 0.30280161 3.09088111 1.4982866
v 0.29399055 3.09424925 1.48932159
v 0.28517967 3.09088111 1.48035657
v 0.27872959 3.08167911 1.47379363
v 0.27636871 3.0691092 1.47139156
v 0.27872959 3.0565393 1.47379363
v 0.28517967 3.04733729 1.48035657
v 0.29399055 3.04396915 1.48932159
v 0.30280161 3.04733729 1.4982866
v 0.30925164 3.0565393 1.50484943
v 0.31161252 3.0691092 1.50725162
v 0.39426106 3.0691092 1.39554477
v 0.39127347 3.08167911 1.39398956
v 0.38311097 3.09088111 1.38974118
v 0.38311097 3.09088111 1.38974118
v 0.37196094 3.09424925 1.3839376
v 0.36081088 3.09088111 1.37813413
v 0.35264841 3.08167911 1.37388563
v 0.34966081 3.0691092 1.37233067
v 0.35264841 3.0565393 1.37388563
v 0.36081088 3.04733729 1.37813413
v 0.37196094 3.04396915 1.3839376
v 0.38311097 3.04733729 1.38974118
v 0.39127347 3.0565393 1.39398956
v 0.39426106 3.0691092 1.39554477
v 0.43834507 3.0691092 1.26376522
v 0.4350231 3.08167911 1.26320958
v 0.42594731 3.09088111 1.26169121
v 0.42594731 3.09088111 1.26169121
v 0.41354963 3.09424925 1.25961733
v 0.40115184 3.09088111 1.25754333
v 0.39207602 3.08167911 1.2560252
v 0.38875413 3.0691092 1.25546968
v 0.39207602 3.0565393 1.2560252
v 0.40115184 3.04733729 1.25754333
v 0.41354963 3.04396915 1.25961733
v 0.42594731 3.04733729 1.26169121
v 0.4350231 3.0565393 1.26320958
v 0.43834507 3.0691092 1.26376522
v 0.43954933 3.0691092 1.12481296
v 0.43621829 3.08167911 1.12531102
v 0.4271175 3.09088111 1.12667167
v 0.4271175 3.09088111 1.12667167
v 0.41468567 3.09424925 1.12853026
v 0.40225387 3.09088111 1.13038909
v 0.39315313 3.08167911 1.13174963
v 0.38982201 3.0691092 1.13224781
v 0.39315313 3.0565393 1.13174963
v 0.40225387 3.04733729 1.13038909
v 0.41468567 3.04396915 1.12853026
v 0.4271175 3.04733729 1.12667167
v 0.43621829 3.0565393 1.12531102
v 0.43954933 3.0691092 1.12481296
v 0.39775598 3.0691092 0.99228907
v 0.39474186 3.08167911 0.99379206
v 0.386507 3.09088111 0.9978984
v 0.386507 3.09088111 0.9978984
v 0.37525809 3.09424925 1.00350797
v 0.36400908 3.09088111 1.00911736
v 0.35577422 3.08167911 1.01322365
v 0.35276002 3.0691092 1.01472676
v 0.35577422 3.0565393 1.01322365
v 0.36400908 3.04733729 1.00911736
v 0.37525809 3.04396915 1.00350797
v 0.386507 3.04733729 0.9978984
v 0.39474186 3.0565393 0.99379206
v 0.39775598 3.0691092 0.99228907
v 0.31705627 3.0691092 0.87916642
v 0.31465414 3.08167911 0.88152742
v 0.30809122 3.09088111 0.88797754
v 0.30809122 3.09088111 0.88797754
v 0.29912624 3.09424925 0.89678836
v 0.29016119 3.09088111 0.9055993
v 0.2835983 3.08167911 0.91204953
v 0.28119624 3.0691092 0.91441041
v 0.2835983 3.0565393 0.91204953
v 0.29016119 3.04733729 0.9055993
v 0.29912624 3.04396915 0.89678836
v 0.30809122 3.04733729 0.88797754
v 0.31465414 3.0565393 0.88152742
v 0.31705627 3.0691092 0.87916642
v 0.20534937 3.0691092 0.79651803
v 0.2037943 3.08167911 0.79950553
v 0.19954586 3.09088111 0.80766803
v 0.19954586 3.09088111 0.80766803
v 0.19374226 3.09424925 0.81881791
v 0.18793879 3.09088111 0.82996815
v 0.18369032 3.08167911 0.83813053
v 0.1821353 3.0691092 0.84111816
v 0.18369032 3.0565393 0.83813053
v 0.18793879 3.04733729 0.82996815
v 0.19374226 3.04396915 0.81881791
v 0.19954586 3.04733729 0.80766803
v 0.2037943 3.0565393 0.79950553
v 0.20534937 3.0691092 0.79651803
v 0.07356992 3.0691092 0.75243396
v 0.07301417 3.08167911 0.75575584
v 0.07149597 3.09088111 0.76483148
v 0.07149597 3.09088111 0.76483148
v 0.06942205 3.09424925 0.77722925
v 0.06734812 3.09088111 0.78962702
v 0.06582993 3.08167911 0.7987029
v 0.06527427 3.0691092 0.80202478
v 0.06582993 3.0565393 0.7987029
v 0.06734812 3.04733729 0.78962702
v 0.06942205 3.04396915 0.77722925
v 0.07149597 3.04733729 0.76483148
v 0.07301417 3.0565393 0.75575584
v 0.07356992 3.0691092 0.75243396
v -0.06538259 3.0691092 0.75122958
v -0.06488454 3.08167911 0.75456053
v -0.06455067 3.08167911 0.71603984
v -0.06500822 3.0691092 0.71584117
v -0.06352387 3.09088111 0.76366132
v -0.06352387 3.09088111 0.76366132
v -0.06166518 3.09424925 0.77609318
v -0.05980647 3.09088111 0.78852493
v -0.05844581 3.08167911 0.79762572
v -0.05794775 3.0691092 0.8009569
v -0.05844581 3.0565393 0.79762572
v -0.05980647 3.04733729 0.78852493
v -0.06166518 3.04396915 0.77609318
v -0.06352387 3.04733729 0.76366132
v -0.06488454 3.0565393 0.75456053
v 0.07394427 3.0691092 0.71704561
v 0.07334805 3.08167911 0.71723515
v -0.1979064 3.0691092 0.79302275
v -0.19640335 3.08167911 0.79603702
v -0.19229701 3.09088111 0.80427182
v -0.19229701 3.09088111 0.80427182
v -0.18668762 3.09424925 0.81552082
v -0.18107823 3.09088111 0.82676977
v -0.17697188 3.08167911 0.83500475
v -0.17546883 3.0691092 0.83801889
v -0.17697188 3.0565393 0.83500475
v -0.18107823 3.04733729 0.82676977
v -0.18668762 3.04396915 0.81552082
v -0.19229701 3.04733729 0.80427182
v -0.19640335 3.0565393 0.79603702
v -0.1979064 3.0691092 0.79302275
v -0.06538259 3.0691092 0.75122958
v -0.31102917 3.0691092 0.87372261
v -0.30866829 3.08167911 0.87612492
v -0.30221817 3.09088111 0.88268775
v -0.30221817 3.09088111 0.88268775
v -0.29340714 3.09424925 0.89165282
v -0.28459629 3.09088111 0.90061778
v -0.27814615 3.08167911 0.90718061
v -0.27578527 3.0691092 0.90958291
v -0.27814615 3.0565393 0.90718061
v -0.28459629 3.04733729 0.90061778
v -0.29340714 3.04396915 0.89165282
v -0.30221817 3.04733729 0.88268775
v -0.30866829 3.0565393 0.87612492
v -0.31102917 3.0691092 0.87372261
v -0.39367741 3.0691092 0.98542941
v -0.39068976 3.08167911 0.98698461
v -0.38252735 3.09088111 0.99123281
v -0.38252735 3.09088111 0.99123281
v -0.37137726 3.09424925 0.99703652
v -0.36022723 3.09088111 1.00284004
v -0.35206488 3.08167911 1.00708854
v -0.34907714 3.0691092 1.00864351
v -0.35206488 3.0565393 1.00708854
v -0.36022723 3.04733729 1.00284004
v -0.37137726 3.04396915 0.99703652
v -0.38252735 3.04733729 0.99123281
v -0.39068976 3.0565393 0.98698461
v -0.39367741 3.0691092 0.98542941
v -0.43776155 3.0691092 1.11720896
v -0.43443966 3.08167911 1.11776459
v -0.42536381 3.09088111 1.11928284
v -0.42536381 3.09088111 1.11928284
v -0.4129661 3.09424925 1.12135684
v -0.40056828 3.09088111 1.12343073
v -0.39149255 3.08167911 1.1249491
v -0.38817063 3.0691092 1.12550461
v -0.39149255 3.0565393 1.1249491
v -0.40056828 3.04733729 1.12343073
v -0.4129661 3.04396915 1.12135684
v -0.42536381 3.04733729 1.11928284
v -0.43443966 3.0565393 1.11776459
v -0.43776155 3.0691092 1.11720896
v -0.43896586 3.0691092 1.25616145
v -0.43563485 3.08167911 1.25566328
v -0.42653409 3.09088111 1.25430274
v -0.42653409 3.09088111 1.25430274
v -0.41410226 3.09424925 1.25244403
v -0.40167055 3.09088111 1.25058544
v -0.39256978 3.08167911 1.24922478
v -0.38923866 3.0691092 1.24872673
v -0.39256978 3.0565393 1.24922478
v -0.40167055 3.04733729 1.25058544
v -0.41410226 3.04396915 1.25244403
v -0.42653409 3.04733729 1.25430274
v -0.43563485 3.0565393 1.25566328
v -0.43896586 3.0691092 1.25616145
v -0.43896586 3.0691092 1.25616145
v -0.43563485 3.08167911 1.25566328
v -0.42653409 3.09088111 1.25430274
v -0.42653409 3.09088111 1.25430274
v -0.41410226 3.09424925 1.25244403
v -0.40167055 3.09088111 1.25058544
v -0.39256978 3.08167911 1.24922478
v -0.38923866 3.0691092 1.24872673
v -0.39256978 3.0565393 1.24922478
v -0.40167055 3.04733729 1.25058544
v -0.41410226 3.04396915 1.25244403
v -0.42653409 3.04733729 1.25430274
v -0.43563485 3.0565393 1.25566328
v -0.43896586 3.0691092 1.25616145
v 0.184595 3.0691092 0.71868771
v 0.1830515 3.02837968 0.71929663
v -0.17432661 3.02837968 0.71426761
v -0.17551404 3.0691092 0.71362036
v -0.17432661 3.10983872 0.71426761
v 0.1830515 3.10983872 0.71929663
v -0.06455067 3.0565393 0.71603984
v -0.06500822 3.0691092 0.71584117
v -0.17551404 3.0691092 0.71362036
v -0.17432661 3.02837968 0.71426761
v 0.07334805 3.0565393 0.71723515
v 0.07394427 3.0691092 0.71704561
v -0.06455067 3.0565393 0.71603984
v -0.06500822 3.0691092 0.71584117
v 0.07334805 3.0565393 0.71723515
v 0.1830515 3.02837968 0.71929663
v 0.07334805 3.08167911 0.71723515
v 0.07394427 3.0691092 0.71704561
v 0.184595 3.0691092 0.71868771
v 0.1830515 3.10983872 0.71929663
v -0.06455067 3.08167911 0.71603984
v 0.07334805 3.08167911 0.71723515
v 0.1830515 3.10983872 0.71929663
v -0.17432661 3.10983872 0.71426761
v -0.06500822 3.0691092 0.71584117
v -0.06455067 3.08167911 0.71603984
v -0.17432661 3.10983872 0.71426761
v -0.17551404 3.0691092 0.71362036
v 0.07394427 3.0691092 0.71704561
v 0.184595 3.0691092 0.71868771
v 3.27541304 0 -1.52623081
v 2.72361922 0 -1.51543999
v 2.72361922 0 0.80583429
v 2.72361922 0 3.1271081
v 2.69745207 0 3.39278412
v 2.67128539 0 3.6584599
v -2.72361922 0 -1.51543999
v -3.31091642 0 -1.52623081
v -3.31091642 0 8.60951805
v -2.72361922 0 0.80583429
v 3.27541304 0 8.60951805
v -2.72361922 0 3.1271081
v -2.67128539 0 3.6584599
v -2.69745207 0 3.39278412
v 2.59379077 0 3.91392612
v 2.51629591 0 4.16939211
v -2.59379077 0 3.91392612
v -2.51629591 0 4.16939211
v 2.39045143 0 4.40483093
v 2.26460648 0 4.64027023
v -2.39045143 0 4.40483093
v -2.26460648 0 4.64027023
v 2.09524798 0 4.84663391
v 1.92588949 0 5.05299759
v 1.71952558 0 5.22235632
v 1.51316178 0 5.39171505
v -2.09524798 0 4.84663391
v -1.51316178 0 5.39171505
v -1.71952558 0 5.22235632
v -1.92588949 0 5.05299759
v 1.27772284 0 5.51755953
v -1.27772284 0 5.51755953
v 1.04228389 0 5.64340401
v -1.04228389 0 5.64340401
v -0.78681785 0 5.72089911
v 0.78681785 0 5.72089911
v 0.53135175 0 5.7983942
v -0.53135175 0 5.7983942
v -0.26567587 0 5.82456064
v 0.26567587 0 5.82456064
v 0 0 5.85072708
v -2.38584208 0 4.11535645
v -2.53279638 0 3.63091278
v -2.58309674 0 3.12020469
v 2.58309674 0 3.12020469
v 2.53279638 0 3.63091278
v 2.38584208 0 4.11535645
v 2.1472013 0 4.56182194
v 1.82604444 0 4.95315266
v 1.43471408 0 5.27430916
v 0.98824823 0 5.51294994
v 0.50380456 0 5.65990448
v 0 0 5.70952511
v -0.50380456 0 5.65990448
v -0.98824823 0 5.51294994
v -1.43471408 0 5.27430916
v -1.82604444 0 4.95315266
v -2.1472013 0 4.56182194
v -2.58309674 0 2.93290806
v 2.58309674 0 2.93290806
v 2.58309674 0 3.12020469
v -2.58309674 0 3.12020469
v -2.53279638 0 3.63091278
v -2.67128563 0 3.6584599
v -2.72361922 0 3.1271081
v -2.38584208 0 4.11535645
v -2.51629591 0 4.16939211
v -2.1472013 0 4.56182194
v -2.26460648 0 4.64026976
v -1.82604444 0 4.95315266
v -1.92588961 0 5.05299759
v -1.43471408 0 5.27430916
v -1.51316178 0 5.39171457
v -0.98824823 0 5.51294994
v -1.04228401 0 5.64340401
v -0.50380456 0 5.65990448
v -0.53135175 0 5.79839373
v 0 0 5.70952511
v 0 0 5.85072708
v 0.50380456 0 5.65990448
v 0.53135175 0 5.79839373
v 0.98824823 0 5.51294994
v 1.04228401 0 5.64340401
v 1.43471408 0 5.27430916
v 1.51316178 0 5.39171457
v 1.82604444 0 4.95315266
v 1.92588961 0 5.05299759
v 2.1472013 0 4.56182194
v 2.26460648 0 4.64026976
v 2.38584208 0 4.11535645
v 2.51629591 0 4.16939211
v 2.53279638 0 3.63091278
v 2.67128563 0 3.6584599
v 2.72361922 0 3.1271081
v 2.58309698 0 -1.37491751
v -2.58309698 0 -1.37491751
v -2.72361922 0 -1.51543999
v 2.72361922 0 -1.51543999
v 2.72361922 0 2.93366861
v -2.72361922 0 2.93366861
v -2.58309698 0 -1.37491751
v 2.58309698 0 -1.37491751
v 2.58309674 0 2.93290806
v -2.58309674 0 2.93290806
vn 0.91145 -0.20111 -0.35892
vn 0.9238 -0.1169 -0.3646
vn 0.84711 -0.1169 -0.5184
vn 0.83511 -0.2011 -0.51201
vn -0.52641 -0.2011 0.82611
vn -0.533 -0.1169 0.838
vn -0.38061 -0.1169 0.91732
vn -0.37469 -0.2011 0.90508
vn 0.0597 -0.20109 0.97775
vn 0.0613 -0.11689 0.99125
vn 0.23131 -0.1169 0.96583
vn 0.22889 -0.20109 0.95246
vn -0.94836 -0.20109 -0.24529
vn -0.96168 -0.1169 -0.248
vn -0.99004 -0.1169 -0.0785
vn -0.97657 -0.20109 -0.0767
vn 0.52641 -0.2011 -0.82611
vn 0.533 -0.1169 -0.838
vn 0.38061 -0.1169 -0.91732
vn 0.37469 -0.2011 -0.90508
vn 0.62301 -0.2011 0.75592
vn 0.63228 -0.1169 0.76587
vn 0.75483 -0.1169 0.64542
vn 0.74501 -0.2011 0.63601
vn -0.0597 -0.20109 -0.97775
vn -0.0613 -0.11689 -0.99125
vn -0.23131 -0.1169 -0.96583
vn -0.22889 -0.20109 -0.95246
vn 0.96168 -0.1169 0.248
vn 0.99004 -0.1169 0.0785
vn 0.97657 -0.20109 0.0767
vn 0.94836 -0.20109 0.24529
vn -0.63228 -0.1169 -0.76587
vn -0.75483 -0.1169 -0.64542
vn -0.74501 -0.2011 -0.63601
vn -0.62301 -0.2011 -0.75592
vn -0.382 -0.109 0.91771
vn -0.3751 -0.2086 0.90321
vn -0.5246 -0.2086 0.8254
vn -0.53261 -0.109 0.83931
vn -0.64619 -0.1129 0.75478
vn -0.63601 -0.2048 0.74401
vn -0.75492 -0.20481 0.62302
vn -0.76589 -0.1129 0.63299
vn 0.84711 0.1169 -0.5184
vn 0.9238 0.1169 -0.3646
vn 0.91145 0.20111 -0.35892
vn 0.83511 0.2011 -0.51201
vn -0.99167 -0.1129 0.062
vn -0.96643 -0.1129 0.23081
vn -0.95186 -0.20479 0.22809
vn -0.97694 -0.20481 0.0603
vn -0.23039 -0.109 -0.96697
vn -0.2274 -0.2086 -0.9512
vn -0.0608 -0.2086 -0.97611
vn -0.0625 -0.109 -0.99208
vn 0.2475 -0.1129 -0.96229
vn 0.0791 -0.11291 -0.99045
vn 0.0772 -0.20481 -0.97575
vn 0.24449 -0.2048 -0.94778
vn 0.75477 -0.109 0.64687
vn 0.74307 -0.20859 0.63587
vn 0.62289 -0.2086 0.75399
vn 0.63368 -0.109 0.76588
vn 0.36539 -0.1129 0.92398
vn 0.51812 -0.1129 0.84783
vn 0.51101 -0.2048 0.83482
vn 0.3592 -0.2048 0.91051
vn -0.75477 -0.109 -0.64687
vn -0.74307 -0.20859 -0.63587
vn -0.62289 -0.2086 -0.75399
vn -0.63368 -0.109 -0.76588
vn 0.99084 -0.109 0.0797
vn 0.97491 -0.2086 0.0777
vn 0.9471 -0.2086 0.2439
vn 0.96284 -0.109 0.24711
vn 0.382 -0.109 -0.91771
vn 0.3751 -0.2086 -0.90321
vn 0.5246 -0.2086 -0.8254
vn 0.53261 -0.109 -0.83931
vn 0.76589 -0.1129 -0.63299
vn 0.64619 -0.1129 -0.75478
vn 0.63601 -0.2048 -0.74401
vn 0.75492 -0.20481 -0.62302
vn 0.23039 -0.109 0.96697
vn 0.2274 -0.2086 0.9512
vn 0.0608 -0.2086 0.97611
vn 0.0625 -0.109 0.99208
vn -0.2475 -0.1129 0.96229
vn -0.0791 -0.11291 0.99045
vn -0.0772 -0.20481 0.97575
vn -0.24449 -0.2048 0.94778
vn -0.83868 -0.1129 -0.53279
vn -0.91753 -0.1129 -0.38131
vn -0.90412 -0.2048 -0.37501
vn -0.82583 -0.20481 -0.52542
vn 0.84845 -0.10901 -0.51793
vn 0.83438 -0.2086 -0.51019
vn 0.90958 -0.20859 -0.35939
vn 0.92421 -0.109 -0.366
vn 0.99167 -0.1129 -0.062
vn 0.96643 -0.1129 -0.23081
vn 0.95186 -0.20479 -0.22809
vn 0.97694 -0.20481 -0.0603
vn -0.99084 -0.109 -0.0797
vn -0.97491 -0.2086 -0.0777
vn -0.9471 -0.2086 -0.2439
vn -0.96284 -0.109 -0.24711
vn -0.36539 -0.1129 -0.92398
vn -0.51812 -0.1129 -0.84783
vn -0.51101 -0.2048 -0.83482
vn -0.3592 -0.2048 -0.91051
vn 0.83868 -0.1129 0.53279
vn 0.91753 -0.1129 0.38131
vn 0.90412 -0.2048 0.37501
vn 0.82583 -0.20481 0.52542
vn 0.92422 0.1089 -0.36601
vn 0.90958 0.20859 -0.35939
vn 0.83438 0.2086 -0.51019
vn 0.84845 0.10901 -0.51793
vn -0.71198 -0.0583 0.69978
vn -0.71197 -0.0584 0.69977
vn -0.1647 -0.0584 0.98461
vn 0.44549 -0.0583 0.89339
vn 0.44549 -0.0584 0.89338
vn 0.88553 -0.0583 0.46091
vn 0.88552 -0.0584 0.46091
vn 0.98732 -0.0584 -0.1476
vn 0.71197 -0.0584 -0.69977
vn 0.1647 -0.0583 -0.98462
vn 0.1647 -0.0584 -0.98461
vn -0.44549 -0.0584 -0.89338
vn -0.44549 -0.0583 -0.89339
vn -0.88552 -0.0584 -0.46091
vn -0.88553 -0.0583 -0.46091
vn -0.98732 -0.0584 0.1476
vn -0.69442 -0.22791 0.68252
vn -0.16061 -0.22791 0.96034
vn -0.1607 -0.22791 0.96033
vn 0.43449 -0.22789 0.87137
vn 0.86371 -0.2279 0.44951
vn 0.96298 -0.2279 -0.144
vn 0.69442 -0.22791 -0.68252
vn 0.16061 -0.22791 -0.96034
vn -0.43449 -0.22789 -0.87137
vn -0.86371 -0.2279 -0.44951
vn 0.96298 0.2279 -0.144
vn -1 0 -0
vn 0 0.93548 -0.35339
vn 1 0 -0
vn 0 0 1
vn 0 -1 -0
vn 0 1 -0
vn 0 0 -1
vn -0.99965 0 0.0264
vn 0.99965 0 0.0264
vn 0 -0.92111 0.3893
vn 0 0.93081 -0.3655
vn 0 0.89268 0.45069
vn 0.3183 0.94799 -0
vn 0 0.89268 -0.45069
vn -0.3183 0.94799 -0
vn -0.78701 0.2558 0.56141
vn -0.5792 0.7027 0.4132
vn -0.2131 0.96512 0.1521
vn 0.2131 0.96512 -0.1521
vn 0.5792 0.7027 -0.4132
vn 0.78699 0.2559 -0.56139
vn 0.78699 -0.2559 -0.56139
vn 0.5792 -0.7027 -0.4132
vn 0.2131 -0.96512 -0.1521
vn -0.2131 -0.96512 0.1521
vn -0.5792 -0.7027 0.4132
vn -0.78701 -0.2558 0.56141
vn -0.57502 0.25581 0.77712
vn -0.42319 0.70268 0.57198
vn -0.1557 0.96511 0.2105
vn 0.1557 0.96511 -0.2105
vn 0.42319 0.70268 -0.57198
vn 0.57502 0.25581 -0.77712
vn 0.57502 -0.25581 -0.77712
vn 0.42319 -0.70268 -0.57198
vn 0.1557 -0.96511 -0.2105
vn -0.1557 -0.96511 0.2105
vn -0.42319 -0.70268 0.57198
vn -0.57502 -0.25581 0.77712
vn -0.3067 0.2558 0.91679
vn -0.22571 0.70272 0.67472
vn -0.0831 0.96511 0.2483
vn 0.0831 0.96511 -0.2483
vn 0.22571 0.70272 -0.67472
vn 0.3067 0.2558 -0.91679
vn 0.3067 -0.2558 -0.91679
vn 0.22571 -0.70272 -0.67472
vn 0.0831 -0.96511 -0.2483
vn -0.0831 -0.96511 0.2483
vn -0.22571 -0.70272 0.67472
vn -0.3067 -0.2558 0.91679
vn -0.0084 0.25589 0.96667
vn -0.0062 0.70268 0.71148
vn -0.0023 0.96512 0.2618
vn 0.0023 0.96512 -0.2618
vn 0.0062 0.70268 -0.71148
vn 0.0084 0.2558 -0.96669
vn 0.0084 -0.2558 -0.96669
vn 0.0062 -0.70268 -0.71148
vn 0.0023 -0.96512 -0.2618
vn -0.0023 -0.96512 0.2618
vn -0.0062 -0.70268 0.71148
vn -0.0084 -0.25589 0.96667
vn 0.29079 0.25579 0.92196
vn 0.21401 0.70272 0.67852
vn 0.0788 0.96511 0.2497
vn -0.0787 0.96512 -0.2497
vn -0.21401 0.70272 -0.67852
vn -0.29079 0.25579 -0.92196
vn -0.29079 -0.25579 -0.92196
vn -0.21401 -0.70272 -0.67852
vn -0.0788 -0.96511 -0.2497
vn 0.0787 -0.96512 0.2497
vn 0.21401 -0.70272 0.67852
vn 0.29079 -0.25579 0.92196
vn 0.56141 0.2558 0.78701
vn 0.4132 0.7027 0.5792
vn 0.1521 0.96512 0.2131
vn -0.1521 0.9651 -0.2132
vn -0.4132 0.7027 -0.5792
vn -0.56141 0.2558 -0.78701
vn -0.56141 -0.2558 -0.78701
vn -0.4132 -0.7027 -0.5792
vn -0.1521 -0.96512 -0.2131
vn 0.1521 -0.96512 0.2131
vn 0.4132 -0.7027 0.5792
vn 0.56141 -0.2558 0.78701
vn 0.77712 0.25581 0.57502
vn 0.57198 0.70268 0.42319
vn 0.2105 0.96511 0.1557
vn -0.2105 0.96511 -0.1557
vn -0.57198 0.70268 -0.42319
vn -0.77712 0.25581 -0.57502
vn -0.77712 -0.25581 -0.57502
vn -0.57198 -0.70268 -0.42319
vn -0.2105 -0.96511 -0.1557
vn 0.2105 -0.96511 0.1557
vn 0.57198 -0.70268 0.42319
vn 0.77712 -0.25581 0.57502
vn 0.91679 0.2558 0.3067
vn 0.67472 0.70272 0.22571
vn 0.2483 0.96511 0.0831
vn -0.2483 0.96511 -0.0831
vn -0.67472 0.70272 -0.22571
vn -0.91679 0.2558 -0.3067
vn -0.91679 -0.2558 -0.3067
vn -0.67472 -0.70272 -0.22571
vn -0.2483 -0.96511 -0.0831
vn 0.2483 -0.96511 0.0831
vn 0.67472 -0.70272 0.22571
vn 0.91679 -0.2558 0.3067
vn 0.96669 0.2558 0.0084
vn 0.71143 0.70273 0.0062
vn 0.2618 0.96512 0.0023
vn -0.2618 0.96512 -0.0023
vn -0.71143 0.70273 -0.0062
vn -0.96669 0.2558 -0.0084
vn -0.96669 -0.2558 -0.0084
vn -0.71148 -0.70268 -0.0062
vn -0.2618 -0.96512 -0.0023
vn 0.2618 -0.96512 0.0023
vn 0.71143 -0.70273 0.0062
vn 0.96669 -0.2558 0.0084
vn 0.92196 0.25579 -0.29079
vn 0.67852 0.70272 -0.21401
vn 0.2497 0.96512 -0.0787
vn -0.2497 0.96512 0.0787
vn -0.67852 0.70272 0.21401
vn -0.92194 0.25588 0.29078
vn -0.92199 -0.2558 0.2907
vn -0.67852 -0.70272 0.21401
vn -0.2497 -0.96512 0.0787
vn 0.2497 -0.96512 -0.0787
vn 0.67852 -0.70272 -0.21401
vn 0.92196 -0.25579 -0.29079
vn 0.78701 0.2558 -0.56141
vn -0.2132 0.9651 0.1521
vn -0.78699 0.2559 0.56139
vn 0.78701 -0.2558 -0.56141
vn 0.42321 0.70272 -0.57191
vn 0.42321 -0.70272 -0.57191
vn -0.99918 0.0393 -0.0096
vn -0.0062 0.70273 0.71143
vn -0.0084 0.2558 0.96669
vn -0.0084 -0.2558 0.96669
vn -0.0062 -0.70273 0.71143
vn 0.99897 0.0444 0.0096
vn -0.0788 0.96511 -0.2497
vn 0.29078 0.25588 0.92194
vn 0.29069 -0.25589 0.92197
vn -0.0787 -0.96512 -0.2497
vn -0.2907 -0.2558 -0.92199
vn -0.1521 0.96512 -0.2131
vn -0.56139 -0.2559 -0.78699
vn -0.57191 0.70272 -0.42321
vn -0.7771 -0.2559 -0.575
vn 0.71148 0.70268 0.0062
vn 0.71148 -0.70268 0.0062
vn -0.92196 0.25579 0.29079
vn 0.92194 0.25588 -0.29078
vn -0.92196 -0.25579 0.29079
vn 0.0141 -0 -0.9999
vn -0.0201 0.0152 0.99968
vn 0.99897 -0.0444 0.0096
vn -0.99918 -0.0393 -0.0096
vn -0.0126 0.0051 0.99991
vn -0.0148 -0.0156 0.99977
vn -0.0126 -0.0051 0.99991
vn -0.0201 -0.0152 0.99968
vn -0.0148 0.0156 0.99977
vt 0.31571 0.79747
vt 0.30395 0.81405
vt 0.30313 0.81206
vt 0.31337 0.79823
vt 0.26645 0.8135
vt 0.27451 0.81088
vt 0.29646 0.79101
vt 0.29698 0.7931
vt 0.35572 0.79736
vt 0.37503 0.79089
vt 0.37452 0.79298
vt 0.35807 0.79813
vt 0.40506 0.81341
vt 0.39699 0.81079
vt 0.36751 0.81396
vt 0.36832 0.81196
vt 0.34804 0.80783
vt 0.36586 0.81536
vt 0.34949 0.80984
vt 0.37857 0.84984
vt 0.37359 0.84298
vt 0.34786 0.82823
vt 0.34969 0.82708
vt 0.34814 0.77398
vt 0.34788 0.75361
vt 0.34972 0.75475
vt 0.34959 0.77198
vt 0.37855 0.73196
vt 0.37357 0.73883
vt 0.36753 0.76783
vt 0.36588 0.76645
vt 0.31577 0.78453
vt 0.29697 0.78891
vt 0.31342 0.78376
vt 0.26644 0.7685
vt 0.27451 0.77112
vt 0.30397 0.76794
vt 0.30316 0.76995
vt 0.33567 0.81187
vt 0.34571 0.82839
vt 0.33567 0.81435
vt 0.33575 0.86377
vt 0.33574 0.85529
vt 0.32359 0.82827
vt 0.32574 0.82841
vt 0.32343 0.77405
vt 0.30561 0.76655
vt 0.32197 0.77204
vt 0.29289 0.73207
vt 0.29788 0.73893
vt 0.3236 0.75366
vt 0.32177 0.75481
vt 0.29293 0.8499
vt 0.2979 0.84304
vt 0.32175 0.82714
vt 0.3056 0.81543
vt 0.32332 0.80792
vt 0.32187 0.80992
vt 0.33569 0.71811
vt 0.33571 0.72659
vt 0.32576 0.7535
vt 0.34572 0.75347
vt 0.33579 0.77002
vt 0.33579 0.76754
vt 0.34536 0.7978
vt 0.3456 0.79727
vt 0.35378 0.79672
vt 0.3428 0.79301
vt 0.34332 0.79319
vt 0.34774 0.79086
vt 0.34761 0.79142
vt 0.35582 0.79628
vt 0.37049 0.79089
vt 0.3489 0.79087
vt 0.35577 0.78443
vt 0.35586 0.7855
vt 0.40506 0.76837
vt 0.39699 0.771
vt 0.37451 0.7888
vt 0.36835 0.76983
vt 0.35811 0.78367
vt 0.36386 0.77052
vt 0.34886 0.77479
vt 0.35521 0.7835
vt 0.34549 0.78394
vt 0.34643 0.78326
vt 0.33214 0.77974
vt 0.33163 0.78004
vt 0.32464 0.77571
vt 0.33156 0.78524
vt 0.33122 0.78478
vt 0.32613 0.78409
vt 0.32657 0.7837
vt 0.30765 0.77061
vt 0.31633 0.78361
vt 0.32271 0.77488
vt 0.32519 0.78339
vt 0.33191 0.8022
vt 0.33249 0.80225
vt 0.33565 0.80982
vt 0.33549 0.79805
vt 0.33551 0.79863
vt 0.33932 0.80211
vt 0.33873 0.80218
vt 0.34644 0.82391
vt 0.34704 0.80826
vt 0.33673 0.81162
vt 0.33968 0.80324
vt 0.33953 0.77969
vt 0.33895 0.77964
vt 0.3358 0.77207
vt 0.3359 0.7838
vt 0.3359 0.78323
vt 0.33272 0.77968
vt 0.32597 0.79798
vt 0.3264 0.79835
vt 0.32451 0.80625
vt 0.3312 0.79682
vt 0.33088 0.79727
vt 0.33141 0.80192
vt 0.32589 0.78462
vt 0.31771 0.78518
vt 0.32881 0.78893
vt 0.32827 0.78874
vt 0.32377 0.79104
vt 0.3239 0.79048
vt 0.301 0.791
vt 0.31562 0.7964
vt 0.31567 0.78562
vt 0.32261 0.79103
vt 0.33983 0.80182
vt 0.34684 0.80617
vt 0.33991 0.79651
vt 0.34025 0.797
vt 0.34492 0.79818
vt 0.36383 0.81129
vt 0.35517 0.79829
vt 0.34876 0.80701
vt 0.3463 0.7985
vt 0.34649 0.75794
vt 0.33685 0.77026
vt 0.34714 0.77356
vt 0.33988 0.77858
vt 0.32389 0.7916
vt 0.31766 0.79684
vt 0.32862 0.79334
vt 0.3281 0.7935
vt 0.32574 0.79746
vt 0.30762 0.81137
vt 0.32261 0.80711
vt 0.31627 0.7984
vt 0.32503 0.79866
vt 0.34506 0.78357
vt 0.34695 0.77564
vt 0.34021 0.78512
vt 0.34053 0.78466
vt 0.34003 0.77998
vt 0.32502 0.75798
vt 0.32443 0.77363
vt 0.33473 0.77026
vt 0.33177 0.77862
vt 0.32497 0.82394
vt 0.33461 0.81163
vt 0.32432 0.80834
vt 0.33156 0.80332
vt 0.34572 0.78447
vt 0.35382 0.78506
vt 0.34284 0.78865
vt 0.34337 0.78848
vt 0.34762 0.79031
vt 0.34314 0.78914
vt 0.34313 0.7925
vt 0.34678 0.79086
vt 0.34459 0.79721
vt 0.34273 0.79358
vt 0.34052 0.7963
vt 0.33901 0.80119
vt 0.33951 0.79699
vt 0.33612 0.7982
vt 0.33219 0.80128
vt 0.33492 0.79821
vt 0.33161 0.79728
vt 0.32674 0.79741
vt 0.33067 0.7966
vt 0.32867 0.79394
vt 0.32473 0.79106
vt 0.32832 0.79282
vt 0.32848 0.78942
vt 0.32691 0.78466
vt 0.32887 0.78833
vt 0.33096 0.78548
vt 0.33245 0.78066
vt 0.33195 0.78479
vt 0.33529 0.78365
vt 0.33924 0.78061
vt 0.33648 0.78366
vt 0.3398 0.78465
vt 0.34074 0.78533
vt 0.3428 0.78804
vt 0.34472 0.78452
vt 0.40318 0.77351
vt 0.38 0.79089
vt 0.40318 0.80827
vt 0.37153 0.81688
vt 0.38007 0.84458
vt 0.40051 0.81647
vt 0.3494 0.83295
vt 0.34006 0.86039
vt 0.3731 0.84965
vt 0.32206 0.83299
vt 0.29839 0.8497
vt 0.33144 0.8604
vt 0.29994 0.81697
vt 0.27099 0.81655
vt 0.29142 0.84464
vt 0.2915 0.791
vt 0.26832 0.77363
vt 0.26833 0.80837
vt 0.29995 0.76502
vt 0.29139 0.73733
vt 0.27098 0.76544
vt 0.32206 0.74894
vt 0.33139 0.72149
vt 0.29836 0.73227
vt 0.34941 0.74889
vt 0.37308 0.73216
vt 0.34001 0.72148
vt 0.40051 0.76532
vt 0.37154 0.76491
vt 0.38005 0.73722
vt 0.01095 0.884
vt 0.12355 0.89624
vt 0.13612 0.9082
vt 0.00037 0.89626
vt 0.2065 0.80705
vt 0.20686 0.82023
vt 0.19938 0.81446
vt 0.19955 0.8132
vt 0.00037 0.71811
vt 0.13612 0.73005
vt 0.12555 0.74231
vt 0.01294 0.73007
vt 0.51092 0.88839
vt 0.55177 0.88839
vt 0.55177 0.94456
vt 0.51092 0.94456
vt 0.85784 0.15984
vt 0.96235 0.15984
vt 0.96709 0.16488
vt 0.8531 0.16488
vt 0.96235 0.00542
vt 0.85784 0.00542
vt 0.8531 0.00037
vt 0.96709 0.00037
vt 0.36052 0.94949
vt 0.36052 0.89741
vt 0.40367 0.86451
vt 0.40367 0.96902
vt 0.46703 0.96
vt 0.46703 0.90792
vt 0.51017 0.88839
vt 0.51017 0.99289
vt 0.96474 0.27689
vt 0.96474 0.20877
vt 0.98428 0.16563
vt 0.98428 0.32004
vt 0.98931 0.56534
vt 0.98931 0.63346
vt 0.95641 0.67661
vt 0.95641 0.52219
vt 0.4285 0.93206
vt 0.4285 0.89121
vt 0.43447 0.8856
vt 0.43447 0.93767
vt 0.6499 0.93485
vt 0.6499 0.894
vt 0.65588 0.88839
vt 0.65588 0.94046
vt 0.90592 0.49283
vt 0.90592 0.43666
vt 0.91153 0.43068
vt 0.91153 0.4988
vt 0.91227 0.49283
vt 0.91227 0.43666
vt 0.91788 0.43068
vt 0.91788 0.4988
vt 0.25628 0.73379
vt 0.14657 0.7376
vt 0.13686 0.72457
vt 0.2657 0.71811
vt 0.14688 0.88934
vt 0.13717 0.90234
vt 0.25634 0.89388
vt 0.2657 0.90956
vt 0.1996 0.81344
vt 0.19954 0.8135
vt 0.19958 0.81357
vt 0.1978 0.80745
vt 0.19745 0.8199
vt 0.19941 0.81413
vt 0.40736 0.8856
vt 0.4262 0.8856
vt 0.42776 0.94976
vt 0.4058 0.94976
vt 0.19945 0.8141
vt 0.19948 0.81404
vt 0.97911 0.67735
vt 0.99372 0.67735
vt 0.99372 0.88156
vt 0.97911 0.88156
vt 0.62928 0.91827
vt 0.64389 0.91827
vt 0.64916 0.9262
vt 0.62401 0.9262
vt 0.43924 0.71811
vt 0.4612 0.71811
vt 0.4612 0.92232
vt 0.43924 0.92232
vt 0.98502 0.16563
vt 0.99963 0.16563
vt 0.99963 0.36984
vt 0.98502 0.36984
vt 0.95641 0.67735
vt 0.97837 0.67735
vt 0.97837 0.88156
vt 0.95641 0.88156
vt 0.58137 0.92722
vt 0.58137 0.90207
vt 0.60195 0.88839
vt 0.60195 0.94091
vt 0.62928 0.89631
vt 0.62401 0.88839
vt 0.64389 0.89631
vt 0.64916 0.88839
vt 0.4058 0.84097
vt 0.4058 0.762
vt 0.4385 0.71811
vt 0.4385 0.88486
vt 0.55251 0.94678
vt 0.55251 0.90896
vt 0.5662 0.88839
vt 0.5662 0.96736
vt 0.60269 0.92722
vt 0.60269 0.90207
vt 0.62327 0.88839
vt 0.62327 0.94091
vt 0.58063 0.90896
vt 0.58063 0.94678
vt 0.56694 0.96736
vt 0.56694 0.88839
vt 0.964 0.16563
vt 0.964 0.33237
vt 0.8531 0.33237
vt 0.8531 0.16563
vt 0.31274 0.8937
vt 0.31274 0.94622
vt 0.26644 0.97541
vt 0.26644 0.86451
vt 0.91873 0.45598
vt 0.91873 0.377
vt 0.95143 0.33312
vt 0.95143 0.49986
vt 0.35978 0.8937
vt 0.35978 0.94622
vt 0.31348 0.97541
vt 0.31348 0.86451
vt 0.89956 0.49283
vt 0.90518 0.4988
vt 0.8531 0.4988
vt 0.85871 0.49283
vt 0.85871 0.43666
vt 0.8531 0.43068
vt 0.90518 0.43068
vt 0.89956 0.43666
vt 0.90953 0.42994
vt 0.90112 0.42886
vt 0.90128 0.42806
vt 0.90957 0.42915
vt 0.90145 0.42727
vt 0.90962 0.42836
vt 0.97793 0.34474
vt 0.97523 0.3534
vt 0.97439 0.35316
vt 0.97709 0.34448
vt 0.97352 0.3529
vt 0.97623 0.3442
vt 0.97264 0.35264
vt 0.97534 0.34392
vt 0.97174 0.35237
vt 0.97444 0.34363
vt 0.97083 0.3521
vt 0.97354 0.34334
vt 0.96995 0.35184
vt 0.97265 0.34305
vt 0.96906 0.35158
vt 0.97179 0.34276
vt 0.9682 0.35132
vt 0.97094 0.34248
vt 0.96734 0.35107
vt 0.97009 0.3422
vt 0.9665 0.35082
vt 0.96926 0.34192
vt 0.89277 0.42647
vt 0.89306 0.42569
vt 0.89334 0.42492
vt 0.9728 0.36213
vt 0.97194 0.36191
vt 0.97107 0.36167
vt 0.97017 0.36144
vt 0.96926 0.3612
vt 0.96835 0.36095
vt 0.96745 0.36071
vt 0.96656 0.36048
vt 0.96569 0.36024
vt 0.96483 0.36002
vt 0.96397 0.35979
vt 0.88468 0.42278
vt 0.88509 0.42203
vt 0.8855 0.42129
vt 0.97061 0.37096
vt 0.96975 0.37076
vt 0.96887 0.37055
vt 0.96796 0.37034
vt 0.96704 0.37013
vt 0.96612 0.36991
vt 0.9652 0.36969
vt 0.96432 0.36948
vt 0.96343 0.36927
vt 0.96255 0.36907
vt 0.96167 0.36886
vt 0.87705 0.4178
vt 0.87758 0.4171
vt 0.87811 0.41642
vt 0.96867 0.37986
vt 0.9678 0.37968
vt 0.96693 0.3795
vt 0.96601 0.37931
vt 0.96508 0.37913
vt 0.96415 0.37894
vt 0.96323 0.37876
vt 0.96232 0.37857
vt 0.96143 0.37839
vt 0.96055 0.37822
vt 0.95968 0.37804
vt 0.87018 0.41165
vt 0.87081 0.41105
vt 0.87144 0.41044
vt 0.967 0.3888
vt 0.96613 0.38865
vt 0.96524 0.3885
vt 0.96432 0.38834
vt 0.96339 0.38818
vt 0.96246 0.38802
vt 0.96154 0.38787
vt 0.96063 0.38771
vt 0.95974 0.38756
vt 0.95885 0.38741
vt 0.95797 0.38727
vt 0.86439 0.40462
vt 0.86509 0.40412
vt 0.86578 0.40364
vt 0.96559 0.39778
vt 0.96472 0.39765
vt 0.96382 0.39752
vt 0.9629 0.39739
vt 0.96197 0.39725
vt 0.96104 0.39712
vt 0.96011 0.39699
vt 0.95921 0.39686
vt 0.95832 0.39674
vt 0.95744 0.39662
vt 0.95657 0.3965
vt 0.85969 0.39682
vt 0.86046 0.39643
vt 0.86124 0.39603
vt 0.96443 0.40674
vt 0.96356 0.40664
vt 0.96267 0.40654
vt 0.96176 0.40643
vt 0.96082 0.40633
vt 0.95989 0.40622
vt 0.95897 0.40611
vt 0.95806 0.40601
vt 0.95718 0.40591
vt 0.95629 0.40581
vt 0.95541 0.40571
vt 0.85617 0.3883
vt 0.85701 0.38802
vt 0.85782 0.38776
vt 0.96358 0.41574
vt 0.9627 0.41566
vt 0.9618 0.41559
vt 0.96088 0.41552
vt 0.95994 0.41544
vt 0.959 0.41536
vt 0.95806 0.41528
vt 0.95715 0.4152
vt 0.95625 0.41512
vt 0.95536 0.41505
vt 0.95447 0.41497
vt 0.85397 0.37935
vt 0.85482 0.3792
vt 0.85568 0.37906
vt 0.96298 0.4248
vt 0.9621 0.42475
vt 0.96119 0.42471
vt 0.96027 0.42466
vt 0.95932 0.42461
vt 0.95838 0.42456
vt 0.95744 0.42452
vt 0.95652 0.42446
vt 0.95562 0.42441
vt 0.95472 0.42436
vt 0.95383 0.42432
vt 0.8531 0.37006
vt 0.85399 0.37004
vt 0.85488 0.37003
vt 0.96265 0.4339
vt 0.96177 0.43389
vt 0.96085 0.43387
vt 0.95993 0.43385
vt 0.95898 0.43383
vt 0.95802 0.43381
vt 0.95709 0.43379
vt 0.95617 0.43376
vt 0.95526 0.43374
vt 0.95436 0.43372
vt 0.95346 0.4337
vt 0.85365 0.36064
vt 0.85454 0.36075
vt 0.85541 0.36087
vt 0.96261 0.44306
vt 0.96171 0.44306
vt 0.96081 0.44307
vt 0.95987 0.44308
vt 0.95892 0.44309
vt 0.95796 0.4431
vt 0.95702 0.4431
vt 0.95609 0.44311
vt 0.95517 0.44311
vt 0.95426 0.44312
vt 0.95337 0.44312
vt 0.85561 0.35128
vt 0.85651 0.35155
vt 0.85735 0.3518
vt 0.96284 0.45223
vt 0.96195 0.45227
vt 0.96103 0.45232
vt 0.96008 0.45236
vt 0.95913 0.45239
vt 0.95817 0.45243
vt 0.95722 0.45246
vt 0.95629 0.45249
vt 0.95537 0.45253
vt 0.95445 0.45255
vt 0.95356 0.45258
vt 0.85926 0.34146
vt 0.8603 0.34165
vt 0.86108 0.34231
vt 0.96342 0.46141
vt 0.96253 0.46152
vt 0.9616 0.46163
vt 0.96065 0.46174
vt 0.95967 0.46186
vt 0.95868 0.46197
vt 0.95769 0.46208
vt 0.9567 0.46219
vt 0.95573 0.4623
vt 0.95475 0.46239
vt 0.95385 0.46204
vt 0.87093 0.33491
vt 0.87056 0.33585
vt 0.86872 0.33369
vt 0.86934 0.33312
vt 0.87074 0.33696
vt 0.96506 0.47046
vt 0.9642 0.47066
vt 0.9633 0.47087
vt 0.96236 0.4711
vt 0.96141 0.47134
vt 0.96045 0.47158
vt 0.95948 0.47182
vt 0.95852 0.47207
vt 0.95758 0.47231
vt 0.95671 0.47256
vt 0.85851 0.33888
vt 0.85943 0.33863
vt 0.88141 0.33701
vt 0.88114 0.33797
vt 0.88088 0.33893
vt 0.96769 0.47916
vt 0.96686 0.47943
vt 0.96602 0.47971
vt 0.96514 0.48
vt 0.96424 0.48031
vt 0.96334 0.48062
vt 0.96246 0.48092
vt 0.96159 0.48122
vt 0.96075 0.48152
vt 0.95997 0.4818
vt 0.95915 0.4821
vt 0.95592 0.47323
vt 0.89144 0.3406
vt 0.89103 0.34153
vt 0.89061 0.34246
vt 0.97069 0.48762
vt 0.96987 0.48793
vt 0.96902 0.48824
vt 0.96816 0.48855
vt 0.96729 0.48887
vt 0.96642 0.48919
vt 0.96555 0.48951
vt 0.9647 0.48983
vt 0.96386 0.49015
vt 0.96303 0.49045
vt 0.96222 0.49076
vt 0.90105 0.34577
vt 0.90049 0.34665
vt 0.89993 0.34752
vt 0.97387 0.49599
vt 0.97306 0.49631
vt 0.97224 0.49663
vt 0.97139 0.49696
vt 0.97054 0.4973
vt 0.96968 0.49765
vt 0.96883 0.49799
vt 0.968 0.49833
vt 0.96718 0.49867
vt 0.96636 0.499
vt 0.96556 0.49932
vt 0.91 0.35247
vt 0.90929 0.35327
vt 0.90859 0.35407
vt 0.97724 0.50419
vt 0.97645 0.50451
vt 0.97565 0.50485
vt 0.97482 0.50519
vt 0.97397 0.50556
vt 0.97313 0.50592
vt 0.9723 0.50629
vt 0.97149 0.50665
vt 0.9707 0.50701
vt 0.96991 0.50736
vt 0.96912 0.50772
vt 0.91799 0.36061
vt 0.91719 0.36133
vt 0.91635 0.36199
vt 0.98063 0.51229
vt 0.9798 0.5125
vt 0.97898 0.51271
vt 0.97819 0.51295
vt 0.97741 0.51325
vt 0.97667 0.51363
vt 0.97596 0.51406
vt 0.97525 0.51454
vt 0.97455 0.51503
vt 0.97382 0.51548
vt 0.97307 0.51589
vt 0.91799 0.42978
vt 0.91794 0.42899
vt 0.91784 0.4282
vt 0.98063 0.33606
vt 0.97976 0.33593
vt 0.97889 0.33579
vt 0.97804 0.33562
vt 0.97722 0.33539
vt 0.97642 0.33508
vt 0.97564 0.3347
vt 0.97487 0.33428
vt 0.97409 0.33385
vt 0.97329 0.33345
vt 0.97248 0.33312
vt 0.6595 0.91386
vt 0.65662 0.91375
vt 0.65662 0.88847
vt 0.6595 0.88839
vt 0.66238 0.88847
vt 0.66238 0.91375
vt 0.46283 0.72596
vt 0.46194 0.72593
vt 0.46194 0.71811
vt 0.46482 0.71819
vt 0.95256 0.4637
vt 0.95217 0.46311
vt 0.95384 0.47191
vt 0.95364 0.47271
vt 0.46283 0.73571
vt 0.46482 0.74348
vt 0.46453 0.77035
vt 0.46542 0.77036
vt 0.46572 0.77819
vt 0.46283 0.77819
vt 0.46283 0.76185
vt 0.46283 0.75209
vt 0.46482 0.74433
vt 0.46482 0.76961
vt 0.46306 0.77894
vt 0.46395 0.77893
vt 0.46571 0.78675
vt 0.46283 0.78675
vt 0.46194 0.73576
vt 0.46194 0.74359
vt 0.00037 0.00037
vt 0.0394 0.00114
vt 0.0394 0.16534
vt 0.0394 0.32955
vt 0.04126 0.34834
vt 0.04311 0.36713
vt 0.42474 0.00113
vt 0.46628 0.00037
vt 0.46628 0.71737
vt 0.42474 0.16534
vt 0.00037 0.71737
vt 0.42474 0.32954
vt 0.42104 0.36713
vt 0.42289 0.34834
vt 0.04859 0.3852
vt 0.05407 0.40328
vt 0.41555 0.3852
vt 0.41007 0.40327
vt 0.06297 0.41993
vt 0.07188 0.43658
vt 0.40117 0.41993
vt 0.39227 0.43658
vt 0.08386 0.45118
vt 0.09584 0.46578
vt 0.11043 0.47776
vt 0.12503 0.48974
vt 0.38029 0.45118
vt 0.33911 0.48974
vt 0.35371 0.47776
vt 0.36831 0.46578
vt 0.14169 0.49864
vt 0.32246 0.49864
vt 0.15834 0.50755
vt 0.3058 0.50755
vt 0.28773 0.51303
vt 0.17641 0.51303
vt 0.19448 0.51851
vt 0.26966 0.51851
vt 0.25086 0.52036
vt 0.21328 0.52036
vt 0.23207 0.52221
vt 0.88527 0.53614
vt 0.91954 0.52575
vt 0.95567 0.52219
vt 0.95567 0.88764
vt 0.91954 0.88408
vt 0.88527 0.87369
vt 0.85369 0.85681
vt 0.82601 0.83409
vt 0.80329 0.80641
vt 0.78641 0.77482
vt 0.77601 0.74056
vt 0.7725 0.70492
vt 0.77601 0.66928
vt 0.78641 0.63501
vt 0.80329 0.60343
vt 0.82601 0.57574
vt 0.85369 0.55303
vt 0.84242 0.20678
vt 0.47697 0.20678
vt 0.47697 0.19353
vt 0.84242 0.19353
vt 0.83886 0.1574
vt 0.84866 0.15545
vt 0.85236 0.19304
vt 0.82846 0.12313
vt 0.83769 0.11931
vt 0.81158 0.09155
vt 0.81989 0.086
vt 0.78886 0.06387
vt 0.79593 0.0568
vt 0.76118 0.04115
vt 0.76673 0.03284
vt 0.7296 0.02427
vt 0.73342 0.01504
vt 0.69533 0.01387
vt 0.69728 0.00407
vt 0.65969 0.01036
vt 0.65969 0.00037
vt 0.62405 0.01387
vt 0.6221 0.00407
vt 0.58978 0.02427
vt 0.58596 0.01504
vt 0.5582 0.04115
vt 0.55265 0.03284
vt 0.53052 0.06387
vt 0.52346 0.0568
vt 0.5078 0.09155
vt 0.4995 0.086
vt 0.49092 0.12313
vt 0.48169 0.11931
vt 0.48052 0.1574
vt 0.47073 0.15545
vt 0.46703 0.19304
vt 0.47697 0.51151
vt 0.84242 0.51151
vt 0.85236 0.52145
vt 0.46703 0.52145
vt 0.46703 0.20672
vt 0.85236 0.20672
vt 0.77176 0.52219
vt 0.77176 0.88764
vt 0.46703 0.88764
vt 0.46703 0.52219
usemtl mat0
f 1/1/1 2/2/1 3/3/1
f 1/1/1 3/3/1 4/4/1
f 2/2/2 5/5/2 6/6/2
f 2/2/2 6/6/2 3/3/2
f 5/5/3 7/7/3 8/8/3
f 5/5/3 8/8/3 6/6/3
f 7/7/4 1/1/4 4/4/4
f 7/7/4 4/4/4 8/8/4
f 9/9/5 10/10/5 11/11/5
f 9/9/5 11/11/5 12/12/5
f 10/10/6 13/13/6 14/14/6
f 10/10/6 14/14/6 11/11/6
f 13/13/7 15/15/7 16/16/7
f 13/13/7 16/16/7 14/14/7
f 15/15/8 9/9/8 12/12/8
f 15/15/8 12/12/8 16/16/8
f 17/17/9 15/15/9 18/18/9
f 17/17/9 18/18/9 19/19/9
f 15/15/10 20/20/10 21/21/10
f 15/15/10 21/21/10 18/18/10
f 20/20/11 22/22/11 23/23/11
f 20/20/11 23/23/11 21/21/11
f 22/22/12 17/17/12 19/19/12
f 22/22/12 19/19/12 23/23/12
f 24/24/13 25/25/13 26/26/13
f 24/24/13 26/26/13 27/27/13
f 25/25/14 28/28/14 29/29/14
f 25/25/14 29/29/14 26/26/14
f 28/28/15 30/30/15 31/31/15
f 28/28/15 31/31/15 29/29/15
f 30/30/16 24/24/16 27/27/16
f 30/30/16 27/27/16 31/31/16
f 32/32/17 7/7/17 33/33/17
f 32/32/17 33/33/17 34/34/17
f 7/7/18 35/35/18 36/36/18
f 7/7/18 36/36/18 33/33/18
f 35/35/19 37/37/19 38/38/19
f 35/35/19 38/38/19 36/36/19
f 37/37/20 32/32/20 34/34/20
f 37/37/20 34/34/20 38/38/20
f 39/39/21 22/22/21 40/40/21
f 39/39/21 40/40/21 41/41/21
f 22/22/22 42/42/22 43/43/22
f 22/22/22 43/43/22 40/40/22
f 42/42/23 44/44/23 45/45/23
f 42/42/23 45/45/23 43/43/23
f 44/44/24 39/39/24 41/41/24
f 44/44/24 41/41/24 45/45/24
f 46/46/25 37/37/25 47/47/25
f 46/46/25 47/47/25 48/48/25
f 37/37/26 49/49/26 50/50/26
f 37/37/26 50/50/26 47/47/26
f 49/49/27 51/51/27 52/52/27
f 49/49/27 52/52/27 50/50/27
f 51/51/28 46/46/28 48/48/28
f 51/51/28 48/48/28 52/52/28
f 44/44/29 53/53/29 54/54/29
f 44/44/29 54/54/29 55/55/29
f 53/53/30 2/2/30 56/56/30
f 53/53/30 56/56/30 54/54/30
f 2/2/31 57/57/31 58/58/31
f 2/2/31 58/58/31 56/56/31
f 57/57/32 44/44/32 55/55/32
f 57/57/32 55/55/32 58/58/32
f 51/51/33 59/59/33 60/60/33
f 51/51/33 60/60/33 61/61/33
f 59/59/34 25/25/34 62/62/34
f 59/59/34 62/62/34 60/60/34
f 25/25/35 63/63/35 64/64/35
f 25/25/35 64/64/35 62/62/35
f 63/63/36 51/51/36 61/61/36
f 63/63/36 61/61/36 64/64/36
f 9/9/37 65/65/37 66/66/37
f 9/9/37 66/66/37 67/67/37
f 65/65/38 68/68/38 69/69/38
f 65/65/38 69/69/38 66/66/38
f 68/68/39 70/70/39 71/71/39
f 68/68/39 71/71/39 69/69/39
f 70/70/40 9/9/40 67/67/40
f 70/70/40 67/67/40 71/71/40
f 10/10/41 9/9/41 72/72/41
f 10/10/41 72/72/41 73/73/41
f 9/9/42 70/70/42 74/74/42
f 9/9/42 74/74/42 72/72/42
f 70/70/43 75/75/43 76/76/43
f 70/70/43 76/76/43 74/74/43
f 75/75/44 10/10/44 73/73/44
f 75/75/44 73/73/44 76/76/44
f 10/10/45 77/77/45 78/78/45
f 10/10/45 78/78/45 79/79/45
f 77/77/46 30/30/46 80/80/46
f 77/77/46 80/80/46 78/78/46
f 30/30/47 75/75/47 81/81/47
f 30/30/47 81/81/47 80/80/47
f 75/75/48 10/10/48 79/79/48
f 75/75/48 79/79/48 81/81/48
f 24/24/49 30/30/49 82/82/49
f 24/24/49 82/82/49 83/83/49
f 30/30/50 75/75/50 84/84/50
f 30/30/50 84/84/50 82/82/50
f 75/75/51 85/85/51 86/86/51
f 75/75/51 86/86/51 84/84/51
f 85/85/52 24/24/52 83/83/52
f 85/85/52 83/83/52 86/86/52
f 46/46/53 87/87/53 88/88/53
f 46/46/53 88/88/53 89/89/53
f 87/87/54 90/90/54 91/91/54
f 87/87/54 91/91/54 88/88/54
f 90/90/55 92/92/55 93/93/55
f 90/90/55 93/93/55 91/91/55
f 92/92/56 46/46/56 89/89/56
f 92/92/56 89/89/56 93/93/56
f 32/32/57 37/37/57 94/94/57
f 32/32/57 94/94/57 95/95/57
f 37/37/58 46/46/58 96/96/58
f 37/37/58 96/96/58 94/94/58
f 46/46/59 92/92/59 97/97/59
f 46/46/59 97/97/59 96/96/59
f 92/92/60 32/32/60 95/95/60
f 92/92/60 95/95/60 97/97/60
f 39/39/61 98/98/61 99/99/61
f 39/39/61 99/99/61 100/100/61
f 98/98/62 101/101/62 102/102/62
f 98/98/62 102/102/62 99/99/62
f 101/101/63 103/103/63 104/104/63
f 101/101/63 104/104/63 102/102/63
f 103/103/64 39/39/64 100/100/64
f 103/103/64 100/100/64 104/104/64
f 17/17/65 22/22/65 105/105/65
f 17/17/65 105/105/65 106/106/65
f 22/22/66 39/39/66 107/107/66
f 22/22/66 107/107/66 105/105/66
f 39/39/67 103/103/67 108/108/67
f 39/39/67 108/108/67 107/107/67
f 103/103/68 17/17/68 106/106/68
f 103/103/68 106/106/68 108/108/68
f 63/63/69 109/109/69 110/110/69
f 63/63/69 110/110/69 111/111/69
f 109/109/70 112/112/70 113/113/70
f 109/109/70 113/113/70 110/110/70
f 112/112/71 87/87/71 114/114/71
f 112/112/71 114/114/71 113/113/71
f 87/87/72 63/63/72 111/111/72
f 87/87/72 111/111/72 114/114/72
f 57/57/73 115/115/73 116/116/73
f 57/57/73 116/116/73 117/117/73
f 115/115/74 118/118/74 119/119/74
f 115/115/74 119/119/74 116/116/74
f 118/118/75 98/98/75 120/120/75
f 118/118/75 120/120/75 119/119/75
f 98/98/76 57/57/76 117/117/76
f 98/98/76 117/117/76 120/120/76
f 32/32/77 92/92/77 121/121/77
f 32/32/77 121/121/77 122/122/77
f 92/92/78 123/123/78 124/124/78
f 92/92/78 124/124/78 121/121/78
f 123/123/79 125/125/79 126/126/79
f 123/123/79 126/126/79 124/124/79
f 125/125/80 32/32/80 122/122/80
f 125/125/80 122/122/80 126/126/80
f 1/1/81 7/7/81 127/127/81
f 1/1/81 127/127/81 128/128/81
f 7/7/82 32/32/82 129/129/82
f 7/7/82 129/129/82 127/127/82
f 32/32/83 125/125/83 130/130/83
f 32/32/83 130/130/83 129/129/83
f 125/125/84 1/1/84 128/128/84
f 125/125/84 128/128/84 130/130/84
f 17/17/85 103/103/85 131/131/85
f 17/17/85 131/131/85 132/132/85
f 103/103/86 133/133/86 134/134/86
f 103/103/86 134/134/86 131/131/86
f 133/133/87 65/65/87 135/135/87
f 133/133/87 135/135/87 134/134/87
f 65/65/88 17/17/88 132/132/88
f 65/65/88 132/132/88 135/135/88
f 9/9/89 15/15/89 136/136/89
f 9/9/89 136/136/89 137/137/89
f 15/15/90 17/17/90 138/138/90
f 15/15/90 138/138/90 136/136/90
f 17/17/91 65/65/91 139/139/91
f 17/17/91 139/139/91 138/138/91
f 65/65/92 9/9/92 137/137/92
f 65/65/92 137/137/92 139/139/92
f 63/63/93 25/25/93 140/140/93
f 63/63/93 140/140/93 141/141/93
f 25/25/94 24/24/94 142/142/94
f 25/25/94 142/142/94 140/140/94
f 24/24/95 109/109/95 143/143/95
f 24/24/95 143/143/95 142/142/95
f 109/109/96 63/63/96 141/141/96
f 109/109/96 141/141/96 143/143/96
f 1/1/97 125/125/97 144/144/97
f 1/1/97 144/144/97 145/145/97
f 125/125/98 146/146/98 147/147/98
f 125/125/98 147/147/98 144/144/98
f 146/146/99 115/115/99 148/148/99
f 146/146/99 148/148/99 147/147/99
f 115/115/100 1/1/100 145/145/100
f 115/115/100 145/145/100 148/148/100
f 57/57/101 2/2/101 149/149/101
f 57/57/101 149/149/101 150/150/101
f 2/2/102 1/1/102 151/151/102
f 2/2/102 151/151/102 149/149/102
f 1/1/103 115/115/103 152/152/103
f 1/1/103 152/152/103 151/151/103
f 115/115/104 57/57/104 150/150/104
f 115/115/104 150/150/104 152/152/104
f 24/24/105 85/85/105 153/153/105
f 24/24/105 153/153/105 154/154/105
f 85/85/106 155/155/106 156/156/106
f 85/85/106 156/156/106 153/153/106
f 155/155/107 109/109/107 157/157/107
f 155/155/107 157/157/107 156/156/107
f 109/109/108 24/24/108 154/154/108
f 109/109/108 154/154/108 157/157/108
f 46/46/109 51/51/109 158/158/109
f 46/46/109 158/158/109 159/159/109
f 51/51/110 63/63/110 160/160/110
f 51/51/110 160/160/110 158/158/110
f 63/63/111 87/87/111 161/161/111
f 63/63/111 161/161/111 160/160/111
f 87/87/112 46/46/112 159/159/112
f 87/87/112 159/159/112 161/161/112
f 39/39/113 44/44/113 162/162/113
f 39/39/113 162/162/113 163/163/113
f 44/44/114 57/57/114 164/164/114
f 44/44/114 164/164/114 162/162/114
f 57/57/115 98/98/115 165/165/115
f 57/57/115 165/165/115 164/164/115
f 98/98/116 39/39/116 163/163/116
f 98/98/116 163/163/116 165/165/116
f 75/75/117 85/85/117 166/166/117
f 75/75/117 166/166/117 167/167/117
f 85/85/118 168/168/118 169/169/118
f 85/85/118 169/169/118 166/166/118
f 168/168/119 70/70/119 170/170/119
f 168/168/119 170/170/119 169/169/119
f 70/70/120 75/75/120 167/167/120
f 70/70/120 167/167/120 170/170/120
f 68/68/121 168/168/121 171/171/121
f 68/68/121 171/171/121 172/172/121
f 168/168/122 70/70/122 173/173/122
f 168/168/122 173/173/122 171/171/122
f 70/70/122 68/68/122 172/172/122
f 70/70/122 172/172/122 173/173/122
f 68/68/123 65/65/123 174/174/123
f 68/68/123 174/174/123 175/175/123
f 65/65/123 133/133/123 176/176/123
f 65/65/123 176/176/123 174/174/123
f 133/133/123 68/68/123 175/175/123
f 133/133/123 175/175/123 176/176/123
f 133/133/124 103/103/124 177/177/124
f 133/133/124 177/177/124 178/178/124
f 103/103/125 101/101/125 179/179/125
f 103/103/125 179/179/125 177/177/125
f 101/101/125 133/133/125 178/178/125
f 101/101/125 178/178/125 179/179/125
f 101/101/126 98/98/126 180/180/126
f 101/101/126 180/180/126 181/181/126
f 98/98/127 118/118/127 182/182/127
f 98/98/127 182/182/127 180/180/127
f 118/118/127 101/101/127 181/181/127
f 118/118/127 181/181/127 182/182/127
f 118/118/128 115/115/128 183/183/128
f 118/118/128 183/183/128 184/184/128
f 115/115/128 146/146/128 185/185/128
f 115/115/128 185/185/128 183/183/128
f 146/146/128 118/118/128 184/184/128
f 146/146/128 184/184/128 185/185/128
f 146/146/129 125/125/129 186/186/129
f 146/146/129 186/186/129 187/187/129
f 125/125/129 123/123/129 188/188/129
f 125/125/129 188/188/129 186/186/129
f 123/123/129 146/146/129 187/187/129
f 123/123/129 187/187/129 188/188/129
f 123/123/130 92/92/130 189/189/130
f 123/123/130 189/189/130 190/190/130
f 92/92/131 90/90/131 191/191/131
f 92/92/131 191/191/131 189/189/131
f 90/90/130 123/123/130 190/190/130
f 90/90/130 190/190/130 191/191/130
f 90/90/132 87/87/132 192/192/132
f 90/90/132 192/192/132 193/193/132
f 87/87/132 112/112/132 194/194/132
f 87/87/132 194/194/132 192/192/132
f 112/112/133 90/90/133 193/193/133
f 112/112/133 193/193/133 194/194/133
f 112/112/134 109/109/134 195/195/134
f 112/112/134 195/195/134 196/196/134
f 109/109/135 155/155/135 197/197/135
f 109/109/135 197/197/135 195/195/135
f 155/155/134 112/112/134 196/196/134
f 155/155/134 196/196/134 197/197/134
f 168/168/136 155/155/136 198/198/136
f 168/168/136 198/198/136 199/199/136
f 155/155/136 85/85/136 200/200/136
f 155/155/136 200/200/136 198/198/136
f 85/85/136 168/168/136 199/199/136
f 85/85/136 199/199/136 200/200/136
f 10/10/137 77/77/137 201/201/137
f 10/10/137 201/201/137 202/202/137
f 13/13/137 10/10/137 202/202/137
f 13/13/137 202/202/137 203/203/137
f 20/20/138 15/15/138 204/204/138
f 20/20/138 204/204/138 205/205/138
f 15/15/139 13/13/139 206/206/139
f 15/15/139 206/206/139 204/204/139
f 42/42/140 22/22/140 207/207/140
f 42/42/140 207/207/140 208/208/140
f 22/22/140 20/20/140 209/209/140
f 22/22/140 209/209/140 207/207/140
f 53/53/141 44/44/141 210/210/141
f 53/53/141 210/210/141 211/211/141
f 44/44/141 42/42/141 212/212/141
f 44/44/141 212/212/141 210/210/141
f 5/5/142 2/2/142 213/213/142
f 5/5/142 213/213/142 214/214/142
f 2/2/142 53/53/142 215/215/142
f 2/2/142 215/215/142 213/213/142
f 35/35/143 7/7/143 216/216/143
f 35/35/143 216/216/143 217/217/143
f 7/7/143 5/5/143 218/218/143
f 7/7/143 218/218/143 216/216/143
f 49/49/144 37/37/144 219/219/144
f 49/49/144 219/219/144 220/220/144
f 37/37/144 35/35/144 221/221/144
f 37/37/144 221/221/144 219/219/144
f 59/59/145 51/51/145 222/222/145
f 59/59/145 222/222/145 223/223/145
f 51/51/145 49/49/145 224/224/145
f 51/51/145 224/224/145 222/222/145
f 28/28/146 25/25/146 225/225/146
f 28/28/146 225/225/146 226/226/146
f 25/25/146 59/59/146 227/227/146
f 25/25/146 227/227/146 225/225/146
f 30/30/147 77/77/147 228/228/147
f 30/30/147 228/228/147 229/229/147
f 28/28/147 30/30/147 229/229/147
f 28/28/147 229/229/147 230/230/147
f 231/231/148 232/232/148 233/233/148
f 231/231/148 233/233/148 234/234/148
f 235/235/149 236/236/149 237/237/149
f 235/235/149 237/237/149 238/238/149
f 239/239/150 240/240/150 241/241/150
f 239/239/150 241/241/150 242/242/150
f 243/243/151 244/244/151 245/245/151
f 243/243/151 245/245/151 246/246/151
f 234/234/152 239/239/152 242/242/152
f 234/234/152 242/242/152 231/231/152
f 240/240/153 233/233/153 232/232/153
f 240/240/153 232/232/153 241/241/153
f 247/247/151 248/248/151 249/249/151
f 247/247/151 249/249/151 250/250/151
f 251/251/151 252/252/151 253/253/151
f 251/251/151 253/253/151 254/254/151
f 252/252/151 247/247/151 250/250/151
f 252/252/151 250/250/151 253/253/151
f 248/248/151 251/251/151 254/254/151
f 248/248/151 254/254/151 249/249/151
f 255/255/151 256/256/151 257/257/151
f 255/255/151 257/257/151 258/258/151
f 259/259/151 260/260/151 261/261/151
f 259/259/151 261/261/151 262/262/151
f 263/263/151 264/264/151 265/265/151
f 263/263/151 265/265/151 266/266/151
f 267/267/151 268/268/151 269/269/151
f 267/267/151 269/269/151 270/270/151
f 271/271/151 272/272/151 273/273/151
f 271/271/151 273/273/151 274/274/151
f 275/275/151 276/276/151 277/277/151
f 275/275/151 277/277/151 278/278/151
f 279/279/151 280/280/151 281/281/151
f 279/279/151 281/281/151 282/282/151
f 283/283/151 284/284/151 285/285/151
f 283/283/151 285/285/151 286/286/151
f 287/287/154 288/288/154 289/289/154
f 287/287/154 289/289/154 290/290/154
f 288/288/154 291/291/154 292/292/154
f 288/288/154 292/292/154 289/289/154
f 293/293/154 287/287/154 290/290/154
f 293/293/154 290/290/154 294/294/154
f 291/291/154 293/293/154 294/294/154
f 291/291/154 294/294/154 292/292/154
f 295/295/148 238/238/148 296/296/148
f 295/295/148 296/296/148 297/297/148
f 298/298/155 235/235/155 238/238/155
f 298/298/155 238/238/155 295/295/155
f 236/236/156 299/299/156 300/300/156
f 236/236/156 300/300/156 237/237/156
f 301/301/157 302/302/157 303/303/157
f 301/301/157 303/303/157 304/304/157
f 297/297/154 296/296/154 305/305/154
f 297/297/154 305/305/154 306/306/154
f 237/237/150 300/300/150 306/306/150
f 237/237/150 306/306/150 305/305/150
f 307/307/148 308/308/148 309/309/148
f 307/307/148 309/309/148 310/310/148
f 238/238/158 237/237/158 305/305/158
f 238/238/158 305/305/158 296/296/158
f 311/311/153 312/312/153 313/313/153
f 311/311/153 313/313/153 314/314/153
f 315/315/154 316/316/154 317/317/154
f 315/315/154 317/317/154 318/318/154
f 319/319/150 320/320/150 321/321/150
f 319/319/150 321/321/150 322/322/150
f 323/323/151 324/324/151 325/325/151
f 323/323/151 325/325/151 326/326/151
f 327/327/153 328/328/153 329/329/153
f 327/327/153 329/329/153 330/330/153
f 331/331/153 311/311/153 314/314/153
f 331/331/153 314/314/153 332/332/153
f 333/333/153 331/331/153 332/332/153
f 333/333/153 332/332/153 334/334/153
f 312/312/153 333/333/153 334/334/153
f 312/312/153 334/334/153 313/313/153
f 335/335/159 336/336/159 337/337/159
f 335/335/159 337/337/159 338/338/159
f 339/339/153 340/340/153 341/341/153
f 339/339/153 341/341/153 342/342/153
f 343/343/153 344/344/153 345/345/153
f 343/343/153 345/345/153 346/346/153
f 347/347/153 348/348/153 349/349/153
f 347/347/153 349/349/153 350/350/153
f 351/351/152 352/352/152 353/353/152
f 351/351/152 353/353/152 354/354/152
f 355/355/160 356/356/160 357/357/160
f 355/355/160 357/357/160 358/358/160
f 359/359/161 360/360/161 361/361/161
f 359/359/161 361/361/161 362/362/161
f 363/363/162 364/364/162 365/365/162
f 363/363/162 365/365/162 366/366/162
f 299/299/154 236/236/154 293/293/154
f 299/299/154 293/293/154 291/291/154
f 236/236/154 235/235/154 287/287/154
f 236/236/154 287/287/154 293/293/154
f 298/298/154 299/299/154 291/291/154
f 298/298/154 291/291/154 288/288/154
f 235/235/154 298/298/154 288/288/154
f 235/235/154 288/288/154 287/287/154
f 367/367/154 368/368/154 369/369/154
f 367/367/154 369/369/154 370/370/154
f 371/371/154 372/372/154 373/373/154
f 371/371/154 373/373/154 374/374/154
f 374/374/154 373/373/154 368/368/154
f 374/374/154 368/368/154 367/367/154
f 370/370/154 369/369/154 372/372/154
f 370/370/154 372/372/154 371/371/154
f 375/375/163 376/376/163 377/377/163
f 375/375/163 377/377/163 378/378/163
f 378/378/164 377/377/164 379/379/164
f 378/378/164 379/379/164 380/380/164
f 381/381/165 382/382/165 383/383/165
f 381/381/165 383/383/165 384/384/165
f 384/384/166 383/383/166 385/385/166
f 384/384/166 385/385/166 386/386/166
f 386/386/167 385/385/167 387/387/167
f 386/386/167 387/387/167 388/388/167
f 388/388/168 387/387/168 389/389/168
f 388/388/168 389/389/168 390/390/168
f 390/390/169 389/389/169 391/391/169
f 390/390/169 391/391/169 392/392/169
f 392/392/170 391/391/170 393/393/170
f 392/392/170 393/393/170 394/394/170
f 394/394/171 393/393/171 395/395/171
f 394/394/171 395/395/171 396/396/171
f 396/396/172 395/395/172 397/397/172
f 396/396/172 397/397/172 398/398/172
f 398/398/173 397/397/173 399/399/173
f 398/398/173 399/399/173 400/400/173
f 400/400/174 399/399/174 401/401/174
f 400/400/174 401/401/174 402/402/174
f 376/376/175 403/403/175 404/404/175
f 376/376/175 404/404/175 377/377/175
f 377/377/176 404/404/176 405/405/176
f 377/377/176 405/405/176 379/379/176
f 382/382/177 406/406/177 407/407/177
f 382/382/177 407/407/177 383/383/177
f 383/383/178 407/407/178 408/408/178
f 383/383/178 408/408/178 385/385/178
f 385/385/179 408/408/179 409/409/179
f 385/385/179 409/409/179 387/387/179
f 387/387/180 409/409/180 410/410/180
f 387/387/180 410/410/180 389/389/180
f 389/389/181 410/410/181 411/411/181
f 389/389/181 411/411/181 391/391/181
f 391/391/182 411/411/182 412/412/182
f 391/391/182 412/412/182 393/393/182
f 393/393/183 412/412/183 413/413/183
f 393/393/183 413/413/183 395/395/183
f 395/395/184 413/413/184 414/414/184
f 395/395/184 414/414/184 397/397/184
f 397/397/185 414/414/185 415/415/185
f 397/397/185 415/415/185 399/399/185
f 399/399/186 415/415/186 416/416/186
f 399/399/186 416/416/186 401/401/186
f 403/403/187 417/417/187 418/418/187
f 403/403/187 418/418/187 404/404/187
f 404/404/188 418/418/188 419/419/188
f 404/404/188 419/419/188 405/405/188
f 406/406/189 420/420/189 421/421/189
f 406/406/189 421/421/189 407/407/189
f 407/407/190 421/421/190 422/422/190
f 407/407/190 422/422/190 408/408/190
f 408/408/191 422/422/191 423/423/191
f 408/408/191 423/423/191 409/409/191
f 409/409/192 423/423/192 424/424/192
f 409/409/192 424/424/192 410/410/192
f 410/410/193 424/424/193 425/425/193
f 410/410/193 425/425/193 411/411/193
f 411/411/194 425/425/194 426/426/194
f 411/411/194 426/426/194 412/412/194
f 412/412/195 426/426/195 427/427/195
f 412/412/195 427/427/195 413/413/195
f 413/413/196 427/427/196 428/428/196
f 413/413/196 428/428/196 414/414/196
f 414/414/197 428/428/197 429/429/197
f 414/414/197 429/429/197 415/415/197
f 415/415/198 429/429/198 430/430/198
f 415/415/198 430/430/198 416/416/198
f 417/417/199 431/431/199 432/432/199
f 417/417/199 432/432/199 418/418/199
f 418/418/200 432/432/200 433/433/200
f 418/418/200 433/433/200 419/419/200
f 420/420/201 434/434/201 435/435/201
f 420/420/201 435/435/201 421/421/201
f 421/421/202 435/435/202 436/436/202
f 421/421/202 436/436/202 422/422/202
f 422/422/203 436/436/203 437/437/203
f 422/422/203 437/437/203 423/423/203
f 423/423/204 437/437/204 438/438/204
f 423/423/204 438/438/204 424/424/204
f 424/424/205 438/438/205 439/439/205
f 424/424/205 439/439/205 425/425/205
f 425/425/206 439/439/206 440/440/206
f 425/425/206 440/440/206 426/426/206
f 426/426/207 440/440/207 441/441/207
f 426/426/207 441/441/207 427/427/207
f 427/427/208 441/441/208 442/442/208
f 427/427/208 442/442/208 428/428/208
f 428/428/209 442/442/209 443/443/209
f 428/428/209 443/443/209 429/429/209
f 429/429/210 443/443/210 444/444/210
f 429/429/210 444/444/210 430/430/210
f 431/431/211 445/445/211 446/446/211
f 431/431/211 446/446/211 432/432/211
f 432/432/212 446/446/212 447/447/212
f 432/432/212 447/447/212 433/433/212
f 434/434/213 448/448/213 449/449/213
f 434/434/213 449/449/213 435/435/213
f 435/435/214 449/449/214 450/450/214
f 435/435/214 450/450/214 436/436/214
f 436/436/215 450/450/215 451/451/215
f 436/436/215 451/451/215 437/437/215
f 437/437/216 451/451/216 452/452/216
f 437/437/216 452/452/216 438/438/216
f 438/438/217 452/452/217 453/453/217
f 438/438/217 453/453/217 439/439/217
f 439/439/218 453/453/218 454/454/218
f 439/439/218 454/454/218 440/440/218
f 440/440/219 454/454/219 455/455/219
f 440/440/219 455/455/219 441/441/219
f 441/441/220 455/455/220 456/456/220
f 441/441/220 456/456/220 442/442/220
f 442/442/221 456/456/221 457/457/221
f 442/442/221 457/457/221 443/443/221
f 443/443/222 457/457/222 458/458/222
f 443/443/222 458/458/222 444/444/222
f 445/445/223 459/459/223 460/460/223
f 445/445/223 460/460/223 446/446/223
f 446/446/224 460/460/224 461/461/224
f 446/446/224 461/461/224 447/447/224
f 448/448/225 462/462/225 463/463/225
f 448/448/225 463/463/225 449/449/225
f 449/449/226 463/463/226 464/464/226
f 449/449/226 464/464/226 450/450/226
f 450/450/227 464/464/227 465/465/227
f 450/450/227 465/465/227 451/451/227
f 451/451/228 465/465/228 466/466/228
f 451/451/228 466/466/228 452/452/228
f 452/452/229 466/466/229 467/467/229
f 452/452/229 467/467/229 453/453/229
f 453/453/230 467/467/230 468/468/230
f 453/453/230 468/468/230 454/454/230
f 454/454/231 468/468/231 469/469/231
f 454/454/231 469/469/231 455/455/231
f 455/455/232 469/469/232 470/470/232
f 455/455/232 470/470/232 456/456/232
f 456/456/233 470/470/233 471/471/233
f 456/456/233 471/471/233 457/457/233
f 457/457/234 471/471/234 472/472/234
f 457/457/234 472/472/234 458/458/234
f 459/459/235 473/473/235 474/474/235
f 459/459/235 474/474/235 460/460/235
f 460/460/236 474/474/236 475/475/236
f 460/460/236 475/475/236 461/461/236
f 462/462/237 476/476/237 477/477/237
f 462/462/237 477/477/237 463/463/237
f 463/463/238 477/477/238 478/478/238
f 463/463/238 478/478/238 464/464/238
f 464/464/239 478/478/239 479/479/239
f 464/464/239 479/479/239 465/465/239
f 465/465/240 479/479/240 480/480/240
f 465/465/240 480/480/240 466/466/240
f 466/466/241 480/480/241 481/481/241
f 466/466/241 481/481/241 467/467/241
f 467/467/242 481/481/242 482/482/242
f 467/467/242 482/482/242 468/468/242
f 468/468/243 482/482/243 483/483/243
f 468/468/243 483/483/243 469/469/243
f 469/469/244 483/483/244 484/484/244
f 469/469/244 484/484/244 470/470/244
f 470/470/245 484/484/245 485/485/245
f 470/470/245 485/485/245 471/471/245
f 471/471/246 485/485/246 486/486/246
f 471/471/246 486/486/246 472/472/246
f 473/473/247 487/487/247 488/488/247
f 473/473/247 488/488/247 474/474/247
f 474/474/248 488/488/248 489/489/248
f 474/474/248 489/489/248 475/475/248
f 476/476/249 490/490/249 491/491/249
f 476/476/249 491/491/249 477/477/249
f 477/477/250 491/491/250 492/492/250
f 477/477/250 492/492/250 478/478/250
f 478/478/251 492/492/251 493/493/251
f 478/478/251 493/493/251 479/479/251
f 479/479/252 493/493/252 494/494/252
f 479/479/252 494/494/252 480/480/252
f 480/480/253 494/494/253 495/495/253
f 480/480/253 495/495/253 481/481/253
f 481/481/254 495/495/254 496/496/254
f 481/481/254 496/496/254 482/482/254
f 482/482/255 496/496/255 497/497/255
f 482/482/255 497/497/255 483/483/255
f 483/483/256 497/497/256 498/498/256
f 483/483/256 498/498/256 484/484/256
f 484/484/257 498/498/257 499/499/257
f 484/484/257 499/499/257 485/485/257
f 485/485/258 499/499/258 500/500/258
f 485/485/258 500/500/258 486/486/258
f 487/487/259 501/501/259 502/502/259
f 487/487/259 502/502/259 488/488/259
f 488/488/260 502/502/260 503/503/260
f 488/488/260 503/503/260 489/489/260
f 490/490/261 504/504/261 505/505/261
f 490/490/261 505/505/261 491/491/261
f 491/491/262 505/505/262 506/506/262
f 491/491/262 506/506/262 492/492/262
f 492/492/263 506/506/263 507/507/263
f 492/492/263 507/507/263 493/493/263
f 493/493/264 507/507/264 508/508/264
f 493/493/264 508/508/264 494/494/264
f 494/494/265 508/508/265 509/509/265
f 494/494/265 509/509/265 495/495/265
f 495/495/266 509/509/266 510/510/266
f 495/495/266 510/510/266 496/496/266
f 496/496/267 510/510/267 511/511/267
f 496/496/267 511/511/267 497/497/267
f 497/497/268 511/511/268 512/512/268
f 497/497/268 512/512/268 498/498/268
f 498/498/269 512/512/269 513/513/269
f 498/498/269 513/513/269 499/499/269
f 499/499/270 513/513/270 514/514/270
f 499/499/270 514/514/270 500/500/270
f 501/501/271 515/515/271 516/516/271
f 501/501/271 516/516/271 502/502/271
f 502/502/272 516/516/272 517/517/272
f 502/502/272 517/517/272 503/503/272
f 504/504/273 518/518/273 519/519/273
f 504/504/273 519/519/273 505/505/273
f 505/505/274 519/519/274 520/520/274
f 505/505/274 520/520/274 506/506/274
f 506/506/275 520/520/275 521/521/275
f 506/506/275 521/521/275 507/507/275
f 507/507/276 521/521/276 522/522/276
f 507/507/276 522/522/276 508/508/276
f 508/508/277 522/522/277 523/523/277
f 508/508/277 523/523/277 509/509/277
f 509/509/278 523/523/278 524/524/278
f 509/509/278 524/524/278 510/510/278
f 510/510/279 524/524/279 525/525/279
f 510/510/279 525/525/279 511/511/279
f 511/511/280 525/525/280 526/526/280
f 511/511/280 526/526/280 512/512/280
f 512/512/281 526/526/281 527/527/281
f 512/512/281 527/527/281 513/513/281
f 513/513/282 527/527/282 528/528/282
f 513/513/282 528/528/282 514/514/282
f 515/515/283 529/529/283 530/530/283
f 515/515/283 530/530/283 516/516/283
f 516/516/167 530/530/167 531/531/167
f 516/516/167 531/531/167 517/517/167
f 518/518/166 532/532/166 533/533/166
f 518/518/166 533/533/166 519/519/166
f 519/519/284 533/533/284 534/534/284
f 519/519/284 534/534/284 520/520/284
f 520/520/164 534/534/164 535/535/164
f 520/520/164 535/535/164 521/521/164
f 521/521/285 535/535/285 536/536/285
f 521/521/285 536/536/285 522/522/285
f 522/522/174 536/536/174 537/537/174
f 522/522/174 537/537/174 523/523/174
f 523/523/173 537/537/173 538/538/173
f 523/523/173 538/538/173 524/524/173
f 524/524/172 538/538/172 539/539/172
f 524/524/172 539/539/172 525/525/172
f 525/525/171 539/539/171 540/540/171
f 525/525/171 540/540/171 526/526/171
f 526/526/170 540/540/170 541/541/170
f 526/526/170 541/541/170 527/527/170
f 527/527/286 541/541/286 542/542/286
f 527/527/286 542/542/286 528/528/286
f 529/529/180 543/543/180 544/544/180
f 529/529/180 544/544/180 530/530/180
f 530/530/287 544/544/287 545/545/287
f 530/530/287 545/545/287 531/531/287
f 532/532/178 546/546/178 547/547/178
f 532/532/178 547/547/178 533/533/178
f 533/533/177 547/547/177 548/548/177
f 533/533/177 548/548/177 534/534/177
f 534/534/176 548/548/176 549/549/176
f 534/534/176 549/549/176 535/535/176
f 535/535/175 549/549/175 550/550/175
f 535/535/175 550/550/175 536/536/175
f 536/536/186 550/550/186 551/551/186
f 536/536/186 551/551/186 537/537/186
f 537/537/185 551/551/185 552/552/185
f 537/537/185 552/552/185 538/538/185
f 538/538/184 552/552/184 553/553/184
f 538/538/184 553/553/184 539/539/184
f 539/539/183 553/553/183 554/554/183
f 539/539/183 554/554/183 540/540/183
f 540/540/288 554/554/288 555/555/288
f 540/540/288 555/555/288 541/541/288
f 541/541/181 555/555/181 556/556/181
f 541/541/181 556/556/181 542/542/181
f 543/543/192 557/557/192 558/558/192
f 543/543/192 558/558/192 544/544/192
f 544/544/191 558/558/191 559/559/191
f 544/544/191 559/559/191 545/545/191
f 546/546/190 560/560/190 561/561/190
f 546/546/190 561/561/190 547/547/190
f 547/547/189 561/561/189 562/562/189
f 547/547/189 562/562/189 548/548/189
f 548/548/188 562/562/188 563/563/188
f 548/548/188 563/563/188 549/549/188
f 549/549/187 563/563/187 564/564/187
f 549/549/187 564/564/187 550/550/187
f 550/550/198 564/564/198 565/565/198
f 550/550/198 565/565/198 551/551/198
f 551/551/197 565/565/197 566/566/197
f 551/551/197 566/566/197 552/552/197
f 552/552/196 566/566/196 567/567/196
f 552/552/196 567/567/196 553/553/196
f 553/553/195 567/567/195 568/568/195
f 553/553/195 568/568/195 554/554/195
f 554/554/194 568/568/194 569/569/194
f 554/554/194 569/569/194 555/555/194
f 555/555/193 569/569/193 570/570/193
f 555/555/193 570/570/193 556/556/193
f 571/571/289 572/572/289 573/573/289
f 571/571/289 573/573/289 574/574/289
f 558/558/203 572/572/203 575/575/203
f 558/558/203 575/575/203 559/559/203
f 560/560/202 576/576/202 577/577/202
f 560/560/202 577/577/202 561/561/202
f 561/561/201 577/577/201 578/578/201
f 561/561/201 578/578/201 562/562/201
f 562/562/290 578/578/290 579/579/290
f 562/562/290 579/579/290 563/563/290
f 563/563/291 579/579/291 580/580/291
f 563/563/291 580/580/291 564/564/291
f 564/564/292 580/580/292 581/581/292
f 564/564/292 581/581/292 565/565/292
f 565/565/293 581/581/293 582/582/293
f 565/565/293 582/582/293 566/566/293
f 566/566/208 582/582/208 583/583/208
f 566/566/208 583/583/208 567/567/208
f 567/567/207 583/583/207 584/584/207
f 567/567/207 584/584/207 568/568/207
f 568/568/206 584/584/206 585/585/206
f 568/568/206 585/585/206 569/569/206
f 558/558/294 557/557/294 586/586/294
f 558/558/294 586/586/294 587/587/294
f 571/571/216 588/588/216 589/589/216
f 571/571/216 589/589/216 572/572/216
f 572/572/215 589/589/215 590/590/215
f 572/572/215 590/590/215 575/575/215
f 576/576/295 591/591/295 592/592/295
f 576/576/295 592/592/295 577/577/295
f 577/577/213 592/592/213 593/593/213
f 577/577/213 593/593/213 578/578/213
f 578/578/212 593/593/212 594/594/212
f 578/578/212 594/594/212 579/579/212
f 579/579/296 594/594/296 595/595/296
f 579/579/296 595/595/296 580/580/296
f 580/580/297 595/595/297 596/596/297
f 580/580/297 596/596/297 581/581/297
f 581/581/221 596/596/221 597/597/221
f 581/581/221 597/597/221 582/582/221
f 582/582/220 597/597/220 598/598/220
f 582/582/220 598/598/220 583/583/220
f 583/583/298 598/598/298 599/599/298
f 583/583/298 599/599/298 584/584/298
f 584/584/218 599/599/218 600/600/218
f 584/584/218 600/600/218 585/585/218
f 585/585/299 600/600/299 601/601/299
f 585/585/299 601/601/299 602/602/299
f 588/588/228 603/603/228 604/604/228
f 588/588/228 604/604/228 589/589/228
f 589/589/227 604/604/227 605/605/227
f 589/589/227 605/605/227 590/590/227
f 591/591/300 606/606/300 607/607/300
f 591/591/300 607/607/300 592/592/300
f 592/592/225 607/607/225 608/608/225
f 592/592/225 608/608/225 593/593/225
f 593/593/224 608/608/224 609/609/224
f 593/593/224 609/609/224 594/594/224
f 594/594/223 609/609/223 610/610/223
f 594/594/223 610/610/223 595/595/223
f 595/595/234 610/610/234 611/611/234
f 595/595/234 611/611/234 596/596/234
f 596/596/233 611/611/233 612/612/233
f 596/596/233 612/612/233 597/597/233
f 597/597/232 612/612/232 613/613/232
f 597/597/232 613/613/232 598/598/232
f 598/598/231 613/613/231 614/614/231
f 598/598/231 614/614/231 599/599/231
f 599/599/230 614/614/230 615/615/230
f 599/599/230 615/615/230 600/600/230
f 600/600/301 615/615/301 616/616/301
f 600/600/301 616/616/301 601/601/301
f 603/603/240 617/617/240 618/618/240
f 603/603/240 618/618/240 604/604/240
f 604/604/302 618/618/302 619/619/302
f 604/604/302 619/619/302 605/605/302
f 606/606/238 620/620/238 621/621/238
f 606/606/238 621/621/238 607/607/238
f 607/607/237 621/621/237 622/622/237
f 607/607/237 622/622/237 608/608/237
f 608/608/236 622/622/236 623/623/236
f 608/608/236 623/623/236 609/609/236
f 609/609/235 623/623/235 624/624/235
f 609/609/235 624/624/235 610/610/235
f 610/610/246 624/624/246 625/625/246
f 610/610/246 625/625/246 611/611/246
f 611/611/245 625/625/245 626/626/245
f 611/611/245 626/626/245 612/612/245
f 612/612/244 626/626/244 627/627/244
f 612/612/244 627/627/244 613/613/244
f 613/613/243 627/627/243 628/628/243
f 613/613/243 628/628/243 614/614/243
f 614/614/242 628/628/242 629/629/242
f 614/614/242 629/629/242 615/615/242
f 615/615/303 629/629/303 630/630/303
f 615/615/303 630/630/303 616/616/303
f 617/617/252 631/631/252 632/632/252
f 617/617/252 632/632/252 618/618/252
f 618/618/251 632/632/251 633/633/251
f 618/618/251 633/633/251 619/619/251
f 620/620/250 634/634/250 635/635/250
f 620/620/250 635/635/250 621/621/250
f 621/621/249 635/635/249 636/636/249
f 621/621/249 636/636/249 622/622/249
f 622/622/248 636/636/248 637/637/248
f 622/622/248 637/637/248 623/623/248
f 623/623/247 637/637/247 638/638/247
f 623/623/247 638/638/247 624/624/247
f 624/624/258 638/638/258 639/639/258
f 624/624/258 639/639/258 625/625/258
f 625/625/257 639/639/257 640/640/257
f 625/625/257 640/640/257 626/626/257
f 626/626/256 640/640/256 641/641/256
f 626/626/256 641/641/256 627/627/256
f 627/627/255 641/641/255 642/642/255
f 627/627/255 642/642/255 628/628/255
f 628/628/254 642/642/254 643/643/254
f 628/628/254 643/643/254 629/629/254
f 629/629/253 643/643/253 644/644/253
f 629/629/253 644/644/253 630/630/253
f 631/631/264 645/645/264 646/646/264
f 631/631/264 646/646/264 632/632/264
f 632/632/263 646/646/263 647/647/263
f 632/632/263 647/647/263 633/633/263
f 634/634/262 648/648/262 649/649/262
f 634/634/262 649/649/262 635/635/262
f 635/635/261 649/649/261 650/650/261
f 635/635/261 650/650/261 636/636/261
f 636/636/304 650/650/304 651/651/304
f 636/636/304 651/651/304 637/637/304
f 637/637/259 651/651/259 652/652/259
f 637/637/259 652/652/259 638/638/259
f 638/638/270 652/652/270 653/653/270
f 638/638/270 653/653/270 639/639/270
f 639/639/305 653/653/305 654/654/305
f 639/639/305 654/654/305 640/640/305
f 640/640/268 654/654/268 655/655/268
f 640/640/268 655/655/268 641/641/268
f 641/641/267 655/655/267 656/656/267
f 641/641/267 656/656/267 642/642/267
f 642/642/266 656/656/266 657/657/266
f 642/642/266 657/657/266 643/643/266
f 643/643/265 657/657/265 658/658/265
f 643/643/265 658/658/265 644/644/265
f 659/659/306 375/375/306 378/378/306
f 659/659/306 378/378/306 660/660/306
f 660/660/275 378/378/275 380/380/275
f 660/660/275 380/380/275 661/661/275
f 662/662/274 381/381/274 384/384/274
f 662/662/274 384/384/274 663/663/274
f 663/663/273 384/384/273 386/386/273
f 663/663/273 386/386/273 664/664/273
f 664/664/272 386/386/272 388/388/272
f 664/664/272 388/388/272 665/665/272
f 665/665/307 388/388/307 390/390/307
f 665/665/307 390/390/307 666/666/307
f 666/666/282 390/390/282 392/392/282
f 666/666/282 392/392/282 667/667/282
f 667/667/281 392/392/281 394/394/281
f 667/667/281 394/394/281 668/668/281
f 668/668/280 394/394/280 396/396/280
f 668/668/280 396/396/280 669/669/280
f 669/669/279 396/396/279 398/398/279
f 669/669/279 398/398/279 670/670/279
f 670/670/278 398/398/278 400/400/278
f 670/670/278 400/400/278 671/671/278
f 671/671/308 400/400/308 402/402/308
f 671/671/308 402/402/308 672/672/308
f 673/673/309 674/674/309 675/675/309
f 675/675/309 676/676/309 677/677/309
f 677/677/309 678/678/309 673/673/309
f 675/675/309 677/677/309 673/673/309
f 679/679/310 680/680/310 681/681/310
f 679/679/310 681/681/310 682/682/310
f 570/570/311 569/569/311 683/683/311
f 570/570/311 683/683/311 684/684/311
f 569/569/152 585/585/152 685/685/152
f 569/569/152 685/685/152 683/683/152
f 585/585/312 602/602/312 686/686/312
f 585/585/312 686/686/312 685/685/312
f 572/572/153 558/558/153 587/587/153
f 572/572/153 587/587/153 573/573/153
f 687/687/313 679/679/313 682/682/313
f 687/687/313 682/682/313 688/688/313
f 689/689/314 690/690/314 691/691/314
f 689/689/314 691/691/314 692/692/314
f 693/693/315 694/694/315 695/695/315
f 693/693/315 695/695/315 696/696/315
f 697/697/316 698/698/316 699/699/316
f 697/697/316 699/699/316 700/700/316
f 701/701/317 687/687/317 688/688/317
f 701/701/317 688/688/317 702/702/317
f 703/703/153 704/704/153 705/705/153
f 706/706/153 707/707/153 708/708/153
f 703/703/153 705/705/153 706/706/153
f 709/709/153 710/710/153 711/711/153
f 712/712/153 709/709/153 711/711/153
f 713/713/153 703/703/153 706/706/153
f 713/713/153 706/706/153 708/708/153
f 714/714/153 712/712/153 711/711/153
f 715/715/153 716/716/153 714/714/153
f 715/715/153 714/714/153 711/711/153
f 713/713/153 708/708/153 717/717/153
f 713/713/153 717/717/153 718/718/153
f 719/719/153 715/715/153 711/711/153
f 720/720/153 719/719/153 711/711/153
f 713/713/153 718/718/153 721/721/153
f 713/713/153 721/721/153 722/722/153
f 723/723/153 720/720/153 711/711/153
f 724/724/153 723/723/153 711/711/153
f 713/713/153 722/722/153 725/725/153
f 726/726/153 727/727/153 728/728/153
f 713/713/153 725/725/153 726/726/153
f 729/729/153 724/724/153 711/711/153
f 730/730/153 731/731/153 732/732/153
f 732/732/153 729/729/153 711/711/153
f 713/713/153 726/726/153 728/728/153
f 713/713/153 728/728/153 733/733/153
f 730/730/153 732/732/153 711/711/153
f 734/734/153 730/730/153 711/711/153
f 711/711/153 713/713/153 733/733/153
f 711/711/153 733/733/153 735/735/153
f 736/736/153 734/734/153 711/711/153
f 737/737/153 736/736/153 711/711/153
f 711/711/153 735/735/153 738/738/153
f 711/711/153 738/738/153 739/739/153
f 740/740/153 737/737/153 711/711/153
f 741/741/153 740/740/153 711/711/153
f 711/711/153 739/739/153 742/742/153
f 743/743/153 741/741/153 711/711/153
f 742/742/153 743/743/153 711/711/153
f 744/744/152 745/745/152 746/746/152
f 746/746/152 747/747/152 748/748/152
f 748/748/152 749/749/152 750/750/152
f 750/750/152 751/751/152 752/752/152
f 752/752/152 753/753/152 754/754/152
f 754/754/152 755/755/152 756/756/152
f 756/756/152 757/757/152 758/758/152
f 758/758/152 759/759/152 760/760/152
f 760/760/152 744/744/152 746/746/152
f 746/746/152 748/748/152 750/750/152
f 750/750/152 752/752/152 754/754/152
f 754/754/152 756/756/152 758/758/152
f 758/758/152 760/760/152 746/746/152
f 746/746/152 750/750/152 754/754/152
f 746/746/152 754/754/152 758/758/152
f 761/761/152 762/762/152 763/763/152
f 761/761/152 763/763/152 764/764/152
f 764/764/152 765/765/152 766/766/152
f 764/764/152 766/766/152 767/767/152
f 765/765/152 768/768/152 769/769/152
f 765/765/152 769/769/152 766/766/152
f 768/768/152 770/770/152 771/771/152
f 768/768/152 771/771/152 769/769/152
f 770/770/152 772/772/152 773/773/152
f 770/770/152 773/773/152 771/771/152
f 772/772/152 774/774/152 775/775/152
f 772/772/152 775/775/152 773/773/152
f 774/774/152 776/776/152 777/777/152
f 774/774/152 777/777/152 775/775/152
f 776/776/152 778/778/152 779/779/152
f 776/776/152 779/779/152 777/777/152
f 778/778/152 780/780/152 781/781/152
f 778/778/152 781/781/152 779/779/152
f 780/780/152 782/782/152 783/783/152
f 780/780/152 783/783/152 781/781/152
f 782/782/152 784/784/152 785/785/152
f 782/782/152 785/785/152 783/783/152
f 784/784/152 786/786/152 787/787/152
f 784/784/152 787/787/152 785/785/152
f 786/786/152 788/788/152 789/789/152
f 786/786/152 789/789/152 787/787/152
f 788/788/152 790/790/152 791/791/152
f 788/788/152 791/791/152 789/789/152
f 790/790/152 792/792/152 793/793/152
f 790/790/152 793/793/152 791/791/152
f 792/792/152 794/794/152 795/795/152
f 792/792/152 795/795/152 793/793/152
f 794/794/152 763/763/152 796/796/152
f 794/794/152 796/796/152 795/795/152
f 797/797/152 798/798/152 799/799/152
f 797/797/152 799/799/152 800/800/152
f 762/762/152 797/797/152 800/800/152
f 762/762/152 800/800/152 801/801/152
f 761/761/152 764/764/152 767/767/152
f 761/761/152 767/767/152 802/802/152
f 798/798/152 761/761/152 802/802/152
f 798/798/152 802/802/152 799/799/152
f 763/763/152 762/762/152 801/801/152
f 763/763/152 801/801/152 796/796/152
f 803/803/152 804/804/152 805/805/152
f 803/803/152 805/805/152 806/806/152
# Vertices: 806, normals: 317, texture coordinates: 806, faces: 1052

