# File generated by ImageToStl.com - Free Image and 3D model conversion tools

mtllib magic_clown_n64_style.mtl

o obj1
v 0.02722746 0.12273877 -0.59668098
v 0.03814822 -0.03614588 -0.61454507
v 0.03443947 0.11104536 -0.54103903
v 0.22856397 -0.03797411 -0.629972
v 0.25157615 0.1149968 -0.55126886
v 0.23562069 -0.04445463 -0.53979149
v 0.05859132 -0.04786689 -0.52483567
v 0.04824972 0.09935197 -0.48662345
v 0.10265109 0.06634768 -0.17993022
v 0.10265107 -0.0906109 -0.18490968
v 0.19377324 -0.01144 -0.19489366
v 0.28299438 0.06832814 -0.19224654
v 0.19087898 0.11242257 -0.17358906
v 0.19087901 -0.13451658 -0.18596372
v 0.28299438 -0.09061091 -0.19738414
v 0.24068142 0.12687291 -0.60837666
v 0.25689169 0.10636118 -0.50133477
v 2E-08 0.1789786 -0.94600824
v 2E-08 0.13318533 -0.84151927
v 0.08016658 0.17649945 -0.86325613
v 0.20912784 0.13060367 -0.95714768
v 0.21161049 -0.0567399 -0.94962901
v 0.2197389 -0.05988841 -0.86640865
v 2E-08 -0.05643585 -0.82885987
v 2E-08 -0.15688601 -0.93690352
v 0.11836343 -0.11557001 -0.84993594
v -0.02722742 0.12273877 -0.59668098
v -0.03443944 0.11104536 -0.54103903
v -0.03814819 -0.03614588 -0.61454507
v -0.22856393 -0.03797411 -0.629972
v -0.23562064 -0.04445463 -0.53979149
v -0.25157612 0.1149968 -0.55126886
v -0.04824969 0.09935197 -0.48662345
v -0.05859129 -0.04786689 -0.52483567
v -0.10265105 0.06634768 -0.17993022
v -0.19377319 -0.01144 -0.19489366
v -0.10265105 -0.0906109 -0.18490968
v -0.28299432 0.06832814 -0.19224654
v -0.19087894 0.11242257 -0.17358906
v -0.19087897 -0.13451658 -0.18596372
v -0.28299432 -0.09061091 -0.19738414
v -0.24068137 0.12687291 -0.60837666
v -0.25689166 0.10636118 -0.50133477
v 2E-08 0.1789786 -0.94600824
v -0.08016655 0.17649945 -0.86325613
v 2E-08 0.13318533 -0.84151927
v -0.20912779 0.13060367 -0.95714768
v -0.21161045 -0.0567399 -0.94962901
v -0.21973885 -0.05988841 -0.86640865
v 2E-08 -0.05643585 -0.82885987
v -0.11836339 -0.11557001 -0.84993594
v 2E-08 -0.15688601 -0.93690352
v -0.27554029 -0.03766922 -1.55862107
v -0 -0.03766922 -1.5335572
v -0.1948364 -0.23250558 -1.43398548
v 0.1948364 -0.23250558 -1.43398548
v -0 -0.03766922 -1.5335572
v 0.27554029 -0.03766922 -1.55862107
v 0.1948364 0.15716717 -1.43398553
v -0 -0.03766922 -1.5335572
v -0 0.23787106 -1.5312602
v -0.1948364 0.15716717 -1.43398553
v -0 -0.03766922 -1.5335572
v -0.27554029 -0.03766922 -1.55862107
v -0.1948364 -0.23250558 -1.43398548
v -0 -0.03766922 -1.5335572
v -0 -0.31320948 -1.53126012
v -0 -0.31320948 -1.53126012
v -0 -0.03766922 -1.5335572
v 0.1948364 -0.23250558 -1.43398548
v 0.27554029 -0.03766922 -1.55862107
v -0 -0.03766922 -1.5335572
v 0.1948364 0.15716717 -1.43398553
v -0 0.23787106 -1.5312602
v -0 -0.03766922 -1.5335572
v -0.1948364 0.15716717 -1.43398553
v -0 -0.03766921 -1.47573701
v -0 -0.03766921 -1.47573701
v -0 -0.03766921 -1.47573701
v -0 -0.03766921 -1.47573701
v -0 -0.03766921 -1.47573701
v -0 -0.03766921 -1.47573701
v -0 -0.03766921 -1.47573701
v -0 -0.03766921 -1.47573701
v 0.14287306 0.16628121 -0.06249248
v 0.14229247 0.13812719 -1E-08
v 0.14229247 0.21057083 -2E-08
v 0.27020084 0.13808361 -1E-08
v 0.25785407 0.16628121 -0.06249248
v 0.26912328 0.21057083 -2E-08
v 0.20060634 0.276591 -0.09081751
v 0.20445252 0.19419447 -0.10211605
v 0.14229247 0.00433557 -0.01793847
v 0.15436799 -0.10684841 2E-08
v 0.14229247 -1E-08 1E-08
v 0.25920286 -0.10684841 2E-08
v 0.27127841 0.00433557 -0.01793847
v 0.27127841 -1E-08 1E-08
v 0.2223082 -0.05971242 -0.19128924
v 0.199423 0.02333502 -0.19207784
v 0.23806698 -0.01987293 -0.19312263
v -0.14287306 0.16628121 -0.06249248
v -0.14229247 0.21057083 -2E-08
v -0.14229247 0.13812719 -1E-08
v -0.27020084 0.13808361 -1E-08
v -0.26912328 0.21057083 -2E-08
v -0.25785407 0.16628121 -0.06249248
v -0.20060634 0.276591 -0.09081751
v -0.20445252 0.19419447 -0.10211605
v -0.14229247 0.00433557 -0.01793847
v -0.14229247 -1E-08 1E-08
v -0.15436799 -0.10684841 2E-08
v -0.25920286 -0.10684841 2E-08
v -0.27127841 -1E-08 1E-08
v -0.27127841 0.00433557 -0.01793847
v -0.2223082 -0.05971242 -0.19128924
v -0.23806698 -0.01987293 -0.19312263
v -0.199423 0.02333502 -0.19207784
v 2E-08 0.17627124 -1.27091439
v 0.04002788 0.20535284 -1.30149312
v -0.01528896 0.22332666 -1.30149312
v 0.04002788 0.14718963 -1.30149311
v -0.04947749 0.17627124 -1.30149312
v -0.01528896 0.1292158 -1.30149311
v 0.04947752 0.17627123 -1.35097081
v 0.01528899 0.22332665 -1.35097082
v -0.04002785 0.20535283 -1.35097082
v -0.04002785 0.14718962 -1.35097081
v 0.01528899 0.1292158 -1.35097081
v 2E-08 0.17627123 -1.38154966
v 2E-08 0.22507353 -1.13616809
v 0.04002788 0.25415514 -1.16674682
v -0.01528896 0.27212895 -1.16674683
v 0.04002788 0.19599191 -1.16674682
v -0.04947749 0.22507353 -1.16674682
v -0.01528896 0.17801812 -1.16674681
v 0.04947752 0.22507352 -1.21622463
v 0.01528899 0.27212894 -1.21622464
v -0.04002785 0.25415513 -1.21622464
v -0.04002785 0.19599191 -1.21622463
v 0.01528899 0.17801811 -1.21622463
v 2E-08 0.22507351 -1.24680336
v 2E-08 0.23896635 -1.0033879
v 0.04002788 0.26804795 -1.03396664
v -0.01528896 0.28602176 -1.03396664
v 0.04002788 0.20988473 -1.03396663
v -0.04947749 0.23896634 -1.03396663
v -0.01528896 0.19191092 -1.03396663
v 0.04947752 0.23896634 -1.08344445
v 0.01528899 0.28602176 -1.08344445
v -0.04002785 0.26804795 -1.08344445
v -0.04002785 0.20988472 -1.08344444
v 0.01528899 0.19191092 -1.08344444
v 2E-08 0.23896633 -1.11402318
v 0.1838947 0.04628334 -1.71492997
v 0.1890767 0.01412896 -1.62680355
v 0.35761224 -0.04362907 -1.72116245
v -0 -0.11181283 -1.78448785
v -0 -0.01765537 -1.80682744
v 0.06254794 -0.01470773 -1.77774705
v -0 0.11991122 -1.50946205
v 0.04722546 0.09546845 -1.54127018
v -0 0.13506747 -1.53685611
v 0.12209617 0.0722094 -1.63621537
v 0.06793047 0.10101906 -1.63990132
v 0.07329781 0.081386 -1.59333913
v -0 0.05287075 -1.4962825
v -0 -0.00491599 -1.52594009
v 0.05100785 0.01993774 -1.5259401
v -0 0.12925138 -1.57312601
v 0.04663344 0.11257261 -1.58513157
v -0 0.06444591 -1.58112732
v -0 0.12859242 -1.58804696
v 0.15858148 -0.09647578 -1.62266006
v 0.07905716 0.01385923 -1.58481255
v 0.09406283 -0.00934721 -1.63584962
v 0.1290348 0.0141199 -1.63163081
v 0.17079943 -0.11258276 -1.78312528
v 0.17828886 -0.01505885 -1.80243196
v 0.15429081 -0.13436632 -1.70526803
v -0.1838947 0.04628334 -1.71492997
v -0.35761224 -0.04362907 -1.72116245
v -0.1890767 0.01412896 -1.62680355
v -0.06254794 -0.01470773 -1.77774705
v -0.04722546 0.09546845 -1.54127018
v -0.12209617 0.0722094 -1.63621537
v -0.07329781 0.081386 -1.59333913
v -0.06793047 0.10101906 -1.63990132
v -0.05100785 0.01993774 -1.5259401
v -0.04663344 0.11257261 -1.58513157
v -0.15858148 -0.09647578 -1.62266006
v -0.07905716 0.01385923 -1.58481255
v -0.1290348 0.0141199 -1.63163081
v -0.09406283 -0.00934721 -1.63584962
v -0.17079943 -0.11258276 -1.78312528
v -0.17828886 -0.01505885 -1.80243196
v -0.15429081 -0.13436632 -1.70526803
v -0 0.135857 -1.61541121
v 0.03351079 0.16020358 -1.64101117
v -0.0127995 0.1752509 -1.64101117
v 0.0335108 0.11151034 -1.64101116
v -0.04142154 0.135857 -1.64101116
v -0.0127995 0.09646297 -1.64101116
v 0.04142187 0.13585699 -1.68243329
v 0.01279983 0.17525095 -1.6824333
v -0.03351047 0.16020358 -1.68243329
v -0.03351046 0.11151034 -1.68243329
v 0.0335108 0.11151034 -1.64101116
v -0.0127995 0.09646297 -1.64101116
v 0.01279983 0.09646296 -1.68243328
v -0.03351046 0.11151034 -1.68243329
v 0.04142187 0.13585699 -1.68243329
v -0 0.13585699 -1.70803324
v -0 0.13585699 -1.70803324
v 0.30973276 -0.01632955 -1.77662207
v 0.15454085 0.25247069 -1.77662211
v -0.00065082 -0.01632956 -1.82506026
v 0.02594636 -0.04857627 -2.07178986
v -0.01125506 -0.04857627 -2.07337725
v 0.02765342 -0.01632961 -2.22859561
v -0.02985577 -0.0163296 -2.07417071
v -0.01125507 0.01591709 -2.07337726
v 0.02594635 0.01591709 -2.07178986
v 0.04454706 -0.01632959 -2.0709964
v -0.15584296 0.25247069 -1.77662211
v -0.31103485 -0.01632958 -1.77662207
v 0.15454088 -0.2851298 -1.77662204
v -0.15584293 -0.2851298 -1.77662204
v 0.1223947 -0.22184897 -1.91775845
v 0.15661387 -0.19708409 -1.902575
v 0.21281169 -0.28008265 -1.96658787
v 0.22533348 -0.31719355 -1.99424156
v 0.25955262 -0.29242865 -1.97905823
v 0.11270071 0.0868429 -1.37405592
v 0.15787205 0.09395943 -1.36678332
v 0.17282384 0.08131275 -1.38741224
v 0.06994066 0.09353397 -1.39997929
v 0.04547728 0.11154694 -1.43492299
v 0.05407234 0.09989504 -1.45940571
v 0.1111326 0.07910253 -1.39801269
v 0.13247949 0.07242534 -1.45566242
v 0.14434349 0.07690955 -1.43020301
v 0.07150876 0.10127435 -1.37602239
v 0.06253731 0.14167955 -1.33007998
v 0.05067329 0.13719534 -1.3555395
v 0.11270071 0.0868429 -1.37405592
v 0.14953951 0.10255794 -1.35081953
v 0.14094445 0.11420993 -1.3263368
v 0.07150876 0.10127435 -1.37602239
v 0.04019217 0.13518815 -1.37240142
v 0.02243764 0.134 -1.39459175
v 0.79112796 0.04246299 -1.35369198
v 0.79459254 0.02476361 -1.33062057
v 0.79774557 0.02434965 -1.37467353
v 0.73392533 0.03316424 -1.3735805
v 0.65128009 0.02009061 -1.36185519
v 0.73423509 0.04808594 -1.34287088
v 0.70568333 0.06186855 -1.33222418
v 0.70548467 0.04982839 -1.29680615
v 0.65186833 0.01156596 -1.31217961
v 0.73420058 0.03969739 -1.30663424
v 0.65722106 -0.03569509 -1.32100896
v 0.7363296 -0.02663151 -1.32686393
v 0.79499666 0.11516095 -1.28956467
v 0.78600625 0.12020406 -1.295335
v 0.78503786 0.11393572 -1.28236586
v 0.79223774 0.10285523 -1.28917581
v 0.74580608 0.08995667 -1.29035526
v 0.7593805 0.10406726 -1.30296189
v 0.74581395 0.09636628 -1.31027549
v 0.79357396 0.10824778 -1.3018046
v 0.76129333 0.08213499 -1.31673854
v 0.70724974 0.06617567 -1.33156388
v 0.73554347 0.0507395 -1.34287088
v 0.70679311 0.05248194 -1.29680615
v 0.73606543 0.04303775 -1.30643242
v 0.93571613 0.04451364 -1.33426361
v 0.93179295 0.04432783 -1.34569709
v 0.92702506 0.05404378 -1.33587735
v 0.84075932 0.04673957 -1.3527997
v 0.87118051 0.03566267 -1.36331694
v 0.84889106 0.03203373 -1.37025349
v 0.9255328 0.04284154 -1.32770114
v 0.88634167 0.05076029 -1.34434848
v 0.90925769 0.04130054 -1.35279684
v 0.8941522 0.03916407 -1.35845976
v 0.93002723 0.03305515 -1.3365665
v 0.84764675 0.0150575 -1.35389023
v 0.89103244 0.02437465 -1.34521513
v 0.796275 0.04154501 -1.35324543
v 0.7995191 0.02489982 -1.37461071
v 0.80286954 0.00770907 -1.3546149
v 0.79952947 0.02484626 -1.33421295
v 0.95458732 -0.01509343 -1.33465199
v 0.9504625 -0.01533263 -1.34666495
v 0.94627646 -0.0044446 -1.33667771
v 0.85481052 -0.00221284 -1.35483758
v 0.88894967 -0.01845036 -1.36562387
v 0.8613982 -0.01948594 -1.37250475
v 0.94378076 -0.01578398 -1.32773153
v 0.90327767 -0.00407612 -1.346489
v 0.92698316 -0.01661487 -1.35421375
v 0.91091601 -0.01730483 -1.36028508
v 0.94767431 -0.02669205 -1.33671478
v 0.85574875 -0.03597339 -1.35467664
v 0.90546046 -0.03145517 -1.34550277
v 0.80139981 -0.02117732 -1.37835495
v 0.80139981 -0.03908891 -1.35410742
v 0.80139981 -0.00030274 -1.35462527
v 0.80139981 -0.02111646 -1.33207504
v 0.79915987 -0.0477933 -1.35403446
v 0.79762934 -0.06839816 -1.37326423
v 0.93096814 -0.0689498 -1.33517364
v 0.92743818 -0.06967833 -1.34545926
v 0.92448429 -0.05950245 -1.33763007
v 0.84735249 -0.0532967 -1.35360721
v 0.87192754 -0.06996328 -1.36271659
v 0.85143856 -0.06963007 -1.36779157
v 0.92166952 -0.06846416 -1.32926944
v 0.88664631 -0.05654936 -1.34594563
v 0.90612839 -0.06988888 -1.35233823
v 0.89277087 -0.06991239 -1.35748688
v 0.79660551 -0.08218279 -1.35260704
v 0.92437075 -0.07857598 -1.33624009
v 0.84763388 -0.082554 -1.35144094
v 0.88608156 -0.08089701 -1.34413341
v 0.79762934 -0.06839816 -1.37326423
v 0.79660551 -0.08218279 -1.35260704
v 0.79915987 -0.0477933 -1.35403446
v 0.79812334 -0.0617499 -1.33336488
v 0.33116861 0.01549904 -1.29781764
v 0.33116861 -0.05998894 -1.29781763
v 0.37508287 -0.05998894 -1.29614417
v 0.32756253 -0.08133275 -1.43639615
v 0.32621422 0.02200218 -1.43589
v 0.37209507 -0.0799616 -1.43234375
v 0.42065131 0.01549904 -1.29588275
v 0.41789093 0.02139012 -1.43103198
v 0.41808685 -0.0790601 -1.43154803
v 0.67657344 -0.0801256 -1.26716308
v 0.69511799 -0.11798039 -1.34785393
v 0.64392166 -0.02043855 -1.35453026
v 0.68732785 -0.0801256 -1.43779495
v 0.68732797 0.03563572 -1.43779509
v 0.69511805 0.0734905 -1.34785395
v 0.67657344 0.03563573 -1.26716309
v 0.42065122 -0.05998893 -1.29588274
v -0.79112796 0.04246299 -1.35369198
v -0.79774557 0.02434965 -1.37467353
v -0.79459254 0.02476361 -1.33062057
v -0.73392533 0.03316424 -1.3735805
v -0.73423509 0.04808594 -1.34287088
v -0.65128009 0.02009061 -1.36185519
v -0.70568333 0.06186855 -1.33222418
v -0.70548467 0.04982839 -1.29680615
v -0.73420058 0.03969739 -1.30663424
v -0.65186833 0.01156596 -1.31217961
v -0.65722106 -0.03569509 -1.32100896
v -0.7363296 -0.02663151 -1.32686393
v -0.79499666 0.11516095 -1.28956467
v -0.78503786 0.11393572 -1.28236586
v -0.78600625 0.12020406 -1.295335
v -0.79223774 0.10285523 -1.28917581
v -0.74580608 0.08995667 -1.29035526
v -0.74581395 0.09636628 -1.31027549
v -0.7593805 0.10406726 -1.30296189
v -0.79357396 0.10824778 -1.3018046
v -0.76129333 0.08213499 -1.31673854
v -0.70724974 0.06617567 -1.33156388
v -0.70679311 0.05248194 -1.29680615
v -0.73554347 0.0507395 -1.34287088
v -0.73606543 0.04303775 -1.30643242
v -0.93571613 0.04451364 -1.33426361
v -0.92702506 0.05404378 -1.33587735
v -0.93179295 0.04432783 -1.34569709
v -0.84075932 0.04673957 -1.3527997
v -0.84889106 0.03203373 -1.37025349
v -0.87118051 0.03566267 -1.36331694
v -0.9255328 0.04284154 -1.32770114
v -0.88634167 0.05076029 -1.34434848
v -0.8941522 0.03916407 -1.35845976
v -0.90925769 0.04130054 -1.35279684
v -0.93002723 0.03305515 -1.3365665
v -0.84764675 0.0150575 -1.35389023
v -0.89103244 0.02437465 -1.34521513
v -0.796275 0.04154501 -1.35324543
v -0.80286954 0.00770907 -1.3546149
v -0.7995191 0.02489982 -1.37461071
v -0.79952947 0.02484626 -1.33421295
v -0.95458732 -0.01509343 -1.33465199
v -0.94627646 -0.0044446 -1.33667771
v -0.9504625 -0.01533263 -1.34666495
v -0.85481052 -0.00221284 -1.35483758
v -0.8613982 -0.01948594 -1.37250475
v -0.88894967 -0.01845036 -1.36562387
v -0.94378076 -0.01578398 -1.32773153
v -0.90327767 -0.00407612 -1.346489
v -0.91091601 -0.01730483 -1.36028508
v -0.92698316 -0.01661487 -1.35421375
v -0.94767431 -0.02669205 -1.33671478
v -0.85574875 -0.03597339 -1.35467664
v -0.90546046 -0.03145517 -1.34550277
v -0.80139981 -0.02117732 -1.37835495
v -0.80139981 -0.00030274 -1.35462527
v -0.80139981 -0.03908891 -1.35410742
v -0.80139981 -0.02111646 -1.33207504
v -0.79915987 -0.0477933 -1.35403446
v -0.79762934 -0.06839816 -1.37326423
v -0.93096814 -0.0689498 -1.33517364
v -0.92448429 -0.05950245 -1.33763007
v -0.92743818 -0.06967833 -1.34545926
v -0.84735249 -0.0532967 -1.35360721
v -0.85143856 -0.06963007 -1.36779157
v -0.87192754 -0.06996328 -1.36271659
v -0.92166952 -0.06846416 -1.32926944
v -0.88664631 -0.05654936 -1.34594563
v -0.89277087 -0.06991239 -1.35748688
v -0.90612839 -0.06988888 -1.35233823
v -0.79660551 -0.08218279 -1.35260704
v -0.92437075 -0.07857598 -1.33624009
v -0.84763388 -0.082554 -1.35144094
v -0.88608156 -0.08089701 -1.34413341
v -0.79762934 -0.06839816 -1.37326423
v -0.79915987 -0.0477933 -1.35403446
v -0.79660551 -0.08218279 -1.35260704
v -0.79812334 -0.0617499 -1.33336488
v -0.33116861 0.01549904 -1.29781764
v -0.37508287 -0.05998894 -1.29614417
v -0.33116861 -0.05998894 -1.29781763
v -0.32756253 -0.08133275 -1.43639615
v -0.37209507 -0.0799616 -1.43234375
v -0.32621422 0.02200218 -1.43589
v -0.42065131 0.01549904 -1.29588275
v -0.41808685 -0.0790601 -1.43154803
v -0.41789093 0.02139012 -1.43103198
v -0.67657344 -0.0801256 -1.26716308
v -0.64392166 -0.02043855 -1.35453026
v -0.69511799 -0.11798039 -1.34785393
v -0.68732785 -0.0801256 -1.43779495
v -0.68732797 0.03563572 -1.43779509
v -0.69511805 0.0734905 -1.34785395
v -0.67657344 0.03563573 -1.26716309
v -0.42065122 -0.05998893 -1.29588274
v 0.004964 0.09698686 -1.70418576
v 0.05812996 0.06155487 -1.70670954
v 0.05189398 0.05269055 -1.7444717
v -0.004964 0.09698686 -1.70418576
v -0.05189399 0.05269055 -1.7444717
v -0.05812996 0.06155487 -1.70670954
v 0.17290359 0.07215675 -1.32001703
v 0.17290362 -0.11483442 -1.32127872
v 0.16732987 -0.08551944 -1.47256651
v 0.16732987 0.02954432 -1.47256676
v 0.20096254 -0.06432522 -1.07650738
v 0.18466435 -0.08148285 -1.21255163
v 0.17992715 0.09637907 -1.21559924
v 0.19670443 0.11900811 -1.07797559
v 2E-08 0.19186262 -1.22827228
v 2E-08 0.20655822 -1.07788297
v 2E-08 0.13591374 -1.33217162
v 2E-08 0.1789786 -0.94600824
v 0.20912784 0.13060367 -0.95714768
v 0.21161049 -0.0567399 -0.94962901
v 2E-08 -0.14556933 -1.0842127
v 2E-08 -0.15688601 -0.93690352
v 2E-08 -0.16091404 -1.21364227
v 2E-08 -0.172998 -1.32547965
v 0.13910235 -0.07956654 -0.63441504
v 0.13044433 0.16512125 -0.61721765
v 0.13833551 0.15311613 -0.5446819
v 0.15000884 -0.08857678 -0.5409257
v 0.15000884 0.14118633 -0.4722042
v 0.09696915 -0.08290545 -0.28866741
v 0.09696917 0.05649522 -0.28424504
v 0.17532761 0.09741602 -0.27861318
v 0.25713863 0.05825414 -0.29518362
v 0.25713863 -0.08290545 -0.29974654
v 0.17532761 -0.1218997 -0.28960356
v 0.14246489 -0.04762675 -0.24526295
v 0.14246489 0.0241145 -0.24298713
v 0.18279133 0.045174 -0.24008875
v 0.22489459 0.02501971 -0.24861642
v 0.22489459 -0.04762675 -0.25096471
v 0.18279133 -0.06769476 -0.24574471
v 2E-08 -0.14767925 -1.49387313
v 2E-08 0.07234084 -1.49185137
v -0.17290358 0.07215675 -1.32001703
v -0.16732984 0.02954432 -1.47256676
v -0.16732983 -0.08551944 -1.47256651
v -0.17290358 -0.11483442 -1.32127872
v -0.20096249 -0.06432522 -1.07650738
v -0.19670438 0.11900811 -1.07797559
v -0.17992711 0.09637907 -1.21559924
v -0.1846643 -0.08148285 -1.21255163
v 2E-08 0.20655822 -1.07788297
v 2E-08 0.19186262 -1.22827228
v 2E-08 0.13591374 -1.33217162
v -0.20912779 0.13060367 -0.95714768
v 2E-08 0.1789786 -0.94600824
v -0.21161045 -0.0567399 -0.94962901
v 2E-08 -0.14556933 -1.0842127
v 2E-08 -0.15688601 -0.93690352
v 2E-08 -0.16091404 -1.21364227
v 2E-08 -0.172998 -1.32547965
v -0.13910234 -0.07956654 -0.63441504
v -0.1304443 0.16512125 -0.61721765
v -0.13833546 0.15311613 -0.5446819
v -0.15000882 -0.08857678 -0.5409257
v -0.15000882 0.14118633 -0.4722042
v -0.09696913 0.05649522 -0.28424504
v -0.09696913 -0.08290545 -0.28866741
v -0.25713857 0.05825414 -0.29518362
v -0.17532758 0.09741602 -0.27861318
v -0.17532758 -0.1218997 -0.28960356
v -0.25713857 -0.08290545 -0.29974654
v -0.14246484 0.0241145 -0.24298713
v -0.14246484 -0.04762675 -0.24526295
v -0.22489455 0.02501971 -0.24861642
v -0.18279129 0.045174 -0.24008875
v -0.18279129 -0.06769476 -0.24574471
v -0.22489455 -0.04762675 -0.25096471
v 2E-08 -0.14767925 -1.49387313
v 2E-08 0.07234084 -1.49185137
v 0.14578625 0.02160341 -0.10333077
v 0.14721441 -0.10076046 -0.11951809
v 0.24479861 -0.10092875 -0.11968257
v 0.25967183 0.02200051 -0.10308651
v 0.20158536 0.06037255 -0.14116682
v 0.15934495 -0.01987293 -0.1931877
v 0.16230057 -0.05918359 -0.18971087
v -0.14721441 -0.10076046 -0.11951809
v -0.14578625 0.02160341 -0.10333077
v -0.25967183 0.02200051 -0.10308651
v -0.24479861 -0.10092875 -0.11968257
v -0.20158536 0.06037255 -0.14116682
v -0.15934495 -0.01987293 -0.1931877
v -0.16230057 -0.05918359 -0.18971087
v 0.08631865 0.01907667 -1.69470492
v 0.06254794 -0.01470773 -1.77774705
v 0.05222533 0.06231874 -1.76077452
v 0.06238473 0.08404226 -1.6931049
v -0 -0.09533259 -1.63167395
v -0 -0.14785903 -1.70526779
v 0.11884466 0.06428906 -1.67886654
v 0.12589526 0.0186768 -1.68285694
v 0.12589526 0.0186768 -1.68285694
v 0.08631865 0.01907667 -1.69470492
v -0 0.09935431 -1.78267041
v -0 0.12112899 -1.69142238
v -0 -0.01765537 -1.80682744
v -0 0.11991644 -1.64692203
v -0 0.12859242 -1.58804696
v 0.04663344 0.11257261 -1.58513157
v 0.07905716 0.01385923 -1.58481255
v 0.1290348 0.0141199 -1.63163081
v 0.08631865 0.01907667 -1.69470492
v 0.09406283 -0.00934721 -1.63584962
v -0 -0.03856697 -1.5851244
v -0 -0.09533259 -1.63167395
v -0 0.12925138 -1.57312601
v 0.05100785 0.01993774 -1.5259401
v -0 -0.00491599 -1.52594009
v -0.08631865 0.01907667 -1.69470492
v -0.06238473 0.08404226 -1.6931049
v -0.05222533 0.06231874 -1.76077452
v -0.06254794 -0.01470773 -1.77774705
v -0.11884466 0.06428906 -1.67886654
v -0.12589526 0.0186768 -1.68285694
v -0.12589526 0.0186768 -1.68285694
v -0.08631865 0.01907667 -1.69470492
v -0.04663344 0.11257261 -1.58513157
v -0.1290348 0.0141199 -1.63163081
v -0.07905716 0.01385923 -1.58481255
v -0.08631865 0.01907667 -1.69470492
v -0.09406283 -0.00934721 -1.63584962
v -0.05100785 0.01993774 -1.5259401
v 0.30973276 -0.01632955 -1.77662207
v 0.12356387 -0.01632956 -1.82633759
v 0.0614565 0.09124353 -1.8263376
v 0.15454085 0.25247069 -1.77662211
v -0.06275824 0.09124353 -1.8263376
v -0.15584296 0.25247069 -1.77662211
v -0.1248656 -0.01632957 -1.82633759
v -0.31103485 -0.01632958 -1.77662207
v -0.06275823 -0.12390267 -1.82633758
v -0.15584293 -0.2851298 -1.77662204
v -0.06275824 0.09124353 -1.8263376
v 0.0614565 0.09124353 -1.8263376
v 0.04428182 0.04791291 -1.95651855
v -0.02989902 0.04791291 -1.95651855
v 0.06145651 -0.12390267 -1.82633758
v 0.15454088 -0.2851298 -1.77662204
v 0.08137224 -0.01632958 -1.95651854
v 0.06145651 -0.12390267 -1.82633758
v -0.06275823 -0.12390267 -1.82633758
v -0.02989902 -0.08057207 -1.95651853
v 0.04428183 -0.08057207 -1.95651853
v 0.12356387 -0.01632956 -1.82633759
v -0.1248656 -0.01632957 -1.82633759
v -0.06698944 -0.01632958 -1.95651854
v 0.02553231 -0.09530829 -1.90585184
v 0.05975147 -0.07054339 -1.89066863
v 0.15661387 -0.19708409 -1.902575
v 0.1223947 -0.22184897 -1.91775845
v -0.05076784 0.07634947 -1.88289728
v 0.05905381 0.0834924 -1.8615165
v 0.05383542 0.07095633 -1.89772954
v -0.04101224 0.06308367 -1.92111065
v 0.05822864 -0.11436511 -1.86724376
v -0.05031532 -0.10858921 -1.88467026
v -0.04113112 -0.09610044 -1.92064476
v 0.05303588 -0.10189069 -1.90327728
v 0.11801205 -0.01642754 -1.85697163
v 0.10681654 -0.01642753 -1.88961388
v -0.09886275 -0.01642754 -1.8949622
v -0.08471367 -0.01642754 -1.92600215
v -0.05273401 0.07839796 -1.86824157
v 0.05320059 0.06986413 -1.89385738
v 0.04941939 0.0601344 -1.92275907
v -0.04460926 0.06777316 -1.89983251
v 0.05368974 -0.10378224 -1.89011633
v -0.05314834 -0.11159894 -1.86663103
v -0.0444314 -0.10019979 -1.90052438
v 0.04986717 -0.09394582 -1.91933584
v 0.10169469 -0.01632957 -1.89769984
v 0.09241931 -0.01632957 -1.92623068
v -0.11536909 -0.01632957 -1.85034622
v -0.10012331 -0.01632958 -1.88415683
v 0.1111326 0.07910253 -1.39801269
v 0.15505299 0.08004404 -1.40985232
v 0.08975259 0.08244806 -1.41097443
v 0.08109465 0.09161703 -1.45468979
v 0.08975259 0.08244806 -1.41097443
v 0.10590704 0.08292405 -1.45350521
v 0.09288877 0.09792881 -1.36306077
v 0.08910974 0.13118083 -1.33223731
v 0.09288877 0.09792881 -1.36306077
v 0.11392213 0.12248793 -1.33105272
v 0.06994066 0.09353397 -1.39997929
v 0.03737309 0.12127275 -1.41547042
v 0.08975259 0.08244806 -1.41097443
v 0.1111326 0.07910253 -1.39801269
v 0.11270071 0.0868429 -1.37405592
v 0.06994066 0.09353397 -1.39997929
v 0.09288877 0.09792881 -1.36306077
v 0.07150876 0.10127435 -1.37602239
v 0.73188399 -0.02566321 -1.38241724
v 0.80014901 -0.02663151 -1.37750439
v 0.6501864 -0.02484231 -1.37786106
v 0.66362201 -0.07512054 -1.31898502
v 0.65722106 -0.03569509 -1.32100896
v 0.6624317 -0.08035024 -1.36245719
v 0.73370169 -0.090694 -1.37292674
v 0.7337368 -0.08216074 -1.32909683
v 0.79637395 -0.07588731 -1.33657471
v 0.79601751 -0.08258721 -1.372188
v 0.79876135 -0.02663151 -1.33148972
v 0.65186833 0.01156596 -1.31217961
v 0.7337368 -0.08216074 -1.32909683
v 0.79637395 -0.07588731 -1.33657471
v 0.79876135 -0.02663151 -1.33148972
v 0.79459254 0.02476361 -1.33062057
v 0.73420058 0.03969739 -1.30663424
v 0.66362201 -0.07512054 -1.31898502
v 0.70548467 0.04982839 -1.29680615
v 0.70548467 0.04982839 -1.29680615
v 0.73420058 0.03969739 -1.30663424
v 0.73423509 0.04808594 -1.34287088
v 0.70568333 0.06186855 -1.33222418
v 0.76423417 0.07780938 -1.29620903
v 0.73606543 0.04303775 -1.30643242
v 0.73554347 0.0507395 -1.34287088
v 0.70679311 0.05248194 -1.29680615
v 0.70724974 0.06617567 -1.33156388
v 0.88690428 0.0369288 -1.3336144
v 0.8429722 0.03034277 -1.33685117
v 0.796275 0.04154501 -1.35324543
v 0.79952947 0.02484626 -1.33421295
v 0.7995191 0.02489982 -1.37461071
v 0.80286954 0.00770907 -1.3546149
v 0.9028813 -0.01757455 -1.33387606
v 0.85316167 -0.01959253 -1.33782748
v 0.80139981 -0.00030274 -1.35462527
v 0.80139981 -0.02111646 -1.33207504
v 0.80139981 -0.02117732 -1.37835495
v 0.80139981 -0.03908891 -1.35410742
v 0.88453172 -0.06795481 -1.33494381
v 0.84480027 -0.06704134 -1.33805505
v 0.79915987 -0.0477933 -1.35403446
v 0.79812334 -0.0617499 -1.33336488
v 0.79762934 -0.06839816 -1.37326423
v 0.79660551 -0.08218279 -1.35260704
v 0.18039284 -0.11483443 -1.3706192
v 0.33075907 -0.10066328 -1.36319092
v 0.17956875 -0.05998889 -1.27919928
v 0.17956875 0.01549907 -1.27919917
v 0.33075907 0.05324301 -1.36319094
v 0.18039284 0.05597665 -1.37061923
v 0.18310958 0.02954432 -1.47414462
v 0.18310958 -0.08551944 -1.47414448
v 0.37467345 -0.09773289 -1.36151734
v 0.41599064 -0.10003918 -1.3624436
v 0.42024167 0.05324301 -1.36125593
v 0.57297079 0.02544303 -1.44683675
v 0.57116513 -0.07652212 -1.44734338
v 0.56639295 0.02544303 -1.27419465
v 0.56922482 0.07313101 -1.35625689
v 0.5692247 -0.11762089 -1.35625687
v 0.56639295 -0.06993292 -1.27419476
v 0.61564903 -0.05608755 -1.38540152
v 0.61582337 -0.07189291 -1.35481313
v 0.61582337 0.02740303 -1.35481303
v 0.6156473 0.01143345 -1.38571934
v 0.61150895 -0.04706891 -1.31157068
v 0.61150895 0.00257904 -1.31157069
v 0.61150895 0.00257904 -1.31157069
v 0.61150895 -0.04706891 -1.31157068
v 0.67657344 -0.0801256 -1.26716308
v 0.67657344 0.03563573 -1.26716309
v 0.61564903 -0.05608755 -1.38540152
v 0.6156473 0.01143345 -1.38571934
v 0.68732797 0.03563572 -1.43779509
v 0.68732785 -0.0801256 -1.43779495
v 0.61582337 0.02740303 -1.35481303
v 0.69511805 0.0734905 -1.34785395
v 0.61582337 -0.07189291 -1.35481313
v 0.69511799 -0.11798039 -1.34785393
v 0.11075161 -0.0040365 -1.44723252
v 0.07917219 0.0065732 -1.37773745
v 0.11075161 -0.0502221 -1.44723252
v 0.10284751 -0.00967414 -1.308062
v 0.10284751 -0.03997435 -1.308062
v 0.07917219 -0.06198887 -1.37773744
v -0.73188399 -0.02566321 -1.38241724
v -0.80014901 -0.02663151 -1.37750439
v -0.6501864 -0.02484231 -1.37786106
v -0.66362201 -0.07512054 -1.31898502
v -0.6624317 -0.08035024 -1.36245719
v -0.65722106 -0.03569509 -1.32100896
v -0.7337368 -0.08216074 -1.32909683
v -0.73370169 -0.090694 -1.37292674
v -0.79637395 -0.07588731 -1.33657471
v -0.79601751 -0.08258721 -1.372188
v -0.79876135 -0.02663151 -1.33148972
v -0.65186833 0.01156596 -1.31217961
v -0.7337368 -0.08216074 -1.32909683
v -0.79876135 -0.02663151 -1.33148972
v -0.79637395 -0.07588731 -1.33657471
v -0.79459254 0.02476361 -1.33062057
v -0.73420058 0.03969739 -1.30663424
v -0.66362201 -0.07512054 -1.31898502
v -0.70548467 0.04982839 -1.29680615
v -0.70548467 0.04982839 -1.29680615
v -0.70568333 0.06186855 -1.33222418
v -0.73423509 0.04808594 -1.34287088
v -0.73420058 0.03969739 -1.30663424
v -0.76423417 0.07780938 -1.29620903
v -0.73606543 0.04303775 -1.30643242
v -0.73554347 0.0507395 -1.34287088
v -0.70679311 0.05248194 -1.29680615
v -0.70724974 0.06617567 -1.33156388
v -0.88690428 0.0369288 -1.3336144
v -0.8429722 0.03034277 -1.33685117
v -0.79952947 0.02484626 -1.33421295
v -0.796275 0.04154501 -1.35324543
v -0.7995191 0.02489982 -1.37461071
v -0.80286954 0.00770907 -1.3546149
v -0.9028813 -0.01757455 -1.33387606
v -0.85316167 -0.01959253 -1.33782748
v -0.80139981 -0.02111646 -1.33207504
v -0.80139981 -0.00030274 -1.35462527
v -0.80139981 -0.02117732 -1.37835495
v -0.80139981 -0.03908891 -1.35410742
v -0.88453172 -0.06795481 -1.33494381
v -0.84480027 -0.06704134 -1.33805505
v -0.79812334 -0.0617499 -1.33336488
v -0.79915987 -0.0477933 -1.35403446
v -0.79762934 -0.06839816 -1.37326423
v -0.79660551 -0.08218279 -1.35260704
v -0.18039284 -0.11483443 -1.3706192
v -0.17956875 -0.05998889 -1.27919928
v -0.33075907 -0.10066328 -1.36319092
v -0.17956875 0.01549907 -1.27919917
v -0.18039284 0.05597665 -1.37061923
v -0.33075907 0.05324301 -1.36319094
v -0.18310958 0.02954432 -1.47414462
v -0.18310958 -0.08551944 -1.47414448
v -0.37467345 -0.09773289 -1.36151734
v -0.41599064 -0.10003918 -1.3624436
v -0.42024167 0.05324301 -1.36125593
v -0.57116513 -0.07652212 -1.44734338
v -0.57297079 0.02544303 -1.44683675
v -0.56922482 0.07313101 -1.35625689
v -0.56639295 0.02544303 -1.27419465
v -0.56639295 -0.06993292 -1.27419476
v -0.5692247 -0.11762089 -1.35625687
v -0.61582337 -0.07189291 -1.35481313
v -0.61564903 -0.05608755 -1.38540152
v -0.6156473 0.01143345 -1.38571934
v -0.61582337 0.02740303 -1.35481303
v -0.61150895 0.00257904 -1.31157069
v -0.61150895 -0.04706891 -1.31157068
v -0.61150895 0.00257904 -1.31157069
v -0.67657344 0.03563573 -1.26716309
v -0.67657344 -0.0801256 -1.26716308
v -0.61150895 -0.04706891 -1.31157068
v -0.61564903 -0.05608755 -1.38540152
v -0.68732785 -0.0801256 -1.43779495
v -0.68732797 0.03563572 -1.43779509
v -0.6156473 0.01143345 -1.38571934
v -0.61582337 0.02740303 -1.35481303
v -0.69511805 0.0734905 -1.34785395
v -0.69511799 -0.11798039 -1.34785393
v -0.61582337 -0.07189291 -1.35481313
v -0.07917219 0.0065732 -1.37773745
v -0.11075161 -0.0040365 -1.44723252
v -0.11075161 -0.0502221 -1.44723252
v -0.10284751 -0.00967414 -1.308062
v -0.10284751 -0.03997435 -1.308062
v -0.07917219 -0.06198887 -1.37773744
vn -0.82087 -0.17655 0.54313
vn -0.82588 -0.13838 -0.54661
vn -0.83865 -0.24577 0.48606
vn 0.84536 0.0658 -0.53013
vn 0.84439 0.02091 0.53531
vn 0.82492 0.1271 -0.55077
vn -0.80637 -0.08346 -0.58549
vn -0.83322 -0.27588 0.47919
vn 0.06734 -0.99144 -0.11184
vn 0.08491 -0.996 0.02787
vn 0.06837 -0.99681 -0.04109
vn 0.06962 -0.99141 -0.11077
vn 0.06771 -0.98353 -0.16759
vn 0.06824 -0.99517 0.0706
vn 0.05197 -0.99828 0.02716
vn 0.79752 0.03718 0.60214
vn 0.85041 -0.03283 0.52509
vn -0 -0.10278 0.9947
vn 0 -0.31035 0.95062
vn -0.00099 -0.0406 0.99917
vn 0.78883 0.09435 0.60733
vn 0.84952 0.12876 -0.51159
vn 0.83991 0.05932 -0.53947
vn 0 -0.47446 -0.88028
vn -0 -0.38935 -0.92109
vn 0.1627 -0.14012 -0.97667
vn 0.82087 -0.17655 0.54313
vn 0.83865 -0.24577 0.48606
vn 0.82588 -0.13838 -0.54661
vn -0.84536 0.0658 -0.53013
vn -0.82492 0.1271 -0.55077
vn -0.84439 0.02091 0.53531
vn 0.83322 -0.27588 0.47919
vn 0.80637 -0.08346 -0.58549
vn -0.06734 -0.99144 -0.11184
vn -0.06837 -0.99681 -0.04109
vn -0.08491 -0.996 0.02787
vn -0.06962 -0.99141 -0.11077
vn -0.06771 -0.98353 -0.16759
vn -0.06824 -0.99517 0.0706
vn -0.05197 -0.99828 0.02716
vn -0.79752 0.03718 0.60214
vn -0.85041 -0.03283 0.52509
vn 0.00099 -0.0406 0.99917
vn -0.78883 0.09435 0.60733
vn -0.84952 0.12876 -0.51159
vn -0.83991 0.05932 -0.53947
vn -0.1627 -0.14012 -0.97667
vn 0.07769 0.85414 -0.51421
vn -0.07769 0.85414 -0.51421
vn 0.44914 0.89343 0.00745
vn 0.07769 0.85414 0.51421
vn -0.44914 0.89343 -0.00745
vn 0.44914 0.89343 -0.00745
vn -0.07769 0.85414 0.51421
vn -0.44914 0.89343 0.00745
vn -0.06583 -0.98714 0.14571
vn 0.28805 -0.95761 -0
vn -0 -1 -0
vn -0.06583 -0.98714 -0.14571
vn -0 -0.9803 0.19754
vn 0.06583 -0.98714 -0.14571
vn -0.28805 -0.95761 -0
vn 0.06583 -0.98714 0.14571
vn 0 -0.9803 -0.19754
vn -0.89799 0.40853 0.16343
vn -0.89407 -0.44793 -0.00241
vn -0.67009 -0.59444 0.44455
vn 0.9407 -0.33793 0.02969
vn 0.86731 0.46857 0.16795
vn 0.70882 -0.54435 0.44861
vn -0.0158 0.47464 0.88004
vn 0.04388 0.97981 0.19507
vn -0.99846 0.01168 -0.05423
vn -0.659 0.0308 -0.75151
vn -0.99331 0.02713 -0.11226
vn 0.67637 0.11951 -0.7268
vn 0.99157 0.11316 -0.06308
vn 0.99331 0.02713 -0.11226
vn 0.42748 0.7836 -0.45081
vn -0.01577 0.79714 0.60358
vn 0.64933 0.75258 0.10948
vn 0.89799 0.40853 0.16343
vn 0.67009 -0.59444 0.44455
vn 0.89407 -0.44793 -0.00241
vn -0.9407 -0.33793 0.02969
vn -0.70882 -0.54435 0.44861
vn -0.86731 0.46857 0.16795
vn 0.0158 0.47464 0.88004
vn -0.04388 0.97981 0.19507
vn 0.99846 0.01168 -0.05423
vn 0.99331 0.02713 -0.11226
vn 0.659 0.0308 -0.75151
vn -0.67637 0.11951 -0.7268
vn -0.99331 0.02713 -0.11226
vn -0.99157 0.11316 -0.06308
vn -0.42748 0.7836 -0.45081
vn -0.64933 0.75258 0.10948
vn 0.01577 0.79714 0.60358
vn 0 -1 -0
vn 0.72361 -0.44721 0.52573
vn -0.27639 -0.44721 0.85065
vn 0.72361 -0.44721 -0.52573
vn -0.89443 -0.44721 0
vn -0.27639 -0.44721 -0.85065
vn 0.89443 0.44721 0
vn 0.27639 0.44721 0.85065
vn -0.72361 0.44721 0.52573
vn -0.72361 0.44721 -0.52573
vn 0.27639 0.44721 -0.85065
vn -0 1 0
vn 0 -1 -0
vn 0.72361 -0.44721 0.52573
vn -0.27639 -0.44721 0.85065
vn 0.72361 -0.44722 -0.52573
vn -0.89443 -0.44721 0
vn -0.27639 -0.44721 -0.85065
vn 0.89443 0.44721 -0
vn 0.27639 0.44721 0.85065
vn -0.72361 0.44721 0.52573
vn -0.72361 0.44721 -0.52573
vn 0.27639 0.44721 -0.85065
vn -0 1 -0
vn 0 -1 0
vn 0.72361 -0.44721 0.52573
vn -0.27639 -0.44721 0.85065
vn 0.72361 -0.44721 -0.52573
vn -0.89443 -0.44721 -0
vn -0.27639 -0.44721 -0.85065
vn 0.89443 0.44721 0
vn 0.27639 0.44721 0.85065
vn -0.72361 0.44721 0.52573
vn -0.72361 0.44721 -0.52573
vn 0.27639 0.44721 -0.85065
vn -0 1 0
vn 0.10779 0.10471 0.98864
vn 0.207 -0.79736 0.56689
vn 0.99836 0.05494 -0.0163
vn -0 0.78853 -0.615
vn 0 0.99998 -0.00653
vn 0.2745 0.91977 0.2805
vn -0 -0.80102 0.59864
vn 0.7492 -0.47762 0.4589
vn -0 -0.30316 0.95294
vn 0.80597 -0.22414 0.54788
vn 0.45219 0.04534 0.89077
vn 0.78586 -0.42155 0.45246
vn -0 -0.99975 -0.02255
vn -0 -0.6572 -0.75371
vn 0.66285 -0.66717 -0.33989
vn -0 0.99246 0.12254
vn -0.71465 -0.05679 0.69718
vn 0 0.01724 0.99985
vn 0 -0.99423 0.10725
vn 0.19443 -0.84843 -0.4923
vn 0.71443 -0.60247 -0.35584
vn 0.28955 -0.89128 -0.34898
vn 0.86357 -0.27024 -0.42569
vn 0.21022 0.73892 -0.64016
vn 0.12944 0.90195 0.41198
vn 0.20649 -0.09501 -0.97382
vn -0.10779 0.10471 0.98864
vn -0.99836 0.05494 -0.0163
vn -0.207 -0.79736 0.56689
vn -0.2745 0.91977 0.2805
vn -0.7492 -0.47762 0.45889
vn -0.80597 -0.22414 0.54788
vn -0.78586 -0.42155 0.45246
vn -0.45219 0.04534 0.89077
vn -0.66285 -0.66717 -0.33989
vn 0.71465 -0.05679 0.69718
vn -0.19443 -0.84843 -0.4923
vn -0.71443 -0.60247 -0.35584
vn -0.86357 -0.27024 -0.42569
vn -0.28955 -0.89128 -0.34898
vn -0.21022 0.73892 -0.64016
vn -0.12944 0.90195 0.41198
vn -0.20649 -0.09501 -0.97382
vn -0 -1 0
vn 0.72361 -0.44721 0.52573
vn -0.27639 -0.44721 0.85065
vn 0.72361 -0.44721 -0.52573
vn -0.89443 -0.44721 0
vn -0.27639 -0.44721 -0.85065
vn 0.89443 0.44721 -0
vn 0.27639 0.44721 0.85065
vn -0.72361 0.44721 0.52573
vn -0.72361 0.44721 -0.52573
vn 0.27639 0.44721 -0.85065
vn -0 1 -0
vn -0.15419 -0.98804 -0
vn -0.0771 -0.98804 -0.13353
vn -0 -1 0
vn 0.47594 0.24405 -0.84494
vn -0.48418 0.29825 -0.82257
vn 0.12527 0.99212 -0
vn -0.94622 0.32354 -0
vn -0.48418 0.29825 0.82257
vn 0.47594 0.24405 0.84494
vn 0.97663 0.21492 -0
vn 0.0771 -0.98804 -0.13353
vn 0.15419 -0.98804 0
vn -0.0771 -0.98804 0.13353
vn 0.0771 -0.98804 0.13353
vn -0.06224 0.81025 0.58277
vn -0.06225 0.81025 0.58277
vn -0.06225 0.81025 0.58277
vn -0.01287 0.2799 0.95994
vn -0.04411 0.54519 0.83715
vn -0.02001 0.34183 0.93955
vn -0.46524 0.00996 -0.88513
vn -0.68236 -0.10476 -0.72347
vn -0.51772 -0.01583 -0.8554
vn -0.18859 -0.00325 -0.98205
vn -0.13145 -0.03427 -0.99073
vn 0.07121 -0.14074 -0.98748
vn -0.4267 -0.57884 -0.69489
vn -0.48296 -0.54698 -0.68379
vn -0.66186 -0.41802 -0.62226
vn -0.15006 -0.59204 -0.79181
vn 0.09171 -0.454 -0.88627
vn -0.09669 -0.56542 -0.81912
vn -0.63165 -0.24913 -0.73414
vn -0.60197 -0.51435 -0.6108
vn -0.62975 -0.31082 -0.7119
vn 0.51915 0.08483 0.85047
vn 0.7196 -0.607 0.33723
vn 0.6653 0.62008 0.41578
vn -0.06119 0.8023 0.59378
vn -0.74503 0.46661 0.47666
vn 0.15435 0.18135 0.97123
vn -0.0913 0.18188 0.97907
vn -0.04642 -0.87565 0.48071
vn -0.71403 -0.67407 0.18919
vn 0.33857 -0.85903 0.38396
vn -0.67755 -0.71527 -0.17118
vn 0.13032 -0.98213 -0.13581
vn 0.83875 -0.30154 0.45341
vn -0.00115 0.24081 0.97057
vn -0.01377 -0.90933 0.41584
vn 0.70342 -0.4662 -0.53652
vn -0.40345 -0.8613 0.30884
vn -0.3682 0.34175 0.86466
vn -0.36441 0.37748 0.8513
vn 0.73033 0.68196 0.03932
vn 0.61175 0.78993 -0.04207
vn -0.80301 0.5685 0.17885
vn 0.18879 0.87535 -0.4451
vn -0.76058 -0.56174 -0.32552
vn 0.26983 -0.31098 -0.91131
vn 0.93964 -0.31892 0.12393
vn 0.63383 0.76374 0.1223
vn 0.25865 -0.16206 0.95228
vn -0.08802 -0.01811 0.99595
vn 0.2386 0.9676 0.08264
vn 0.17983 0.98222 0.05382
vn 0.14519 -0.98936 -0.00913
vn -0.08835 -0.08449 0.9925
vn 0.28988 0.95313 0.08665
vn 0.28322 0.95482 0.09002
vn 0.52897 -0.09975 -0.84275
vn 0.20718 0.03955 -0.9775
vn 0.22216 -0.01021 -0.97496
vn -0.70529 -0.02481 0.70848
vn -0.53274 0.84398 -0.06241
vn -0.42935 0.01505 -0.90301
vn -0.54101 -0.8355 -0.09616
vn 0.9465 -0.31727 0.05895
vn 0.64434 0.76396 0.03439
vn 0.34233 -0.12757 0.93088
vn 0.04117 0.01275 0.99907
vn 0.24252 0.9701 -0.00992
vn 0.16673 0.98576 -0.02197
vn 0.14181 -0.98981 0.01315
vn 0.02864 -0.0386 0.99884
vn 0.301 0.95359 0.0085
vn 0.30125 0.95352 0.00685
vn 0.44521 -0.1319 -0.88566
vn 0.08866 -0.00154 -0.99606
vn 0.10547 -0.06309 -0.99242
vn -0.52915 0.84779 -0.03541
vn -0.56861 -0.02288 -0.82229
vn -0.5684 -0.01298 0.82265
vn -0.5292 -0.84805 -0.02742
vn -0.50824 0.07159 0.85824
vn 0.03216 0.99831 -0.04832
vn -0.40859 0.91221 0.03035
vn 0.94786 -0.3182 0.01755
vn 0.6468 0.75977 -0.06636
vn 0.41065 -0.06677 0.90934
vn 0.11639 0.09518 0.98863
vn 0.24657 0.96456 -0.094
vn 0.16523 0.98153 -0.0964
vn 0.14251 -0.9875 0.06737
vn 0.09558 0.01346 0.99533
vn 0.30444 0.94894 -0.08265
vn 0.30874 0.94751 -0.08308
vn -0.62169 -0.07629 -0.77954
vn 0.38347 -0.20039 -0.90155
vn 0.0188 -0.0807 -0.99656
vn 0.0404 -0.13779 -0.98964
vn -0.5234 -0.84302 0.12398
vn 0.03144 -0.85038 0.52522
vn 0.04389 -0.86382 -0.50188
vn -0.01564 -0.87121 -0.49066
vn 0.16102 0.76945 -0.61808
vn 0.12976 0.80533 0.57845
vn 0.05018 0.78831 -0.61323
vn -0.09044 -0.86118 0.50018
vn -0.03757 0.83844 0.54369
vn -0.04896 0.80478 -0.59155
vn 0.94948 0.17853 0.25809
vn 0.88272 -0.05276 0.46692
vn 0.99802 -0.06224 -0.00875
vn 0.92018 -0.2962 0.25598
vn 0.91699 -0.30442 -0.2578
vn 0.8753 -0.05195 -0.48078
vn 0.94732 0.18727 -0.25984
vn -0.08865 -0.86422 -0.49524
vn -0.51915 0.08483 0.85047
vn -0.6653 0.62008 0.41578
vn -0.7196 -0.607 0.33723
vn 0.06119 0.8023 0.59378
vn -0.15435 0.18135 0.97123
vn 0.74503 0.46661 0.47666
vn 0.0913 0.18188 0.97907
vn 0.04642 -0.87565 0.48071
vn -0.33857 -0.85903 0.38396
vn 0.71403 -0.67407 0.18919
vn 0.67755 -0.71527 -0.17118
vn -0.13032 -0.98213 -0.13581
vn -0.83875 -0.30154 0.45341
vn 0.01377 -0.90933 0.41584
vn 0.00115 0.24081 0.97057
vn -0.70342 -0.4662 -0.53652
vn 0.40346 -0.8613 0.30884
vn 0.36441 0.37748 0.8513
vn 0.3682 0.34175 0.86466
vn -0.73033 0.68196 0.03932
vn -0.61175 0.78993 -0.04207
vn 0.80301 0.5685 0.17885
vn 0.76058 -0.56174 -0.32552
vn -0.18879 0.87535 -0.4451
vn -0.26983 -0.31098 -0.91131
vn -0.93964 -0.31892 0.12393
vn -0.25865 -0.16206 0.95228
vn -0.63383 0.76374 0.1223
vn 0.08803 -0.01811 0.99595
vn -0.17983 0.98222 0.05382
vn -0.2386 0.9676 0.08264
vn -0.14519 -0.98936 -0.00913
vn 0.08835 -0.08449 0.9925
vn -0.28322 0.95482 0.09002
vn -0.28988 0.95313 0.08665
vn -0.52897 -0.09975 -0.84275
vn -0.20718 0.03956 -0.9775
vn -0.22216 -0.01021 -0.97496
vn 0.70529 -0.02481 0.70848
vn 0.42935 0.01505 -0.90301
vn 0.53274 0.84397 -0.06241
vn 0.54101 -0.8355 -0.09616
vn -0.9465 -0.31727 0.05895
vn -0.34233 -0.12757 0.93088
vn -0.64434 0.76396 0.03439
vn -0.04117 0.01275 0.99907
vn -0.16673 0.98576 -0.02197
vn -0.24252 0.9701 -0.00992
vn -0.14181 -0.98981 0.01315
vn -0.02864 -0.0386 0.99884
vn -0.30125 0.95352 0.00685
vn -0.301 0.95359 0.0085
vn -0.44521 -0.1319 -0.88566
vn -0.08866 -0.00154 -0.99606
vn -0.10546 -0.06309 -0.99242
vn 0.52915 0.84779 -0.03541
vn 0.5684 -0.01298 0.82265
vn 0.56861 -0.02288 -0.82229
vn 0.5292 -0.84805 -0.02742
vn 0.50824 0.07159 0.85824
vn 0.40859 0.91221 0.03035
vn -0.03216 0.99831 -0.04832
vn -0.94786 -0.3182 0.01755
vn -0.41066 -0.06677 0.90934
vn -0.6468 0.75977 -0.06636
vn -0.11639 0.09518 0.98863
vn -0.16523 0.98153 -0.0964
vn -0.24657 0.96456 -0.094
vn -0.14251 -0.9875 0.06737
vn -0.09558 0.01346 0.99533
vn -0.30874 0.94751 -0.08308
vn -0.30444 0.94894 -0.08265
vn 0.62169 -0.07629 -0.77954
vn -0.38348 -0.20039 -0.90155
vn -0.0188 -0.0807 -0.99656
vn -0.0404 -0.13779 -0.98964
vn 0.5234 -0.84302 0.12398
vn -0.03144 -0.85038 0.52522
vn 0.01564 -0.87121 -0.49066
vn -0.04389 -0.86382 -0.50188
vn -0.16102 0.76945 -0.61808
vn -0.05018 0.78831 -0.61323
vn -0.12976 0.80533 0.57845
vn 0.09044 -0.86118 0.50018
vn 0.04896 0.80478 -0.59155
vn 0.03757 0.83844 0.54369
vn -0.94948 0.17853 0.25809
vn -0.99802 -0.06224 -0.00875
vn -0.88272 -0.05276 0.46692
vn -0.92018 -0.2962 0.25598
vn -0.91699 -0.30442 -0.2578
vn -0.8753 -0.05195 -0.48078
vn -0.94732 0.18727 -0.25984
vn 0.08865 -0.86422 -0.49524
vn 0.52398 0.2757 0.80587
vn -0.52398 0.2757 0.80587
vn 0.80957 0.23904 0.53615
vn 0.77702 0.02447 -0.629
vn 0.68552 0.60287 -0.40817
vn 0.67464 0.62617 0.39087
vn 0.8452 0.05294 -0.53183
vn 0.84664 -0.00708 -0.53212
vn 0.82196 0.20459 0.53154
vn 0.81703 0.09121 0.56933
vn 0 0.26117 0.96529
vn -0 0.05387 0.99855
vn 0 0.35057 0.93654
vn -0 -0.04667 0.99891
vn 0.80249 0.02973 0.59593
vn 0.84602 0.07404 -0.52799
vn -0 -0.03502 -0.99939
vn -0 0.03065 -0.99953
vn 0 -0.14129 -0.98997
vn 0 -0.00168 -1
vn 0.02644 -0.03766 -0.99894
vn -0.01761 -0.10295 0.99453
vn -0.0264 -0.18555 0.98228
vn 0.01211 0.10835 -0.99404
vn -0.0182 -0.21944 0.97546
vn -0.72925 -0.41432 -0.54455
vn -0.74743 -0.52094 0.41229
vn 0.01348 -0.53078 0.84741
vn 0.82289 -0.35489 0.44374
vn 0.79939 -0.24847 -0.54703
vn 0.02673 -0.33921 -0.94033
vn -0.52104 -0.79617 -0.30762
vn -0.53819 -0.80049 0.26377
vn 0.05836 -0.79946 0.59788
vn 0.67831 -0.6757 0.28867
vn 0.66868 -0.67206 -0.31813
vn 0.06204 -0.7717 -0.63295
vn -0.66942 0.67006 -0.32077
vn -0.06979 0.73925 -0.6698
vn -0.05075 0.74126 -0.6693
vn -0.6114 0.68522 -0.3958
vn -0.07365 0.70468 0.70569
vn -0.66817 0.65644 0.35021
vn -0.58798 0.67239 0.44963
vn -0.05542 0.70662 0.70542
vn 0.50272 0.80264 -0.321
vn 0.49561 0.7893 0.36246
vn 0.44641 0.78712 0.42563
vn 0.47392 0.80329 -0.36074
vn 0 0.72392 -0.68988
vn 0 0.78731 0.61656
vn -0.80957 0.23904 0.53615
vn -0.67464 0.62617 0.39087
vn -0.68552 0.60287 -0.40817
vn -0.77702 0.02447 -0.62901
vn -0.8452 0.05294 -0.53183
vn -0.81703 0.09121 0.56933
vn -0.82196 0.20459 0.53154
vn -0.84664 -0.00708 -0.53212
vn -0.80249 0.02973 0.59593
vn -0.84602 0.07404 -0.52798
vn -0.02644 -0.03766 -0.99894
vn 0.01761 -0.10295 0.99453
vn 0.0264 -0.18555 0.98228
vn -0.01211 0.10835 -0.99404
vn 0.0182 -0.21944 0.97546
vn 0.74743 -0.52094 0.41229
vn 0.72925 -0.41432 -0.54455
vn -0.82289 -0.35489 0.44374
vn -0.01348 -0.53078 0.84741
vn -0.02673 -0.33921 -0.94033
vn -0.79939 -0.24847 -0.54703
vn 0.53819 -0.80049 0.26377
vn 0.52104 -0.79617 -0.30762
vn -0.67831 -0.6757 0.28867
vn -0.05836 -0.79946 0.59788
vn -0.06204 -0.7717 -0.63295
vn -0.66868 -0.67206 -0.31813
vn 0.66942 0.67006 -0.32077
vn 0.6114 0.68522 -0.39581
vn 0.05075 0.74126 -0.6693
vn 0.06979 0.73925 -0.6698
vn 0.07365 0.70468 0.70569
vn 0.05542 0.70662 0.70542
vn 0.58798 0.67239 0.44963
vn 0.66817 0.65644 0.35021
vn -0.50272 0.80264 -0.321
vn -0.47392 0.80329 -0.36074
vn -0.44641 0.78712 0.42563
vn -0.49561 0.7893 0.36246
vn -0.94849 0.27557 0.15629
vn -0.66716 0.24199 -0.70451
vn 0.60706 0.29427 -0.73816
vn 0.92691 0.3568 0.11635
vn 0 -0.23493 0.97201
vn 0.00597 0.83296 0.55329
vn 0 -1 -0
vn -0.64825 0.74244 0.16898
vn -2E-05 -0.99113 -0.13291
vn -0.53783 0.73829 -0.40702
vn 0.66716 0.24199 -0.70451
vn 0.94849 0.27557 0.15629
vn -0.92691 0.3568 0.11635
vn -0.60706 0.29427 -0.73816
vn -0.00597 0.83296 0.55329
vn 0.64825 0.74244 0.16898
vn 2E-05 -0.99113 -0.13291
vn 0.53783 0.73829 -0.40702
vn 0.69278 0.71587 -0.0871
vn 0.71091 0.54399 0.44573
vn 0.58959 0.38115 0.71211
vn -0 -0.73906 -0.67364
vn -0 -0.08543 -0.99634
vn 0.69351 0.5576 0.4562
vn 0.73207 0.57375 -0.36726
vn 0 0.69875 0.71537
vn 0 0.23774 0.97133
vn 0 0.15172 0.98842
vn 0 0.11812 0.993
vn 0.57806 -0.0775 0.8123
vn -0.22999 0.03189 0.97267
vn -0 -0.5923 -0.80572
vn -0 -0.13502 0.99084
vn -0.69278 0.71587 -0.0871
vn -0.58959 0.38115 0.71211
vn -0.71091 0.54399 0.44573
vn -0.69351 0.55761 0.4562
vn -0.73207 0.57375 -0.36726
vn -0.57806 -0.0775 0.8123
vn 0.22999 0.03189 0.97267
vn 0.258 0.96614 0
vn 0.258 0.96614 0
vn 0.129 0.96614 0.22344
vn 0.129 0.96614 0.22344
vn -0.129 0.96614 0.22344
vn -0.129 0.96614 0.22344
vn -0.258 0.96614 -0
vn -0.258 0.96614 -0
vn -0.129 0.96614 -0.22344
vn -0.129 0.96614 -0.22344
vn -0.47217 0.38339 0.79377
vn 0.46011 0.33446 0.82246
vn 0.48295 0.3201 0.81504
vn -0.45969 0.34715 0.81742
vn 0.129 0.96614 -0.22344
vn 0.129 0.96614 -0.22344
vn 0.95179 0.30676 0
vn 0.46011 0.33446 -0.82246
vn -0.47217 0.38339 -0.79377
vn -0.45969 0.34715 -0.81742
vn 0.48295 0.3201 -0.81504
vn 0.95129 0.30831 0
vn -0.91376 0.40624 -0
vn -0.93264 0.36081 0
vn 0.22674 0.9381 0.26184
vn -0.4142 0.39106 0.82189
vn 0.50288 0.34658 0.79183
vn 0.44053 0.34971 0.82682
vn -0.48685 0.39478 0.77918
vn 0.50492 0.34645 -0.79059
vn -0.42269 0.39164 -0.81728
vn -0.47872 0.3945 -0.78434
vn 0.44004 0.34974 -0.82707
vn 0.94586 0.3244 0.0106
vn 0.94588 0.32441 -0.00849
vn -0.90992 0.41477 0.00315
vn -0.90992 0.41477 0.00083
vn -0.54156 0.38979 0.74483
vn 0.41327 0.33863 0.8453
vn 0.52901 0.3321 0.78093
vn -0.39279 0.38232 0.83639
vn 0.40925 0.33874 -0.84721
vn -0.53544 0.38971 -0.74929
vn -0.39672 0.38265 -0.83438
vn 0.52703 0.33227 -0.7822
vn 0.95098 0.30917 -0.00716
vn 0.95098 0.30917 0.00654
vn -0.9116 0.41106 -0.00332
vn -0.91161 0.41106 -0.00099
vn -0.0026 0.18957 0.98186
vn -0.387 0.04663 -0.9209
vn -0.26861 0.04098 -0.96238
vn -0.34337 -0.61993 -0.70554
vn -0.22498 -0.62558 -0.74701
vn -0.62965 -0.15938 -0.76036
vn -0.32751 -0.30983 -0.8926
vn -0.32751 -0.30983 -0.8926
vn -0.32751 -0.30983 -0.8926
vn -0.0368 0.99932 0.00128
vn 0.73055 0.68284 -0.0053
vn -0.72272 0.68909 -0.0532
vn -0.49151 -0.68185 -0.54175
vn -0.5963 0.41335 -0.68816
vn -0.00854 0.5711 -0.82083
vn 0.06606 -0.72916 -0.68114
vn 0.62897 -0.57393 -0.5244
vn 0.59747 0.48473 -0.6388
vn 0.75155 -0.65549 -0.07419
vn 0.55533 -0.49329 -0.66953
vn -0.11986 -0.99141 -0.05235
vn -0.02866 -0.99889 -0.03741
vn -0.12755 -0.99183 0.00315
vn -0.00394 -0.99992 -0.01191
vn -0.12672 -0.9894 0.07089
vn -0.01106 -0.99826 0.05787
vn -0.18807 -0.10736 -0.97627
vn 0.0632 -0.14288 -0.98772
vn -0.15921 -0.85939 -0.48591
vn -0.17259 -0.83273 0.52609
vn 0.03042 -0.0653 0.9974
vn -0.19741 -0.05789 0.97861
vn -0.11856 0.80248 0.58479
vn -0.11843 0.80022 -0.5879
vn 0.00932 -0.14624 -0.98921
vn -0.05915 -0.09873 -0.99335
vn -0.061 -0.04008 0.99733
vn 0.36375 0.80496 0.46874
vn 0.36402 0.78995 -0.49342
vn 0.25844 -0.83992 0.47722
vn 0.28897 -0.03772 0.95659
vn 0.30454 -0.07365 -0.94965
vn 0.25984 -0.84118 -0.47423
vn 0.79985 0.45631 -0.38991
vn 0.71254 -0.06027 -0.69903
vn 0.70858 -0.04532 0.70417
vn 0.78949 0.46905 0.39585
vn 0.68974 -0.63355 -0.35053
vn 0.68974 -0.63355 0.35053
vn -0.62635 -0.65502 0.42266
vn -0.62635 -0.65502 -0.42266
vn -0.62359 -0.60904 -0.49012
vn -0.62359 -0.60904 0.49011
vn -0.60352 0.63751 -0.47889
vn -0.60423 0.63887 0.47619
vn -0.60864 0.65794 0.44348
vn -0.60827 0.65804 -0.44383
vn -0.53525 0.02088 0.84444
vn -0.53585 0.01465 0.84418
vn -0.53515 0.0208 -0.8445
vn -0.53576 0.01457 -0.84425
vn -0.47275 0.69915 0.53638
vn -0.45352 -0.04442 0.89014
vn -0.48 0.70878 -0.51694
vn -0.45199 -0.72727 0.51651
vn -0.43716 -0.75628 -0.48677
vn -0.46946 -0.08562 -0.87879
vn 0.0368 0.99932 0.00128
vn -0.73055 0.68284 -0.0053
vn 0.72272 0.68909 -0.0532
vn 0.49151 -0.68185 -0.54175
vn 0.5963 0.41335 -0.68816
vn -0.06606 -0.72916 -0.68114
vn 0.00854 0.5711 -0.82083
vn -0.62897 -0.57393 -0.5244
vn -0.59747 0.48473 -0.6388
vn -0.75155 -0.65549 -0.07419
vn -0.55533 -0.49329 -0.66953
vn 0.11986 -0.99141 -0.05235
vn 0.02866 -0.99889 -0.03741
vn 0.12755 -0.99183 0.00315
vn 0.00394 -0.99992 -0.01191
vn 0.12672 -0.9894 0.07089
vn 0.01106 -0.99826 0.05787
vn 0.18807 -0.10736 -0.97627
vn 0.15921 -0.85939 -0.48591
vn -0.0632 -0.14288 -0.98772
vn 0.17259 -0.83273 0.52609
vn 0.19741 -0.05789 0.97861
vn -0.03042 -0.0653 0.9974
vn 0.11856 0.80248 0.58479
vn 0.11843 0.80022 -0.5879
vn -0.00932 -0.14624 -0.98921
vn 0.05915 -0.09873 -0.99335
vn 0.061 -0.04008 0.99733
vn -0.36402 0.78995 -0.49342
vn -0.36375 0.80496 0.46874
vn -0.28897 -0.03772 0.95659
vn -0.25844 -0.83992 0.47722
vn -0.25984 -0.84118 -0.47423
vn -0.30454 -0.07365 -0.94965
vn -0.71254 -0.06027 -0.69903
vn -0.79985 0.45631 -0.38991
vn -0.78949 0.46905 0.39585
vn -0.70858 -0.04532 0.70417
vn -0.68974 -0.63355 0.35053
vn -0.68974 -0.63355 -0.35053
vn 0.62635 -0.65502 0.42266
vn 0.62359 -0.60904 0.49011
vn 0.62359 -0.60904 -0.49012
vn 0.62635 -0.65502 -0.42266
vn 0.60352 0.63751 -0.47889
vn 0.60827 0.65804 -0.44383
vn 0.60864 0.65794 0.44348
vn 0.60423 0.63887 0.47619
vn 0.53525 0.02088 0.84444
vn 0.53585 0.01465 0.84419
vn 0.53576 0.01457 -0.84425
vn 0.53515 0.0208 -0.8445
vn 0.45352 -0.04442 0.89014
vn 0.47275 0.69915 0.53638
vn 0.48 0.70878 -0.51694
vn 0.45199 -0.72727 0.51651
vn 0.43716 -0.75628 -0.48677
vn 0.46946 -0.08562 -0.87879
vt 0.25157 0.49806
vt 0.26259 0.48649
vt 0.25364 0.53655
vt 0.43188 0.48732
vt 0.44613 0.54253
vt 0.43116 0.54943
vt 0.27371 0.54908
vt 0.26164 0.5746
vt 0.286 0.78764
vt 0.28639 0.78423
vt 0.3676 0.78285
vt 0.44617 0.78999
vt 0.3634 0.79725
vt 0.36436 0.78878
vt 0.44656 0.78648
vt 0.44091 0.50282
vt 0.44697 0.57701
vt 0.25448 0.25749
vt 0.24642 0.32896
vt 0.31887 0.31888
vt 0.43997 0.26237
vt 0.44158 0.26766
vt 0.44233 0.32507
vt 0.24544 0.33762
vt 0.25378 0.26371
vt 0.35156 0.33028
vt 0.21902 0.49301
vt 0.21841 0.53155
vt 0.20756 0.48185
vt 0.02297 0.48195
vt 0.02406 0.54405
vt 0.00904 0.53721
vt 0.21187 0.56986
vt 0.19883 0.54479
vt 0.18087 0.78176
vt 0.09925 0.77725
vt 0.18047 0.77835
vt 0.01043 0.78466
vt 0.10353 0.79163
vt 0.10252 0.78317
vt 0.01001 0.78115
vt 0.01403 0.49748
vt 0.0084 0.57169
vt 0.20934 0.2644
vt 0.14531 0.32601
vt 0.21782 0.33584
vt 0.01359 0.26992
vt 0.01201 0.27521
vt 0.01159 0.33263
vt 0.21884 0.3445
vt 0.11268 0.33752
vt 0.21008 0.27062
vt 0.4414 0.48393
vt 0.3486 0.26032
vt 0.2561 0.48406
vt 0.20869 0.48406
vt 0.11619 0.26032
vt 0.02339 0.48393
vt 0.20869 0.48406
vt 0.11619 0.26032
vt 0.02339 0.48393
vt 0.11619 0.26032
vt 0.11619 0.26032
vt 0.4414 0.48393
vt 0.3486 0.26032
vt 0.3486 0.26032
vt 0.3486 0.26032
vt 0.2561 0.48406
vt 0.09339 0.92874
vt 0.10843 0.98294
vt 0.01864 0.98538
vt 0.10847 0.98293
vt 0.01864 0.8697
vt 0.07261 0.85386
vt 0.25701 0.96923
vt 0.35708 0.98538
vt 0.26091 0.98538
vt 0.31465 0.8132
vt 0.2399 0.81249
vt 0.27879 0.81155
vt 0.34748 0.46572
vt 0.39318 0.4308
vt 0.33002 0.4308
vt 0.29098 0.4308
vt 0.40398 0.3743
vt 0.36493 0.3743
vt 0.30177 0.3743
vt 0.34748 0.33939
vt 0.34748 0.46572
vt 0.40398 0.3743
vt 0.36493 0.3743
vt 0.30177 0.3743
vt 0.34748 0.33939
vt 0.34748 0.46572
vt 0.39318 0.4308
vt 0.33002 0.4308
vt 0.29098 0.4308
vt 0.83088 0.71033
vt 0.83575 0.79503
vt 0.99417 0.70435
vt 0.65206 0.64349
vt 0.65803 0.62202
vt 0.7156 0.62025
vt 0.73247 0.56865
vt 0.8282 0.50977
vt 0.73247 0.51794
vt 0.97997 0.334
vt 0.87017 0.32718
vt 0.88105 0.41337
vt 0.73247 0.59305
vt 0.73247 0.53814
vt 0.85658 0.5552
vt 0.01539 0.91713
vt 0.02856 0.93283
vt 0.02375 0.91713
vt 0.0308 0.91713
vt 0.80709 0.79901
vt 0.89887 0.48804
vt 0.9088 0.39666
vt 0.96447 0.40337
vt 0.81261 0.6448
vt 0.82561 0.62624
vt 0.80306 0.71962
vt 0.83088 0.71033
vt 0.7156 0.62025
vt 0.63674 0.50977
vt 0.48496 0.334
vt 0.58388 0.41337
vt 0.59476 0.32718
vt 0.60835 0.5552
vt 0.02856 0.90143
vt 0.80709 0.79901
vt 0.81261 0.6448
vt 0.82561 0.62624
vt 0.55469 0.78696
vt 0.62661 0.7574
vt 0.52721 0.7574
vt 0.46578 0.7574
vt 0.64359 0.6685
vt 0.58216 0.6685
vt 0.48276 0.6685
vt 0.53652 0.73913
vt 0.50331 0.73913
vt 0.52167 0.70942
vt 0.48846 0.70942
vt 0.5422 0.70942
vt 0.55469 0.62039
vt 0.51249 0.69335
vt 0.67865 0.98863
vt 0.67865 0.94988
vt 0.69074 0.91113
vt 0.73316 0.88326
vt 0.71753 0.88259
vt 0.73388 0.81736
vt 0.70971 0.88226
vt 0.74098 0.88359
vt 0.67865 0.87238
vt 0.67865 0.83363
vt 0.67865 0.94988
vt 0.54042 0.85163
vt 0.47302 0.85163
vt 0.50997 0.93895
vt 0.54042 0.97156
vt 0.47302 0.97156
vt 0.3985 0.90559
vt 0.38008 0.84042
vt 0.41647 0.81299
vt 0.39849 0.9057
vt 0.3799 0.84058
vt 0.41621 0.81305
vt 0.39849 0.9057
vt 0.3799 0.84058
vt 0.38008 0.84042
vt 0.98337 0.82195
vt 0.9869 0.84544
vt 0.99085 0.84609
vt 0.91089 0.83237
vt 0.80618 0.84696
vt 0.91198 0.81268
vt 0.87666 0.81016
vt 0.85697 0.82605
vt 0.82732 0.85823
vt 0.87224 0.82376
vt 0.82926 0.92082
vt 0.87206 0.91142
vt 0.9832 0.87062
vt 0.98126 0.8858
vt 0.97277 0.87954
vt 0.96577 0.85921
vt 0.90839 0.89246
vt 0.93774 0.89473
vt 0.91619 0.89988
vt 0.97352 0.86408
vt 0.91279 0.8673
vt 0.82978 0.907
vt 0.82496 0.85301
vt 0.81335 0.90254
vt 0.81609 0.84918
vt 0.99875 0.87972
vt 0.99372 0.88034
vt 0.99022 0.89862
vt 0.87883 0.90653
vt 0.91453 0.87967
vt 0.88529 0.87864
vt 0.98539 0.87922
vt 0.93773 0.90264
vt 0.96433 0.88043
vt 0.9446 0.8803
vt 0.98852 0.86088
vt 0.87926 0.849
vt 0.93676 0.85497
vt 0.82907 0.9075
vt 0.80902 0.88473
vt 0.83252 0.84504
vt 0.83077 0.87668
vt 0.99788 0.87995
vt 0.99303 0.87973
vt 0.98859 0.89765
vt 0.88134 0.90496
vt 0.9207 0.87711
vt 0.88831 0.87653
vt 0.98516 0.87926
vt 0.93814 0.89998
vt 0.96541 0.87858
vt 0.94653 0.8781
vt 0.98926 0.86131
vt 0.88096 0.84986
vt 0.93951 0.85524
vt 0.80582 0.88123
vt 0.82511 0.84759
vt 0.8278 0.91146
vt 0.82636 0.87719
vt 0.83906 0.91031
vt 0.81448 0.87537
vt 0.99322 0.88183
vt 0.98877 0.88025
vt 0.98411 0.89813
vt 0.8848 0.90308
vt 0.9177 0.87536
vt 0.89143 0.87434
vt 0.98127 0.88196
vt 0.9354 0.9004
vt 0.96149 0.8782
vt 0.94439 0.8771
vt 0.83589 0.84804
vt 0.9856 0.86418
vt 0.88767 0.85104
vt 0.93677 0.85702
vt 0.80566 0.87617
vt 0.82708 0.84885
vt 0.83025 0.91112
vt 0.82896 0.88584
vt 0.18766 0.36225
vt 0.1874 0.32121
vt 0.05852 0.37137
vt 0.05905 0.37261
vt 0.06045 0.32965
vt 0.18575 0.27869
vt 0.05978 0.28687
vt 0.05929 0.28671
vt 0.1938 0.04863
vt 0.11498 0.06309
vt 0.11073 0.0133
vt 0.02835 0.05169
vt 0.51652 0.76343
vt 0.59175 0.76343
vt 0.59175 0.72454
vt 0.41947 0.16458
vt 0.41947 0.16344
vt 0.41404 0.0275
vt 0.41404 0.0275
vt 0.44681 0.38339
vt 0.43093 0.26114
vt 0.42632 0.25841
vt 0.44266 0.38207
vt 0.25101 0.24702
vt 0.25101 0.38216
vt 0.25101 0.15365
vt 0.25101 0.50066
vt 0.45477 0.49065
vt 0.45718 0.4974
vt 0.25101 0.37647
vt 0.25101 0.50884
vt 0.25101 0.26016
vt 0.25101 0.15967
vt 0.35325 0.47894
vt 0.34428 0.49018
vt 0.34565 0.54027
vt 0.35566 0.54354
vt 0.35036 0.59054
vt 0.28937 0.71292
vt 0.28903 0.71594
vt 0.35778 0.72448
vt 0.43128 0.71803
vt 0.43163 0.71491
vt 0.35862 0.71696
vt 0.32619 0.74533
vt 0.32602 0.74688
vt 0.36139 0.75128
vt 0.39922 0.74796
vt 0.3994 0.74635
vt 0.36183 0.74741
vt 0.25101 0.00835
vt 0.25101 0.01017
vt 0.04649 0.16458
vt 0.05192 0.0275
vt 0.05192 0.0275
vt 0.04649 0.16344
vt 0.01916 0.38339
vt 0.0233 0.38207
vt 0.03965 0.25841
vt 0.03504 0.26114
vt 0.21496 0.38216
vt 0.21496 0.24702
vt 0.21496 0.15365
vt 0.0112 0.49065
vt 0.21496 0.50066
vt 0.00878 0.4974
vt 0.21496 0.37647
vt 0.21496 0.50884
vt 0.21496 0.26016
vt 0.21496 0.15967
vt 0.11185 0.47329
vt 0.12089 0.48451
vt 0.11981 0.5346
vt 0.10981 0.5379
vt 0.11538 0.58489
vt 0.17743 0.71007
vt 0.17707 0.70705
vt 0.0249 0.71266
vt 0.10874 0.71885
vt 0.10784 0.71133
vt 0.02453 0.70954
vt 0.14062 0.74114
vt 0.14044 0.73959
vt 0.05713 0.74247
vt 0.10527 0.74566
vt 0.10481 0.74179
vt 0.05694 0.74087
vt 0.21496 0.00835
vt 0.21496 0.01017
vt 0.24146 0.89237
vt 0.3516 0.8778
vt 0.35175 0.87765
vt 0.24111 0.89259
vt 0.20725 0.82172
vt 0.27879 0.81149
vt 0.31418 0.81462
vt 0.90744 0.22572
vt 0.85926 0.07199
vt 0.83833 0.10341
vt 0.85893 0.22868
vt 0.65803 0.79035
vt 0.65803 0.71962
vt 0.97338 0.25504
vt 0.98767 0.24766
vt 0.98357 0.37003
vt 0.94213 0.35878
vt 0.73247 0.06288
vt 0.73247 0.2318
vt 0.73247 0.01816
vt 0.73247 0.31418
vt 0.73247 0.42511
vt 0.827 0.42857
vt 0.92484 0.44621
vt 0.99403 0.34249
vt 0.73916 0.72977
vt 0.74644 0.78633
vt 0.83771 0.50149
vt 0.86702 0.43501
vt 0.73247 0.44886
vt 0.83647 0.56907
vt 0.80601 0.55004
vt 0.55749 0.22572
vt 0.60601 0.22868
vt 0.6266 0.10341
vt 0.60567 0.07199
vt 0.49156 0.25504
vt 0.47726 0.24766
vt 0.94213 0.35878
vt 0.63794 0.42857
vt 0.4709 0.34249
vt 0.5401 0.44621
vt 0.73916 0.72977
vt 0.74644 0.78633
vt 0.83647 0.56907
vt 0.77443 0.98943
vt 0.74488 0.98154
vt 0.73502 0.98154
vt 0.74979 0.98943
vt 0.71531 0.98154
vt 0.70053 0.98943
vt 0.70545 0.98154
vt 0.6759 0.98943
vt 0.69589 0.98641
vt 0.74809 0.98641
vt 0.74087 0.9317
vt 0.70969 0.9317
vt 0.74979 0.98943
vt 0.75645 0.9317
vt 0.77419 0.98641
vt 0.66979 0.98641
vt 0.69411 0.9317
vt 0.47302 0.85163
vt 0.47302 0.97156
vt 0.54042 0.97156
vt 0.47092 0.8731
vt 0.47092 0.93775
vt 0.54149 0.92881
vt 0.54149 0.8902
vt 0.47092 0.97007
vt 0.54149 0.94811
vt 0.47092 0.84078
vt 0.54149 0.8709
vt 0.63535 0.93963
vt 0.63535 0.87912
vt 0.56428 0.88749
vt 0.56428 0.92362
vt 0.63535 0.84887
vt 0.56428 0.86942
vt 0.63535 0.96988
vt 0.56428 0.94169
vt 0.4389 0.90599
vt 0.45273 0.84114
vt 0.4389 0.90599
vt 0.45255 0.8411
vt 0.4389 0.90599
vt 0.45255 0.8411
vt 0.41406 0.9244
vt 0.44063 0.93974
vt 0.44063 0.97041
vt 0.3875 0.93974
vt 0.41406 0.98575
vt 0.3875 0.97041
vt 0.90556 0.90999
vt 0.99149 0.91349
vt 0.8027 0.90626
vt 0.81727 0.97309
vt 0.81105 0.92082
vt 0.81552 0.97995
vt 0.9048 0.99593
vt 0.90525 0.98466
vt 0.98443 0.97841
vt 0.98367 0.98725
vt 0.98975 0.91344
vt 0.80652 0.85823
vt 0.86955 0.98466
vt 0.90342 0.97841
vt 0.90569 0.91344
vt 0.90448 0.84544
vt 0.91154 0.82376
vt 0.83192 0.97309
vt 0.87585 0.82605
vt 0.82206 0.9031
vt 0.81984 0.85678
vt 0.80915 0.85621
vt 0.80672 0.90204
vt 0.91017 0.85923
vt 0.84261 0.84814
vt 0.8515 0.85762
vt 0.82781 0.88949
vt 0.84486 0.9049
vt 0.93482 0.87811
vt 0.87734 0.87708
vt 0.82101 0.9081
vt 0.82076 0.87786
vt 0.82076 0.87796
vt 0.8205 0.84684
vt 0.93708 0.87798
vt 0.87864 0.87668
vt 0.81873 0.91022
vt 0.81783 0.87627
vt 0.81782 0.87617
vt 0.81704 0.84696
vt 0.93367 0.87993
vt 0.88271 0.87842
vt 0.8226 0.90907
vt 0.82248 0.88415
vt 0.82242 0.87228
vt 0.82229 0.84767
vt 0.126 0.50594
vt 0.12669 0.36535
vt 0.21132 0.50291
vt 0.0293 0.5077
vt 0.12642 0.32431
vt 0.12384 0.2858
vt 0.12478 0.28179
vt 0.03859 0.14285
vt 0.0382 0.14456
vt 0.19993 0.14182
vt 0.12325 0.14259
vt 0.09414 0.10991
vt 0.12267 0.10848
vt 0.09384 0.10993
vt 0.16319 0.11071
vt 0.15366 0.02195
vt 0.1938 0.08678
vt 0.0821 0.02278
vt 0.08179 0.02277
vt 0.02835 0.08983
vt 0.11167 0.02427
vt 0.11498 0.10124
vt 0.05741 0.57409
vt 0.12356 0.60067
vt 0.18758 0.57569
usemtl mat0
f 1/1/1 2/2/2 3/3/3
f 4/4/4 5/5/5 6/6/6
f 3/3/3 7/7/7 8/8/8
f 9/9/9 10/10/10 11/11/11
f 12/12/12 13/13/13 11/11/11
f 14/14/14 15/15/15 11/11/11
f 10/10/10 14/14/14 11/11/11
f 13/13/13 9/9/9 11/11/11
f 15/15/15 12/12/12 11/11/11
f 5/5/5 4/4/4 16/16/16
f 6/6/6 5/5/5 17/17/17
f 7/7/7 3/3/3 2/2/2
f 18/18/18 19/19/19 20/20/20
f 21/21/21 18/18/18 20/20/20
f 22/22/22 21/21/21 23/23/23
f 24/24/24 25/25/25 26/26/26
f 27/27/27 28/28/28 29/29/29
f 30/30/30 31/31/31 32/32/32
f 28/28/28 33/33/33 34/34/34
f 35/35/35 36/36/36 37/37/37
f 38/38/38 36/36/36 39/39/39
f 40/40/40 36/36/36 41/41/41
f 37/37/37 36/36/36 40/40/40
f 39/39/39 36/36/36 35/35/35
f 41/41/41 36/36/36 38/38/38
f 32/32/32 42/42/42 30/30/30
f 31/31/31 43/43/43 32/32/32
f 34/34/34 29/29/29 28/28/28
f 44/44/18 45/45/44 46/46/19
f 47/47/45 45/45/44 44/44/18
f 48/48/46 49/49/47 47/47/45
f 50/50/24 51/51/48 52/52/25
f 53/53/49 54/54/49 55/55/49
f 56/56/50 57/57/50 58/58/50
f 59/59/51 60/60/51 61/61/51
f 62/56/52 63/62/52 64/61/52
f 65/56/53 66/63/53 67/61/53
f 68/64/54 69/65/54 70/55/54
f 71/64/55 72/66/55 73/55/55
f 74/64/56 75/67/56 76/68/56
f 56/56/57 58/58/58 77/57/59
f 59/59/60 61/61/61 78/60/59
f 62/56/62 64/61/63 79/62/59
f 65/56/64 67/61/65 80/63/59
f 68/64/65 70/55/57 81/65/59
f 71/64/58 73/55/60 82/66/59
f 74/64/61 76/68/62 83/67/59
f 53/53/63 55/55/64 84/54/59
f 85/69/66 86/70/67 87/71/68
f 88/72/69 89/69/70 90/71/71
f 85/69/66 87/71/68 91/73/72
f 92/74/73 85/69/66 91/73/72
f 90/71/71 89/69/70 91/73/72
f 93/75/74 94/76/75 95/77/76
f 96/76/77 97/75/78 98/77/79
f 89/69/70 92/74/73 91/73/72
f 87/71/68 90/71/71 91/73/72
f 99/78/80 100/79/81 101/80/82
f 102/69/83 103/71/84 104/70/85
f 105/72/86 106/71/87 107/69/88
f 102/69/83 108/73/89 103/71/84
f 109/74/90 108/73/89 102/69/83
f 106/71/87 108/73/89 107/69/88
f 110/75/91 111/77/92 112/76/93
f 113/76/94 114/77/95 115/75/96
f 107/69/88 108/73/89 109/74/90
f 103/71/84 108/73/89 106/71/87
f 116/78/97 117/80/98 118/79/99
f 119/81/100 120/82/101 121/83/102
f 120/82/101 119/81/100 122/82/103
f 119/81/100 121/83/102 123/84/104
f 119/81/100 123/84/104 124/83/105
f 119/81/100 124/83/105 122/82/103
f 120/82/101 122/82/103 125/85/106
f 121/83/102 120/82/101 126/86/107
f 123/84/104 121/83/102 127/87/108
f 124/83/105 123/84/104 128/87/109
f 122/82/103 124/83/105 129/86/110
f 120/82/101 125/85/106 126/86/107
f 121/83/102 126/86/107 127/87/108
f 123/84/104 127/87/108 128/87/109
f 124/83/105 128/87/109 129/86/110
f 122/82/103 129/86/110 125/85/106
f 126/86/107 125/85/106 130/88/111
f 127/87/108 126/86/107 130/88/111
f 128/87/109 127/87/108 130/88/111
f 129/86/110 128/87/109 130/88/111
f 125/85/106 129/86/110 130/88/111
f 131/89/112 132/82/113 133/83/114
f 132/82/113 131/89/112 134/82/115
f 131/89/112 133/83/114 135/84/116
f 131/89/112 135/84/116 136/83/117
f 131/89/112 136/83/117 134/82/115
f 132/82/113 134/82/115 137/90/118
f 133/83/114 132/82/113 138/91/119
f 135/84/116 133/83/114 139/92/120
f 136/83/117 135/84/116 140/92/121
f 134/82/115 136/83/117 141/91/122
f 132/82/113 137/90/118 138/91/119
f 133/83/114 138/91/119 139/92/120
f 135/84/116 139/92/120 140/92/121
f 136/83/117 140/92/121 141/91/122
f 134/82/115 141/91/122 137/90/118
f 138/91/119 137/90/118 142/93/123
f 139/92/120 138/91/119 142/93/123
f 140/92/121 139/92/120 142/93/123
f 141/91/122 140/92/121 142/93/123
f 137/90/118 141/91/122 142/93/123
f 143/94/124 144/95/125 145/96/126
f 144/95/125 143/94/124 146/95/127
f 143/94/124 145/96/126 147/97/128
f 143/94/124 147/97/128 148/96/129
f 143/94/124 148/96/129 146/95/127
f 144/95/125 146/95/127 149/90/130
f 145/96/126 144/95/125 150/91/131
f 147/97/128 145/96/126 151/92/132
f 148/96/129 147/97/128 152/92/133
f 146/95/127 148/96/129 153/91/134
f 144/95/125 149/90/130 150/91/131
f 145/96/126 150/91/131 151/92/132
f 147/97/128 151/92/132 152/92/133
f 148/96/129 152/92/133 153/91/134
f 146/95/127 153/91/134 149/90/130
f 150/91/131 149/90/130 154/88/135
f 151/92/132 150/91/131 154/88/135
f 152/92/133 151/92/132 154/88/135
f 153/91/134 152/92/133 154/88/135
f 149/90/130 153/91/134 154/88/135
f 155/98/136 156/99/137 157/100/138
f 158/101/139 159/102/140 160/103/141
f 161/104/142 162/105/143 163/106/144
f 164/107/145 165/108/146 166/109/147
f 167/110/148 168/111/149 169/112/150
f 170/113/151 171/114/152 172/115/153
f 171/114/152 173/116/154 172/115/153
f 156/99/137 174/117/155 157/100/138
f 175/118/156 176/119/157 177/120/158
f 178/121/159 179/122/160 157/100/138
f 179/122/160 155/98/136 157/100/138
f 174/117/155 180/123/161 157/100/138
f 180/123/161 178/121/159 157/100/138
f 181/124/162 182/100/163 183/99/164
f 158/101/139 184/125/165 159/102/140
f 161/104/142 163/106/144 185/126/166
f 186/127/167 187/128/168 188/129/169
f 167/110/148 189/130/170 168/111/149
f 170/113/151 172/115/153 190/131/171
f 190/131/171 172/115/153 173/116/154
f 183/99/164 182/100/163 191/132/172
f 192/118/173 193/120/174 194/119/175
f 195/133/176 182/100/163 196/134/177
f 196/134/177 182/100/163 181/124/162
f 191/132/172 182/100/163 197/123/178
f 197/123/178 182/100/163 195/133/176
f 198/135/179 199/136/180 200/137/181
f 199/136/180 198/135/179 201/136/182
f 198/135/179 200/137/181 202/138/183
f 198/135/179 202/138/183 203/137/184
f 198/135/179 203/137/184 201/136/182
f 199/136/180 201/136/182 204/139/185
f 200/137/181 199/136/180 205/140/186
f 202/138/183 200/137/181 206/141/187
f 203/137/184 202/138/183 207/141/188
f 208/142/182 209/143/184 210/144/189
f 199/136/180 204/139/185 205/140/186
f 200/137/181 205/140/186 206/141/187
f 202/138/183 206/141/187 207/141/188
f 209/143/184 211/145/188 210/144/189
f 208/142/182 210/144/189 212/146/185
f 205/140/186 204/139/185 213/147/190
f 206/141/187 205/140/186 213/147/190
f 207/141/188 206/141/187 213/147/190
f 210/144/189 211/145/188 214/148/190
f 212/146/185 210/144/189 214/148/190
f 215/149/191 216/150/192 217/151/193
f 218/152/194 219/153/195 220/154/196
f 221/155/197 222/153/198 220/154/196
f 223/152/199 224/156/200 220/154/196
f 224/156/200 218/152/194 220/154/196
f 219/153/195 221/155/197 220/154/196
f 222/153/198 223/152/199 220/154/196
f 225/157/201 226/158/202 217/151/193
f 227/159/203 215/149/191 217/151/193
f 226/158/202 228/157/204 217/151/193
f 216/150/192 225/157/201 217/151/193
f 228/157/204 227/159/203 217/151/193
f 229/160/205 230/161/205 231/162/205
f 231/162/206 232/163/206 229/160/206
f 231/162/207 230/161/207 233/164/207
f 234/165/208 235/166/209 236/167/210
f 237/168/211 238/169/212 239/170/213
f 240/168/214 241/170/215 242/169/216
f 243/171/217 244/170/218 245/169/219
f 246/171/220 247/172/221 248/170/222
f 249/165/223 250/173/224 251/167/225
f 252/174/226 253/175/227 254/176/228
f 255/177/229 256/178/230 257/179/231
f 257/179/231 256/178/230 258/180/232
f 259/181/233 260/182/234 261/183/235
f 262/184/236 263/185/237 261/183/235
f 261/183/235 260/182/234 262/184/236
f 264/186/238 265/187/239 266/188/240
f 267/189/241 264/186/238 266/188/240
f 268/190/242 269/191/243 270/192/244
f 264/186/238 271/193/245 265/187/239
f 267/189/241 271/193/245 264/186/238
f 272/194/246 270/192/244 269/191/243
f 273/195/247 274/196/248 275/197/249
f 276/198/250 275/197/249 274/196/248
f 277/199/251 278/200/252 279/201/253
f 280/202/254 281/203/255 282/204/256
f 283/205/257 277/199/251 279/201/253
f 284/206/258 285/207/259 286/208/260
f 277/199/251 287/209/261 278/200/252
f 288/210/262 282/204/256 281/203/255
f 283/205/257 287/209/261 277/199/251
f 289/211/263 286/208/260 285/207/259
f 290/212/264 291/213/265 292/214/266
f 290/212/264 292/214/266 293/215/267
f 294/216/268 295/217/269 296/218/270
f 297/219/271 298/220/272 299/221/273
f 300/222/274 294/216/268 296/218/270
f 301/223/275 302/224/276 303/225/277
f 294/216/268 304/226/278 295/217/269
f 305/227/279 299/221/273 298/220/272
f 300/222/274 304/226/278 294/216/268
f 306/228/280 303/225/277 302/224/276
f 307/229/281 308/230/282 309/231/283
f 309/231/283 308/230/282 310/232/284
f 311/233/285 312/234/286 312/234/287
f 313/235/288 314/236/289 315/237/290
f 316/238/291 317/239/292 318/240/293
f 319/241/294 313/235/288 315/237/290
f 320/242/295 321/243/296 322/244/297
f 323/245/298 312/234/287 312/234/286
f 313/235/288 324/246/299 314/236/289
f 325/247/300 318/240/293 317/239/292
f 319/241/294 324/246/299 313/235/288
f 326/248/301 322/244/297 321/243/296
f 327/249/287 328/250/298 329/251/285
f 328/250/298 330/252/302 329/251/285
f 331/253/303 332/253/304 333/254/305
f 334/255/306 335/256/307 336/257/308
f 331/253/303 333/254/305 337/258/309
f 336/257/308 338/259/310 339/260/311
f 340/261/312 341/262/313 342/263/314
f 341/262/313 343/264/315 342/263/314
f 344/264/316 345/262/317 342/263/314
f 346/261/318 340/261/312 342/263/314
f 343/264/315 344/264/316 342/263/314
f 345/262/317 346/261/318 342/263/314
f 338/259/310 336/257/308 335/256/307
f 337/258/309 333/254/305 347/258/319
f 348/174/320 349/176/321 350/175/322
f 351/177/323 352/179/324 353/178/325
f 352/179/324 354/180/326 353/178/325
f 355/181/327 356/183/328 357/182/329
f 358/184/330 356/183/328 359/185/331
f 356/183/328 358/184/330 357/182/329
f 360/186/332 361/188/333 362/187/334
f 363/189/335 361/188/333 360/186/332
f 364/190/336 365/192/337 366/191/338
f 360/186/332 362/187/334 367/193/339
f 363/189/335 360/186/332 367/193/339
f 368/194/340 366/191/338 365/192/337
f 369/195/341 370/197/342 371/196/343
f 372/198/344 371/196/343 370/197/342
f 373/199/345 374/201/346 375/200/347
f 376/202/348 377/204/349 378/203/350
f 379/205/351 374/201/346 373/199/345
f 380/206/352 381/208/353 382/207/354
f 373/199/345 375/200/347 383/209/355
f 384/210/356 378/203/350 377/204/349
f 379/205/351 373/199/345 383/209/355
f 385/211/357 382/207/354 381/208/353
f 386/212/358 387/214/359 388/213/360
f 386/212/358 389/215/361 387/214/359
f 390/216/362 391/218/363 392/217/364
f 393/219/365 394/221/366 395/220/367
f 396/222/368 391/218/363 390/216/362
f 397/223/369 398/225/370 399/224/371
f 390/216/362 392/217/364 400/226/372
f 401/227/373 395/220/367 394/221/366
f 396/222/368 390/216/362 400/226/372
f 402/228/374 399/224/371 398/225/370
f 403/229/375 404/231/376 405/230/377
f 404/231/376 406/232/378 405/230/377
f 407/233/379 408/234/380 408/234/381
f 409/235/382 410/237/383 411/236/384
f 412/238/385 413/240/386 414/239/387
f 415/241/388 410/237/383 409/235/382
f 416/242/389 417/244/390 418/243/391
f 419/245/392 408/234/381 408/234/380
f 409/235/382 411/236/384 420/246/393
f 421/247/394 414/239/387 413/240/386
f 415/241/388 409/235/382 420/246/393
f 422/248/395 418/243/391 417/244/390
f 423/249/380 424/251/379 425/250/392
f 425/250/392 424/251/379 426/252/396
f 427/253/397 428/254/398 429/253/399
f 430/255/400 431/257/401 432/256/402
f 427/253/397 433/258/403 428/254/398
f 431/257/401 434/260/404 435/259/405
f 436/261/406 437/263/407 438/262/408
f 438/262/408 437/263/407 439/264/409
f 440/264/410 437/263/407 441/262/411
f 442/261/412 437/263/407 436/261/406
f 439/264/409 437/263/407 440/264/410
f 441/262/411 437/263/407 442/261/412
f 435/259/405 432/256/402 431/257/401
f 433/258/403 443/258/413 428/254/398
f 444/265/414 445/266/414 446/267/414
f 447/265/415 448/267/415 449/266/415
f 450/268/416 451/269/417 452/270/418
f 450/268/416 452/270/418 453/271/419
f 454/272/420 455/273/421 456/274/422
f 454/272/420 456/274/422 457/275/423
f 457/275/423 456/274/422 458/276/424
f 457/275/423 458/276/424 459/277/425
f 456/274/422 450/268/416 460/278/426
f 456/274/422 460/278/426 458/276/424
f 457/275/423 459/277/425 461/279/427
f 457/275/423 461/279/427 462/280/428
f 454/272/420 457/275/423 462/280/428
f 454/272/420 462/280/428 463/281/429
f 464/282/430 454/272/420 463/281/429
f 464/282/430 463/281/429 465/283/431
f 466/284/432 467/285/433 451/269/417
f 466/284/432 451/269/417 455/273/421
f 464/282/430 466/284/432 455/273/421
f 464/282/430 455/273/421 454/272/420
f 468/286/434 26/26/26 23/23/23
f 468/286/434 23/23/23 4/4/4
f 4/4/4 23/23/23 21/21/21
f 4/4/4 21/21/21 16/16/16
f 16/16/16 21/21/21 20/20/20
f 16/16/16 20/20/20 469/287/435
f 469/287/435 20/20/20 19/19/19
f 469/287/435 19/19/19 1/1/1
f 1/1/1 19/19/19 24/24/24
f 1/1/1 24/24/24 2/2/2
f 2/2/2 24/24/24 26/26/26
f 2/2/2 26/26/26 468/286/434
f 469/287/435 1/1/1 3/3/3
f 469/287/435 3/3/3 470/288/436
f 16/16/16 469/287/435 470/288/436
f 16/16/16 470/288/436 5/5/5
f 2/2/2 468/286/434 471/289/437
f 2/2/2 471/289/437 7/7/7
f 470/288/436 3/3/3 8/8/8
f 470/288/436 8/8/8 472/290/438
f 5/5/5 470/288/436 472/290/438
f 5/5/5 472/290/438 17/17/17
f 468/286/434 4/4/4 6/6/6
f 468/286/434 6/6/6 471/289/437
f 8/8/8 7/7/7 473/291/439
f 8/8/8 473/291/439 474/292/440
f 17/17/17 472/290/438 475/293/441
f 17/17/17 475/293/441 476/294/442
f 471/289/437 6/6/6 477/295/443
f 471/289/437 477/295/443 478/296/444
f 7/7/7 471/289/437 478/296/444
f 7/7/7 478/296/444 473/291/439
f 472/290/438 8/8/8 474/292/440
f 472/290/438 474/292/440 475/293/441
f 6/6/6 17/17/17 476/294/442
f 6/6/6 476/294/442 477/295/443
f 474/292/440 473/291/439 479/297/445
f 474/292/440 479/297/445 480/298/446
f 476/294/442 475/293/441 481/299/447
f 476/294/442 481/299/447 482/300/448
f 478/296/444 477/295/443 483/301/449
f 478/296/444 483/301/449 484/302/450
f 473/291/439 478/296/444 484/302/450
f 473/291/439 484/302/450 479/297/445
f 475/293/441 474/292/440 480/298/446
f 475/293/441 480/298/446 481/299/447
f 477/295/443 476/294/442 482/300/448
f 477/295/443 482/300/448 483/301/449
f 479/297/451 484/302/452 14/14/453
f 479/297/451 14/14/453 10/10/454
f 481/299/455 480/298/456 9/9/457
f 481/299/455 9/9/457 13/13/458
f 483/301/459 482/300/460 12/12/461
f 483/301/459 12/12/461 15/15/462
f 480/298/456 479/297/451 10/10/454
f 480/298/456 10/10/454 9/9/457
f 482/300/460 481/299/455 13/13/458
f 482/300/460 13/13/458 12/12/461
f 484/302/452 483/301/459 15/15/462
f 484/302/452 15/15/462 14/14/453
f 25/25/25 22/22/22 23/23/23
f 25/25/25 23/23/23 26/26/26
f 452/270/418 451/269/417 467/285/433
f 452/270/418 467/285/433 485/303/463
f 450/268/416 456/274/422 455/273/421
f 450/268/416 455/273/421 451/269/417
f 460/278/426 450/268/416 453/271/419
f 460/278/426 453/271/419 486/304/464
f 485/303/463 486/304/464 453/271/419
f 485/303/463 453/271/419 452/270/418
f 487/305/465 488/306/466 489/307/467
f 487/305/465 489/307/467 490/308/468
f 491/309/469 492/310/470 493/311/471
f 491/309/469 493/311/471 494/312/472
f 492/310/470 495/313/425 496/314/424
f 492/310/470 496/314/424 493/311/471
f 493/311/471 496/314/424 497/315/426
f 493/311/471 497/315/426 487/305/465
f 492/310/470 498/316/473 499/317/427
f 492/310/470 499/317/427 495/313/425
f 491/309/469 500/318/474 498/316/473
f 491/309/469 498/316/473 492/310/470
f 501/319/430 502/320/431 500/318/474
f 501/319/430 500/318/474 491/309/469
f 503/321/432 494/312/472 490/308/468
f 503/321/432 490/308/468 504/322/433
f 501/319/430 491/309/469 494/312/472
f 501/319/430 494/312/472 503/321/432
f 505/323/475 30/30/30 49/49/47
f 505/323/475 49/49/47 51/51/48
f 30/30/30 42/42/42 47/47/45
f 30/30/30 47/47/45 49/49/47
f 42/42/42 506/324/476 45/45/44
f 42/42/42 45/45/44 47/47/45
f 506/324/476 27/27/27 46/46/19
f 506/324/476 46/46/19 45/45/44
f 27/27/27 29/29/29 50/50/24
f 27/27/27 50/50/24 46/46/19
f 29/29/29 505/323/475 51/51/48
f 29/29/29 51/51/48 50/50/24
f 506/324/476 507/325/477 28/28/28
f 506/324/476 28/28/28 27/27/27
f 42/42/42 32/32/32 507/325/477
f 42/42/42 507/325/477 506/324/476
f 29/29/29 34/34/34 508/326/478
f 29/29/29 508/326/478 505/323/475
f 507/325/477 509/327/479 33/33/33
f 507/325/477 33/33/33 28/28/28
f 32/32/32 43/43/43 509/327/479
f 32/32/32 509/327/479 507/325/477
f 505/323/475 508/326/478 31/31/31
f 505/323/475 31/31/31 30/30/30
f 33/33/33 510/328/480 511/329/481
f 33/33/33 511/329/481 34/34/34
f 43/43/43 512/330/482 513/331/483
f 43/43/43 513/331/483 509/327/479
f 508/326/478 514/332/484 515/333/485
f 508/326/478 515/333/485 31/31/31
f 34/34/34 511/329/481 514/332/484
f 34/34/34 514/332/484 508/326/478
f 509/327/479 513/331/483 510/328/480
f 509/327/479 510/328/480 33/33/33
f 31/31/31 515/333/485 512/330/482
f 31/31/31 512/330/482 43/43/43
f 510/328/480 516/334/486 517/335/487
f 510/328/480 517/335/487 511/329/481
f 512/330/482 518/336/488 519/337/489
f 512/330/482 519/337/489 513/331/483
f 514/332/484 520/338/490 521/339/491
f 514/332/484 521/339/491 515/333/485
f 511/329/481 517/335/487 520/338/490
f 511/329/481 520/338/490 514/332/484
f 513/331/483 519/337/489 516/334/486
f 513/331/483 516/334/486 510/328/480
f 515/333/485 521/339/491 518/336/488
f 515/333/485 518/336/488 512/330/482
f 517/335/492 37/37/493 40/40/494
f 517/335/492 40/40/494 520/338/495
f 519/337/496 39/39/497 35/35/498
f 519/337/496 35/35/498 516/334/499
f 521/339/500 41/41/501 38/38/502
f 521/339/500 38/38/502 518/336/503
f 516/334/499 35/35/498 37/37/493
f 516/334/499 37/37/493 517/335/492
f 518/336/503 38/38/502 39/39/497
f 518/336/503 39/39/497 519/337/496
f 520/338/495 40/40/494 41/41/501
f 520/338/495 41/41/501 521/339/500
f 52/52/25 51/51/48 49/49/47
f 52/52/25 49/49/47 48/48/46
f 489/307/467 522/340/463 504/322/433
f 489/307/467 504/322/433 490/308/468
f 487/305/465 490/308/468 494/312/472
f 487/305/465 494/312/472 493/311/471
f 497/315/426 523/341/464 488/306/466
f 497/315/426 488/306/466 487/305/465
f 522/340/463 489/307/467 488/306/466
f 522/340/463 488/306/466 523/341/464
f 93/75/74 524/342/504 525/343/505
f 93/75/74 525/343/505 94/76/75
f 96/76/77 526/344/506 527/345/507
f 96/76/77 527/345/507 97/75/78
f 97/75/508 93/75/508 95/77/508
f 97/75/508 95/77/508 98/77/508
f 528/346/509 527/345/507 101/80/82
f 528/346/509 101/80/82 100/79/81
f 94/76/510 96/76/510 98/77/510
f 94/76/510 98/77/510 95/77/510
f 86/70/67 88/72/69 90/71/71
f 86/70/67 90/71/71 87/71/68
f 524/342/504 528/346/509 100/79/81
f 524/342/504 100/79/81 529/347/511
f 94/76/75 525/343/505 526/344/506
f 94/76/75 526/344/506 96/76/77
f 93/75/512 97/75/512 88/72/512
f 93/75/512 88/72/512 86/70/512
f 527/345/507 528/346/509 92/74/73
f 527/345/507 92/74/73 89/69/70
f 97/75/78 527/345/507 89/69/70
f 97/75/78 89/69/70 88/72/69
f 528/346/509 524/342/504 85/69/66
f 528/346/509 85/69/66 92/74/73
f 524/342/504 93/75/74 86/70/67
f 524/342/504 86/70/67 85/69/66
f 99/78/80 530/348/513 529/347/511
f 99/78/80 529/347/511 100/79/81
f 527/345/507 526/344/506 99/78/80
f 527/345/507 99/78/80 101/80/82
f 526/344/506 525/343/505 530/348/513
f 526/344/506 530/348/513 99/78/80
f 525/343/505 524/342/504 529/347/511
f 525/343/505 529/347/511 530/348/513
f 110/75/91 112/76/93 531/343/514
f 110/75/91 531/343/514 532/342/515
f 113/76/94 115/75/96 533/345/516
f 113/76/94 533/345/516 534/344/517
f 115/75/508 114/77/508 111/77/508
f 115/75/508 111/77/508 110/75/508
f 535/346/518 118/79/99 117/80/98
f 535/346/518 117/80/98 533/345/516
f 112/76/510 111/77/510 114/77/510
f 112/76/510 114/77/510 113/76/510
f 104/70/85 103/71/84 106/71/87
f 104/70/85 106/71/87 105/72/86
f 532/342/515 536/347/519 118/79/99
f 532/342/515 118/79/99 535/346/518
f 112/76/93 113/76/94 534/344/517
f 112/76/93 534/344/517 531/343/514
f 110/75/520 104/70/520 105/72/520
f 110/75/520 105/72/520 115/75/520
f 533/345/516 107/69/88 109/74/90
f 533/345/516 109/74/90 535/346/518
f 115/75/96 105/72/86 107/69/88
f 115/75/96 107/69/88 533/345/516
f 535/346/518 109/74/90 102/69/83
f 535/346/518 102/69/83 532/342/515
f 532/342/515 102/69/83 104/70/85
f 532/342/515 104/70/85 110/75/91
f 116/78/97 118/79/99 536/347/519
f 116/78/97 536/347/519 537/348/521
f 533/345/516 117/80/98 116/78/97
f 533/345/516 116/78/97 534/344/517
f 534/344/517 116/78/97 537/348/521
f 534/344/517 537/348/521 531/343/514
f 531/343/514 537/348/521 536/347/519
f 531/343/514 536/347/519 532/342/515
f 538/349/522 539/350/141 540/351/523
f 538/349/522 540/351/523 541/352/524
f 542/353/525 543/354/526 180/123/161
f 542/353/525 180/123/161 174/117/155
f 544/355/527 545/356/528 538/349/522
f 544/355/527 538/349/522 541/352/524
f 546/357/528 177/120/158 176/119/157
f 546/357/528 176/119/157 547/358/522
f 541/352/524 540/351/523 548/359/529
f 541/352/524 548/359/529 549/360/530
f 539/350/141 550/361/140 548/359/529
f 539/350/141 548/359/529 540/351/523
f 167/110/148 169/112/150 162/105/143
f 167/110/148 162/105/143 161/104/142
f 165/108/146 551/362/531 552/363/532
f 165/108/146 552/363/532 553/364/533
f 543/354/526 158/101/139 178/121/159
f 543/354/526 178/121/159 180/123/161
f 166/109/147 554/365/156 555/366/158
f 166/109/147 555/366/158 164/107/145
f 556/367/534 557/368/157 156/99/137
f 556/367/534 156/99/137 155/98/136
f 160/103/141 556/367/534 155/98/136
f 160/103/141 155/98/136 179/122/160
f 558/369/535 559/370/525 176/119/157
f 558/369/535 176/119/157 175/118/156
f 551/362/531 165/108/146 541/352/524
f 551/362/531 541/352/524 549/360/530
f 162/105/143 169/112/150 554/365/156
f 162/105/143 554/365/156 166/109/147
f 553/364/533 560/371/536 163/106/144
f 553/364/533 163/106/144 162/105/143
f 162/105/143 166/109/147 165/108/146
f 162/105/143 165/108/146 553/364/533
f 557/368/157 542/353/525 174/117/155
f 557/368/157 174/117/155 156/99/137
f 545/356/528 544/355/527 164/107/145
f 545/356/528 164/107/145 555/366/158
f 158/101/139 160/103/141 179/122/160
f 158/101/139 179/122/160 178/121/159
f 561/372/150 562/373/149 558/369/535
f 561/372/150 558/369/535 175/118/156
f 165/108/146 164/107/145 544/355/527
f 165/108/146 544/355/527 541/352/524
f 563/374/537 564/375/538 565/376/539
f 563/374/537 565/376/539 566/377/165
f 542/353/525 191/132/172 197/123/178
f 542/353/525 197/123/178 543/354/526
f 567/378/540 564/375/538 563/374/537
f 567/378/540 563/374/537 568/379/541
f 569/357/541 570/380/537 194/119/175
f 569/357/541 194/119/175 193/120/174
f 564/375/538 549/360/530 548/359/529
f 564/375/538 548/359/529 565/376/539
f 566/377/165 565/376/539 548/359/529
f 566/377/165 548/359/529 550/361/140
f 167/110/148 161/104/142 185/126/166
f 167/110/148 185/126/166 189/130/170
f 188/129/169 571/381/542 552/363/532
f 188/129/169 552/363/532 551/362/531
f 543/354/526 197/123/178 195/133/176
f 543/354/526 195/133/176 158/101/139
f 187/128/168 186/127/167 572/382/174
f 187/128/168 572/382/174 573/383/173
f 574/384/543 181/124/162 183/99/164
f 574/384/543 183/99/164 575/385/175
f 184/125/165 196/134/177 181/124/162
f 184/125/165 181/124/162 574/384/543
f 558/369/535 192/118/173 194/119/175
f 558/369/535 194/119/175 559/370/525
f 551/362/531 549/360/530 564/375/538
f 551/362/531 564/375/538 188/129/169
f 185/126/166 187/128/168 573/383/173
f 185/126/166 573/383/173 189/130/170
f 571/381/542 185/126/166 163/106/144
f 571/381/542 163/106/144 560/371/536
f 185/126/166 571/381/542 188/129/169
f 185/126/166 188/129/169 187/128/168
f 575/385/175 183/99/164 191/132/172
f 575/385/175 191/132/172 542/353/525
f 568/379/541 572/382/174 186/127/167
f 568/379/541 186/127/167 567/378/540
f 158/101/139 195/133/176 196/134/177
f 158/101/139 196/134/177 184/125/165
f 576/386/170 192/118/173 558/369/535
f 576/386/170 558/369/535 562/373/149
f 188/129/169 564/375/538 567/378/540
f 188/129/169 567/378/540 186/127/167
f 577/387/544 578/388/545 579/389/546
f 577/387/544 579/389/546 580/390/547
f 580/390/547 579/389/546 581/391/548
f 580/390/547 581/391/548 582/392/549
f 582/392/549 581/391/548 583/393/550
f 582/392/549 583/393/550 584/394/551
f 584/394/551 583/393/550 585/391/552
f 584/394/551 585/391/552 586/392/553
f 587/395/554 588/396/555 589/397/556
f 587/395/554 589/397/556 590/398/557
f 586/392/553 585/391/552 591/389/558
f 586/392/553 591/389/558 592/399/559
f 592/399/559 591/389/558 578/388/545
f 592/399/559 578/388/545 577/387/544
f 589/397/556 593/400/560 224/156/200
f 589/397/556 224/156/200 223/152/199
f 594/396/561 595/395/562 596/398/563
f 594/396/561 596/398/563 597/397/564
f 588/396/555 598/401/565 593/400/560
f 588/396/555 593/400/560 589/397/556
f 599/402/566 587/395/554 590/398/557
f 599/402/566 590/398/557 600/403/567
f 598/401/565 594/396/561 597/397/564
f 598/401/565 597/397/564 593/400/560
f 595/395/562 599/402/566 600/403/567
f 595/395/562 600/403/567 596/398/563
f 593/400/560 597/397/564 218/152/194
f 593/400/560 218/152/194 224/156/200
f 596/398/563 600/403/567 221/155/197
f 596/398/563 221/155/197 219/153/195
f 590/398/557 589/397/556 223/152/199
f 590/398/557 223/152/199 222/153/198
f 597/397/564 596/398/563 219/153/195
f 597/397/564 219/153/195 218/152/194
f 600/403/567 590/398/557 222/153/198
f 600/403/567 222/153/198 221/155/197
f 601/160/568 602/404/568 603/405/568
f 601/160/568 603/405/568 604/406/568
f 605/407/569 606/408/570 607/409/571
f 605/407/569 607/409/571 608/410/572
f 609/408/573 610/407/574 611/410/575
f 609/408/573 611/410/575 612/409/576
f 606/408/570 613/411/577 614/412/578
f 606/408/570 614/412/578 607/409/571
f 615/413/579 605/407/569 608/410/572
f 615/413/579 608/410/572 616/414/580
f 613/411/577 609/408/573 612/409/576
f 613/411/577 612/409/576 614/412/578
f 610/407/574 615/413/579 616/414/580
f 610/407/574 616/414/580 611/410/575
f 617/415/581 618/416/582 619/417/583
f 617/415/581 619/417/583 620/418/584
f 621/416/585 622/415/586 623/418/587
f 621/416/585 623/418/587 624/417/588
f 618/416/582 625/419/589 626/420/590
f 618/416/582 626/420/590 619/417/583
f 627/421/591 617/415/581 620/418/584
f 627/421/591 620/418/584 628/422/592
f 625/419/589 621/416/585 624/417/588
f 625/419/589 624/417/588 626/420/590
f 622/415/586 627/421/591 628/422/592
f 622/415/586 628/422/592 623/418/587
f 629/423/593 234/165/208 236/167/210
f 629/423/593 236/167/210 630/424/593
f 631/425/594 237/168/211 239/170/213
f 631/425/594 239/170/213 632/426/594
f 633/427/595 634/426/595 241/170/215
f 633/427/595 241/170/215 240/168/214
f 635/425/596 636/428/596 244/170/218
f 635/425/596 244/170/218 243/171/217
f 637/427/597 246/171/220 248/170/222
f 637/427/597 248/170/222 638/428/597
f 639/425/598 249/165/223 251/167/225
f 639/425/598 251/167/225 640/424/598
f 641/429/599 642/430/599 643/431/600
f 641/429/599 643/431/600 644/432/600
f 645/433/601 646/434/601 644/432/600
f 645/433/601 644/432/600 643/431/600
f 647/435/602 255/177/229 254/176/228
f 647/435/602 254/176/228 648/436/603
f 254/176/228 255/177/229 257/179/231
f 254/176/228 257/179/231 252/174/226
f 647/435/602 649/437/604 256/178/230
f 647/435/602 256/178/230 255/177/229
f 650/438/605 651/439/236 649/437/604
f 650/438/605 649/437/604 652/440/606
f 650/438/605 652/440/606 653/441/607
f 650/438/605 653/441/607 654/442/608
f 655/443/609 654/442/608 653/441/607
f 655/443/609 653/441/607 656/444/610
f 254/176/228 253/175/227 657/445/611
f 254/176/228 657/445/611 648/436/603
f 648/436/603 657/445/611 655/443/609
f 648/436/603 655/443/609 656/444/610
f 256/178/230 649/437/604 651/439/236
f 256/178/230 651/439/236 658/446/234
f 659/447/608 660/448/609 661/449/611
f 659/447/608 661/449/611 263/185/237
f 261/183/235 263/185/237 661/449/611
f 261/183/235 661/449/611 662/450/227
f 253/175/227 252/174/226 257/179/231
f 253/175/227 257/179/231 663/451/235
f 664/452/605 659/447/608 263/185/237
f 664/452/605 263/185/237 262/184/236
f 665/453/233 258/180/232 256/178/230
f 665/453/233 256/178/230 658/446/234
f 653/441/607 647/435/602 648/436/603
f 653/441/607 648/436/603 656/444/610
f 652/440/606 649/437/604 647/435/602
f 652/440/606 647/435/602 653/441/607
f 666/454/233 667/455/235 668/456/231
f 666/454/233 668/456/231 669/457/232
f 266/188/240 265/187/239 269/191/243
f 266/188/240 269/191/243 268/190/242
f 267/189/241 266/188/240 268/190/242
f 267/189/241 268/190/242 670/458/612
f 271/193/245 272/194/246 269/191/243
f 271/193/245 269/191/243 265/187/239
f 267/189/241 670/458/612 272/194/246
f 267/189/241 272/194/246 271/193/245
f 671/459/250 672/460/248 272/194/246
f 671/459/250 272/194/246 670/458/612
f 671/459/250 670/458/612 268/190/242
f 671/459/250 268/190/242 673/461/249
f 268/190/242 270/192/244 674/462/247
f 268/190/242 674/462/247 673/461/249
f 270/192/244 272/194/246 672/460/248
f 270/192/244 672/460/248 674/462/247
f 284/206/258 286/208/260 281/203/255
f 284/206/258 281/203/255 280/202/254
f 675/463/613 284/206/258 280/202/254
f 675/463/613 280/202/254 676/464/614
f 279/201/253 278/200/252 285/207/259
f 279/201/253 285/207/259 284/206/258
f 283/205/257 279/201/253 284/206/258
f 283/205/257 284/206/258 675/463/613
f 676/464/614 280/202/254 677/465/264
f 676/464/614 677/465/264 678/466/267
f 280/202/254 282/204/256 679/467/265
f 280/202/254 679/467/265 677/465/264
f 289/211/263 288/210/262 281/203/255
f 289/211/263 281/203/255 286/208/260
f 675/463/613 676/464/614 288/210/262
f 675/463/613 288/210/262 289/211/263
f 287/209/261 289/211/263 285/207/259
f 287/209/261 285/207/259 278/200/252
f 283/205/257 675/463/613 289/211/263
f 283/205/257 289/211/263 287/209/261
f 676/464/614 678/466/267 680/468/266
f 676/464/614 680/468/266 288/210/262
f 288/210/262 680/468/266 679/467/265
f 288/210/262 679/467/265 282/204/256
f 301/223/275 303/225/277 298/220/272
f 301/223/275 298/220/272 297/219/271
f 681/469/615 301/223/275 297/219/271
f 681/469/615 297/219/271 682/470/616
f 296/218/270 295/217/269 302/224/276
f 296/218/270 302/224/276 301/223/275
f 300/222/274 296/218/270 301/223/275
f 300/222/274 301/223/275 681/469/615
f 682/470/616 297/219/271 683/471/283
f 682/470/616 683/471/283 684/472/284
f 297/219/271 299/221/273 685/473/281
f 297/219/271 685/473/281 683/471/283
f 306/228/280 305/227/279 298/220/272
f 306/228/280 298/220/272 303/225/277
f 681/469/615 682/470/616 305/227/279
f 681/469/615 305/227/279 306/228/280
f 304/226/278 306/228/280 302/224/276
f 304/226/278 302/224/276 295/217/269
f 300/222/274 681/469/615 306/228/280
f 300/222/274 306/228/280 304/226/278
f 682/470/616 684/472/284 686/474/282
f 682/470/616 686/474/282 305/227/279
f 305/227/279 686/474/282 685/473/281
f 305/227/279 685/473/281 299/221/273
f 320/242/295 322/244/297 317/239/292
f 320/242/295 317/239/292 316/238/291
f 687/475/617 320/242/295 316/238/291
f 687/475/617 316/238/291 688/476/618
f 315/237/290 314/236/289 321/243/296
f 315/237/290 321/243/296 320/242/295
f 319/241/294 315/237/290 320/242/295
f 319/241/294 320/242/295 687/475/617
f 688/476/618 316/238/291 689/477/285
f 688/476/618 689/477/285 690/478/302
f 316/238/291 318/240/293 691/479/286
f 316/238/291 691/479/286 689/477/285
f 326/248/301 325/247/300 317/239/292
f 326/248/301 317/239/292 322/244/297
f 687/475/617 688/476/618 325/247/300
f 687/475/617 325/247/300 326/248/301
f 324/246/299 326/248/301 321/243/296
f 324/246/299 321/243/296 314/236/289
f 319/241/294 687/475/617 326/248/301
f 319/241/294 326/248/301 324/246/299
f 688/476/618 690/478/302 692/480/298
f 688/476/618 692/480/298 325/247/300
f 325/247/300 692/480/298 691/479/286
f 325/247/300 691/479/286 318/240/293
f 693/481/619 694/482/620 332/253/304
f 693/481/619 332/253/304 695/483/621
f 695/483/621 332/253/304 331/253/303
f 695/483/621 331/253/303 696/483/622
f 696/483/622 331/253/303 697/482/623
f 696/483/622 697/482/623 698/481/624
f 698/481/624 697/482/623 335/256/307
f 698/481/624 335/256/307 699/484/625
f 699/484/625 335/256/307 334/255/306
f 699/484/625 334/255/306 700/484/626
f 700/484/626 334/255/306 694/482/620
f 700/484/626 694/482/620 693/481/619
f 332/253/304 694/482/620 701/485/627
f 332/253/304 701/485/627 333/254/305
f 694/482/620 334/255/306 336/257/308
f 694/482/620 336/257/308 701/485/627
f 701/485/627 336/257/308 339/260/311
f 701/485/627 339/260/311 702/486/628
f 335/256/307 697/482/623 703/487/629
f 335/256/307 703/487/629 338/259/310
f 697/482/623 331/253/303 337/258/309
f 697/482/623 337/258/309 703/487/629
f 333/254/305 701/485/627 702/486/628
f 333/254/305 702/486/628 347/258/319
f 339/260/311 338/259/310 704/488/630
f 339/260/311 704/488/630 705/489/631
f 703/487/629 337/258/309 706/490/632
f 703/487/629 706/490/632 707/491/633
f 347/258/319 702/486/628 708/491/634
f 347/258/319 708/491/634 709/490/635
f 702/486/628 339/260/311 705/489/631
f 702/486/628 705/489/631 708/491/634
f 338/259/310 703/487/629 707/491/633
f 338/259/310 707/491/633 704/488/630
f 337/258/309 347/258/319 709/490/635
f 337/258/309 709/490/635 706/490/632
f 708/491/634 705/489/631 710/492/636
f 708/491/634 710/492/636 711/493/637
f 704/488/630 707/491/633 712/493/638
f 704/488/630 712/493/638 713/494/639
f 706/490/632 709/490/635 714/495/640
f 706/490/632 714/495/640 715/495/641
f 705/489/631 704/488/630 713/494/639
f 705/489/631 713/494/639 710/492/636
f 707/491/633 706/490/632 715/495/641
f 707/491/633 715/495/641 712/493/638
f 709/490/635 708/491/634 711/493/637
f 709/490/635 711/493/637 714/495/640
f 716/496/642 717/496/643 718/497/644
f 716/496/642 718/497/644 719/497/645
f 720/498/646 721/499/647 722/500/648
f 720/498/646 722/500/648 723/500/649
f 724/501/650 716/496/642 719/497/645
f 724/501/650 719/497/645 725/502/651
f 717/496/643 726/501/652 727/502/653
f 717/496/643 727/502/653 718/497/644
f 726/501/652 720/498/646 723/500/649
f 726/501/652 723/500/649 727/502/653
f 721/499/647 724/501/650 725/502/651
f 721/499/647 725/502/651 722/500/648
f 698/481/624 699/484/625 728/503/654
f 698/481/624 728/503/654 729/504/655
f 699/484/625 700/484/626 730/503/656
f 699/484/625 730/503/656 728/503/654
f 696/483/622 698/481/624 729/504/655
f 696/483/622 729/504/655 731/505/657
f 695/483/621 696/483/622 731/505/657
f 695/483/621 731/505/657 732/505/658
f 693/481/619 695/483/621 732/505/658
f 693/481/619 732/505/658 733/504/659
f 700/484/626 693/481/619 733/504/659
f 700/484/626 733/504/659 730/503/656
f 734/435/660 735/436/661 349/176/321
f 734/435/660 349/176/321 351/177/323
f 349/176/321 348/174/320 352/179/324
f 349/176/321 352/179/324 351/177/323
f 734/435/660 351/177/323 353/178/325
f 734/435/660 353/178/325 736/437/662
f 737/438/663 738/440/664 736/437/662
f 737/438/663 736/437/662 739/439/330
f 737/438/663 740/442/665 741/441/666
f 737/438/663 741/441/666 738/440/664
f 742/443/667 743/444/668 741/441/666
f 742/443/667 741/441/666 740/442/665
f 349/176/321 735/436/661 744/445/669
f 349/176/321 744/445/669 350/175/322
f 735/436/661 743/444/668 742/443/667
f 735/436/661 742/443/667 744/445/669
f 353/178/325 745/446/329 739/439/330
f 353/178/325 739/439/330 736/437/662
f 746/447/665 359/185/331 747/449/669
f 746/447/665 747/449/669 748/448/667
f 356/183/328 749/450/322 747/449/669
f 356/183/328 747/449/669 359/185/331
f 350/175/322 750/451/328 352/179/324
f 350/175/322 352/179/324 348/174/320
f 751/452/663 358/184/330 359/185/331
f 751/452/663 359/185/331 746/447/665
f 752/453/327 745/446/329 353/178/325
f 752/453/327 353/178/325 354/180/326
f 741/441/666 743/444/668 735/436/661
f 741/441/666 735/436/661 734/435/660
f 738/440/664 741/441/666 734/435/660
f 738/440/664 734/435/660 736/437/662
f 753/454/327 754/457/326 755/456/324
f 753/454/327 755/456/324 756/455/328
f 361/188/333 364/190/336 366/191/338
f 361/188/333 366/191/338 362/187/334
f 363/189/335 757/458/670 364/190/336
f 363/189/335 364/190/336 361/188/333
f 367/193/339 362/187/334 366/191/338
f 367/193/339 366/191/338 368/194/340
f 363/189/335 367/193/339 368/194/340
f 363/189/335 368/194/340 757/458/670
f 758/459/344 757/458/670 368/194/340
f 758/459/344 368/194/340 759/460/343
f 758/459/344 760/461/342 364/190/336
f 758/459/344 364/190/336 757/458/670
f 364/190/336 760/461/342 761/462/341
f 364/190/336 761/462/341 365/192/337
f 365/192/337 761/462/341 759/460/343
f 365/192/337 759/460/343 368/194/340
f 380/206/352 376/202/348 378/203/350
f 380/206/352 378/203/350 381/208/353
f 762/463/671 763/464/672 376/202/348
f 762/463/671 376/202/348 380/206/352
f 374/201/346 380/206/352 382/207/354
f 374/201/346 382/207/354 375/200/347
f 379/205/351 762/463/671 380/206/352
f 379/205/351 380/206/352 374/201/346
f 763/464/672 764/466/361 765/465/358
f 763/464/672 765/465/358 376/202/348
f 376/202/348 765/465/358 766/467/360
f 376/202/348 766/467/360 377/204/349
f 385/211/357 381/208/353 378/203/350
f 385/211/357 378/203/350 384/210/356
f 762/463/671 385/211/357 384/210/356
f 762/463/671 384/210/356 763/464/672
f 383/209/355 375/200/347 382/207/354
f 383/209/355 382/207/354 385/211/357
f 379/205/351 383/209/355 385/211/357
f 379/205/351 385/211/357 762/463/671
f 763/464/672 384/210/356 767/468/359
f 763/464/672 767/468/359 764/466/361
f 384/210/356 377/204/349 766/467/360
f 384/210/356 766/467/360 767/468/359
f 397/223/369 393/219/365 395/220/367
f 397/223/369 395/220/367 398/225/370
f 768/469/673 769/470/674 393/219/365
f 768/469/673 393/219/365 397/223/369
f 391/218/363 397/223/369 399/224/371
f 391/218/363 399/224/371 392/217/364
f 396/222/368 768/469/673 397/223/369
f 396/222/368 397/223/369 391/218/363
f 769/470/674 770/472/378 771/471/376
f 769/470/674 771/471/376 393/219/365
f 393/219/365 771/471/376 772/473/375
f 393/219/365 772/473/375 394/221/366
f 402/228/374 398/225/370 395/220/367
f 402/228/374 395/220/367 401/227/373
f 768/469/673 402/228/374 401/227/373
f 768/469/673 401/227/373 769/470/674
f 400/226/372 392/217/364 399/224/371
f 400/226/372 399/224/371 402/228/374
f 396/222/368 400/226/372 402/228/374
f 396/222/368 402/228/374 768/469/673
f 769/470/674 401/227/373 773/474/377
f 769/470/674 773/474/377 770/472/378
f 401/227/373 394/221/366 772/473/375
f 401/227/373 772/473/375 773/474/377
f 416/242/389 412/238/385 414/239/387
f 416/242/389 414/239/387 417/244/390
f 774/475/675 775/476/676 412/238/385
f 774/475/675 412/238/385 416/242/389
f 410/237/383 416/242/389 418/243/391
f 410/237/383 418/243/391 411/236/384
f 415/241/388 774/475/675 416/242/389
f 415/241/388 416/242/389 410/237/383
f 775/476/676 776/478/396 777/477/379
f 775/476/676 777/477/379 412/238/385
f 412/238/385 777/477/379 778/479/381
f 412/238/385 778/479/381 413/240/386
f 422/248/395 417/244/390 414/239/387
f 422/248/395 414/239/387 421/247/394
f 774/475/675 422/248/395 421/247/394
f 774/475/675 421/247/394 775/476/676
f 420/246/393 411/236/384 418/243/391
f 420/246/393 418/243/391 422/248/395
f 415/241/388 420/246/393 422/248/395
f 415/241/388 422/248/395 774/475/675
f 775/476/676 421/247/394 779/480/392
f 775/476/676 779/480/392 776/478/396
f 421/247/394 413/240/386 778/479/381
f 421/247/394 778/479/381 779/480/392
f 780/481/677 781/483/678 429/253/399
f 780/481/677 429/253/399 782/482/679
f 781/483/678 783/483/680 427/253/397
f 781/483/678 427/253/397 429/253/399
f 783/483/680 784/481/681 785/482/682
f 783/483/680 785/482/682 427/253/397
f 784/481/681 786/484/683 432/256/402
f 784/481/681 432/256/402 785/482/682
f 786/484/683 787/484/684 430/255/400
f 786/484/683 430/255/400 432/256/402
f 787/484/684 780/481/677 782/482/679
f 787/484/684 782/482/679 430/255/400
f 429/253/399 428/254/398 788/485/685
f 429/253/399 788/485/685 782/482/679
f 782/482/679 788/485/685 431/257/401
f 782/482/679 431/257/401 430/255/400
f 788/485/685 789/486/686 434/260/404
f 788/485/685 434/260/404 431/257/401
f 432/256/402 435/259/405 790/487/687
f 432/256/402 790/487/687 785/482/682
f 785/482/682 790/487/687 433/258/403
f 785/482/682 433/258/403 427/253/397
f 428/254/398 443/258/413 789/486/686
f 428/254/398 789/486/686 788/485/685
f 434/260/404 791/489/688 792/488/689
f 434/260/404 792/488/689 435/259/405
f 790/487/687 793/491/690 794/490/691
f 790/487/687 794/490/691 433/258/403
f 443/258/413 795/490/692 796/491/693
f 443/258/413 796/491/693 789/486/686
f 789/486/686 796/491/693 791/489/688
f 789/486/686 791/489/688 434/260/404
f 435/259/405 792/488/689 793/491/690
f 435/259/405 793/491/690 790/487/687
f 433/258/403 794/490/691 795/490/692
f 433/258/403 795/490/692 443/258/413
f 796/491/693 797/493/694 798/492/695
f 796/491/693 798/492/695 791/489/688
f 792/488/689 799/494/696 800/493/697
f 792/488/689 800/493/697 793/491/690
f 794/490/691 801/495/698 802/495/699
f 794/490/691 802/495/699 795/490/692
f 791/489/688 798/492/695 799/494/696
f 791/489/688 799/494/696 792/488/689
f 793/491/690 800/493/697 801/495/698
f 793/491/690 801/495/698 794/490/691
f 795/490/692 802/495/699 797/493/694
f 795/490/692 797/493/694 796/491/693
f 803/496/700 804/497/701 805/497/702
f 803/496/700 805/497/702 806/496/703
f 807/498/704 808/500/705 809/500/706
f 807/498/704 809/500/706 810/499/707
f 811/501/708 812/502/709 804/497/701
f 811/501/708 804/497/701 803/496/700
f 806/496/703 805/497/702 813/502/710
f 806/496/703 813/502/710 814/501/711
f 814/501/711 813/502/710 808/500/705
f 814/501/711 808/500/705 807/498/704
f 810/499/707 809/500/706 812/502/709
f 810/499/707 812/502/709 811/501/708
f 784/481/681 815/504/712 816/503/713
f 784/481/681 816/503/713 786/484/683
f 786/484/683 816/503/713 817/503/714
f 786/484/683 817/503/714 787/484/684
f 783/483/680 818/505/715 815/504/712
f 783/483/680 815/504/712 784/481/681
f 781/483/678 819/505/716 818/505/715
f 781/483/678 818/505/715 783/483/680
f 780/481/677 820/504/717 819/505/716
f 780/481/677 819/505/716 781/483/678
f 787/484/684 817/503/714 820/504/717
f 787/484/684 820/504/717 780/481/677
# Vertices: 820, normals: 717, texture coordinates: 505, faces: 1111

