# Blender 4.3.0
# www.blender.org
mtllib DSBarrel.mtl
o BarrelSmartMat
v 1.966578 0.073031 -0.526943
v 1.763185 0.073031 -1.017975
v 1.991439 1.254501 -1.149758
v 2.221162 1.254501 -0.595158
v 1.439635 0.073031 -1.439635
v 1.626003 1.254501 -1.626003
v 1.017976 0.073031 -1.763185
v 1.149758 1.254501 -1.991439
v 0.526943 0.073031 -1.966577
v 0.595159 1.254501 -2.221162
v 0.000000 0.073031 -2.035951
v 0.000000 1.254501 -2.299515
v -0.526943 0.073031 -1.966578
v -0.595158 1.254501 -2.221162
v -1.017975 0.073031 -1.763185
v -1.149758 1.254501 -1.991440
v -1.439635 0.073031 -1.439635
v -1.626003 1.254501 -1.626003
v -1.763185 0.073031 -1.017976
v -1.991440 1.254501 -1.149758
v -1.966578 0.073031 -0.526943
v -2.221162 1.254501 -0.595159
v -2.035952 0.073031 -0.000000
v -2.299516 1.254501 -0.000000
v -1.966578 0.073031 0.526943
v -2.221162 1.254501 0.595158
v -1.763185 0.073031 1.017976
v -1.991440 1.254501 1.149758
v -1.439635 0.073031 1.439635
v -1.626004 1.254501 1.626003
v -1.017976 0.073031 1.763185
v -1.149758 1.254501 1.991440
v -0.526943 0.073031 1.966578
v -0.595159 1.254501 2.221162
v 0.000000 0.073031 2.035952
v 0.000000 1.254501 2.299516
v 0.526943 0.073031 1.966578
v 0.595159 1.254501 2.221162
v 1.017976 0.073031 1.763186
v 1.149758 1.254501 1.991440
v 1.439635 0.073031 1.439635
v 1.626004 1.254501 1.626004
v 1.763186 0.073031 1.017976
v 1.991440 1.254501 1.149758
v 1.966579 0.073031 0.526943
v 2.221162 1.254501 0.595159
v 2.035952 0.073031 -0.000000
v 2.299517 1.254501 -0.000000
v 2.145779 2.435970 -1.238866
v 2.393305 2.435970 -0.641284
v 1.752021 2.435970 -1.752021
v 1.238866 2.435970 -2.145779
v 0.641284 2.435970 -2.393305
v 0.000000 2.435970 -2.477732
v -0.641284 2.435970 -2.393306
v -1.238866 2.435970 -2.145780
v -1.752021 2.435970 -1.752022
v -2.145779 2.435970 -1.238866
v -2.393306 2.435970 -0.641284
v -2.477732 2.435970 -0.000000
v -2.393306 2.435970 0.641284
v -2.145780 2.435970 1.238866
v -1.752022 2.435970 1.752021
v -1.238866 2.435970 2.145780
v -0.641284 2.435970 2.393306
v 0.000000 2.435970 2.477732
v 0.641284 2.435970 2.393306
v 1.238866 2.435970 2.145780
v 1.752022 2.435970 1.752022
v 2.145780 2.435970 1.238866
v 2.393307 2.435970 0.641284
v 2.477733 2.435970 -0.000000
v 2.145779 3.617440 -1.238866
v 2.393305 3.617440 -0.641284
v 1.752021 3.617440 -1.752021
v 1.238866 3.617440 -2.145779
v 0.641284 3.617440 -2.393305
v 0.000000 3.617440 -2.477732
v -0.641284 3.617440 -2.393306
v -1.238866 3.617440 -2.145779
v -1.752021 3.617440 -1.752022
v -2.145779 3.617440 -1.238866
v -2.393306 3.617440 -0.641284
v -2.477732 3.617440 -0.000000
v -2.393306 3.617440 0.641284
v -2.145780 3.617440 1.238866
v -1.752022 3.617440 1.752022
v -1.238866 3.617440 2.145780
v -0.641284 3.617440 2.393306
v 0.000000 3.617440 2.477732
v 0.641284 3.617440 2.393306
v 1.238866 3.617440 2.145780
v 1.752022 3.617440 1.752022
v 2.145780 3.617440 1.238866
v 2.393307 3.617440 0.641284
v 2.477733 3.617440 -0.000000
v 1.991439 4.798909 -1.149757
v 2.221162 4.798909 -0.595158
v 1.626003 4.798909 -1.626003
v 1.149758 4.798909 -1.991439
v 0.595159 4.798909 -2.221163
v 0.000000 4.798909 -2.299515
v -0.595158 4.798909 -2.221163
v -1.149758 4.798909 -1.991440
v -1.626003 4.798909 -1.626003
v -1.991440 4.798909 -1.149758
v -2.221162 4.798909 -0.595159
v -2.299516 4.798909 -0.000000
v -2.221162 4.798909 0.595158
v -1.991440 4.798909 1.149758
v -1.626004 4.798909 1.626003
v -1.149758 4.798909 1.991440
v -0.595159 4.798909 2.221162
v 0.000000 4.798909 2.299515
v 0.595159 4.798909 2.221162
v 1.149758 4.798909 1.991440
v 1.626004 4.798909 1.626004
v 1.991440 4.798909 1.149758
v 2.221162 4.798909 0.595159
v 2.299517 4.798909 -0.000000
v 1.763185 5.980379 -1.017975
v 1.966578 5.980379 -0.526944
v 1.439635 5.980379 -1.439636
v 1.017976 5.980379 -1.763186
v 0.526943 5.980379 -1.966578
v 0.000000 5.980379 -2.035951
v -0.526943 5.980379 -1.966578
v -1.017975 5.980379 -1.763186
v -1.439635 5.980379 -1.439636
v -1.763185 5.980379 -1.017977
v -1.966578 5.980379 -0.526944
v -2.035952 5.980379 -0.000000
v -1.966578 5.980379 0.526943
v -1.763185 5.980379 1.017976
v -1.439635 5.980379 1.439635
v -1.017976 5.980379 1.763185
v -0.526943 5.980379 1.966578
v 0.000000 5.980379 2.035952
v 0.526943 5.980379 1.966578
v 1.017976 5.980379 1.763186
v 1.439635 5.980379 1.439635
v 1.763186 5.980379 1.017976
v 1.966579 5.980379 0.526943
v 2.035952 5.980379 -0.000000
v 1.644628 0.419222 -0.949526
v 1.834344 0.419222 -0.491511
v 0.000000 0.419222 -0.000000
v 1.342833 0.419222 -1.342832
v 0.949526 0.419222 -1.644627
v 0.491511 0.419222 -1.834343
v 0.000000 0.419222 -1.899052
v -0.491511 0.419222 -1.834344
v -0.949526 0.419222 -1.644628
v -1.342833 0.419222 -1.342833
v -1.644628 0.419222 -0.949526
v -1.834344 0.419222 -0.491511
v -1.899053 0.419222 -0.000000
v -1.834344 0.419222 0.491511
v -1.644628 0.419222 0.949526
v -1.342833 0.419222 1.342833
v -0.949526 0.419222 1.644628
v -0.491511 0.419222 1.834344
v 0.000000 0.419222 1.899053
v 0.491511 0.419222 1.834344
v 0.949527 0.419222 1.644628
v 1.342833 0.419222 1.342833
v 1.644628 0.419222 0.949527
v 1.834345 0.419222 0.491511
v 1.899053 0.419222 -0.000000
v 1.834344 5.634188 -0.491511
v 1.644628 5.634188 -0.949526
v 0.000000 5.634188 -0.000000
v 1.342833 5.634188 -1.342832
v 0.949526 5.634188 -1.644627
v 0.491511 5.634188 -1.834343
v 0.000000 5.634188 -1.899053
v -0.491511 5.634188 -1.834345
v -0.949526 5.634188 -1.644629
v -1.342833 5.634188 -1.342834
v -1.644628 5.634188 -0.949526
v -1.834344 5.634188 -0.491511
v -1.899053 5.634188 -0.000000
v -1.834344 5.634188 0.491511
v -1.644628 5.634188 0.949526
v -1.342833 5.634188 1.342833
v -0.949526 5.634188 1.644628
v -0.491511 5.634188 1.834344
v 0.000000 5.634188 1.899053
v 0.491511 5.634188 1.834344
v 0.949527 5.634188 1.644628
v 1.342833 5.634188 1.342833
v 1.644628 5.634188 0.949526
v 1.834345 5.634188 0.491511
v 1.899053 5.634188 -0.000000
v 1.793824 0.073031 -0.480653
v 1.608298 0.073031 -0.928551
v 1.313170 0.073031 -1.313170
v 0.928551 0.073031 -1.608298
v 0.480654 0.073031 -1.793823
v 0.000000 0.073031 -1.857103
v -0.480653 0.073031 -1.793824
v -0.928551 0.073031 -1.608298
v -1.313170 0.073031 -1.313170
v -1.608298 0.073031 -0.928552
v -1.793824 0.073031 -0.480654
v -1.857103 0.073031 -0.000000
v -1.793824 0.073031 0.480654
v -1.608299 0.073031 0.928551
v -1.313170 0.073031 1.313170
v -0.928552 0.073031 1.608299
v -0.480654 0.073031 1.793824
v 0.000000 0.073031 1.857103
v 0.480654 0.073031 1.793824
v 0.928552 0.073031 1.608299
v 1.313170 0.073031 1.313170
v 1.608299 0.073031 0.928552
v 1.793825 0.073031 0.480654
v 1.857104 0.073031 -0.000000
v 1.608298 5.980379 -0.928551
v 1.793824 5.980379 -0.480653
v 1.313170 5.980379 -1.313170
v 0.928551 5.980379 -1.608298
v 0.480654 5.980379 -1.793823
v 0.000000 5.980379 -1.857103
v -0.480653 5.980379 -1.793824
v -0.928551 5.980379 -1.608298
v -1.313170 5.980379 -1.313170
v -1.608298 5.980379 -0.928552
v -1.793824 5.980379 -0.480654
v -1.857103 5.980379 -0.000000
v -1.793824 5.980379 0.480654
v -1.608299 5.980379 0.928551
v -1.313170 5.980379 1.313169
v -0.928552 5.980379 1.608299
v -0.480654 5.980379 1.793823
v 0.000000 5.980379 1.857103
v 0.480654 5.980379 1.793823
v 0.928552 5.980379 1.608299
v 1.313170 5.980379 1.313169
v 1.608299 5.980379 0.928551
v 1.793825 5.980379 0.480654
v 1.857104 5.980379 -0.000000
v 2.500630 2.801158 -0.670042
v 2.242004 2.801158 -1.294421
v 2.242004 3.308199 -1.294421
v 2.500630 3.308199 -0.670042
v 1.830588 2.801158 -1.830588
v 1.830588 3.308199 -1.830588
v 1.294421 2.801158 -2.242004
v 1.294421 3.308199 -2.242004
v 0.670042 2.801158 -2.500630
v 0.670042 3.308199 -2.500630
v 0.000000 2.801158 -2.588843
v 0.000000 3.308199 -2.588843
v -0.670041 2.801158 -2.500630
v -0.670041 3.308199 -2.500630
v -1.294421 2.801158 -2.242004
v -1.294421 3.308199 -2.242004
v -1.830589 2.801158 -1.830589
v -1.830589 3.308199 -1.830589
v -2.242004 2.801158 -1.294422
v -2.242004 3.308199 -1.294422
v -2.500631 2.801158 -0.670042
v -2.500631 3.308199 -0.670042
v -2.588843 2.801158 -0.000000
v -2.588843 3.308199 -0.000000
v -2.500631 2.801158 0.670042
v -2.500631 3.308199 0.670042
v -2.242005 2.801158 1.294421
v -2.242005 3.308199 1.294421
v -1.830589 2.801158 1.830589
v -1.830589 3.308199 1.830589
v -1.294422 2.801158 2.242005
v -1.294422 3.308199 2.242005
v -0.670042 2.801158 2.500631
v -0.670042 3.308199 2.500631
v 0.000000 2.801158 2.588843
v 0.000000 3.308199 2.588843
v 0.670042 2.801158 2.500631
v 0.670042 3.308199 2.500631
v 1.294422 2.801158 2.242005
v 1.294422 3.308199 2.242005
v 1.830589 2.801158 1.830589
v 1.830589 3.308199 1.830589
v 2.242005 2.801158 1.294422
v 2.242005 3.308199 1.294422
v 2.500631 2.801158 0.670042
v 2.500631 3.308199 0.670042
v 2.588844 2.801158 -0.000000
v 2.588844 3.308199 -0.000000
v 2.203551 5.391157 -0.590440
v 1.975650 5.391157 -1.140642
v 1.880398 5.884189 -1.085649
v 2.097312 5.884189 -0.561973
v 1.613111 5.391157 -1.613111
v 1.535339 5.884189 -1.535339
v 1.140642 5.391157 -1.975649
v 1.085649 5.884189 -1.880399
v 0.590440 5.391157 -2.203552
v 0.561973 5.884189 -2.097312
v 0.000000 5.391157 -2.281285
v 0.000000 5.884189 -2.171298
v -0.590439 5.391157 -2.203552
v -0.561973 5.884189 -2.097312
v -1.140642 5.391157 -1.975650
v -1.085649 5.884189 -1.880399
v -1.613111 5.391157 -1.613112
v -1.535339 5.884189 -1.535339
v -1.975650 5.391157 -1.140642
v -1.880399 5.884189 -1.085649
v -2.203551 5.391157 -0.590440
v -2.097313 5.884189 -0.561973
v -2.281284 5.391157 -0.000000
v -2.171298 5.884189 -0.000000
v -2.203551 5.391157 0.590440
v -2.097313 5.884189 0.561973
v -1.975650 5.391157 1.140642
v -1.880399 5.884189 1.085649
v -1.613112 5.391157 1.613112
v -1.535339 5.884189 1.535339
v -1.140642 5.391157 1.975650
v -1.085649 5.884189 1.880399
v -0.590440 5.391157 2.203552
v -0.561973 5.884189 2.097312
v 0.000000 5.391157 2.281285
v 0.000000 5.884189 2.171298
v 0.590440 5.391157 2.203552
v 0.561973 5.884189 2.097312
v 1.140642 5.391157 1.975650
v 1.085649 5.884189 1.880399
v 1.613112 5.391157 1.613112
v 1.535339 5.884189 1.535339
v 1.975650 5.391157 1.140643
v 1.880399 5.884189 1.085649
v 2.203552 5.391157 0.590440
v 2.097313 5.884189 0.561973
v 2.281285 5.391157 -0.000000
v 2.171298 5.884189 -0.000000
v 2.071370 0.179453 -0.555022
v 1.857139 0.179453 -1.072220
v 1.981867 0.694437 -1.144232
v 2.210486 0.694437 -0.592298
v 1.516348 0.179453 -1.516348
v 1.618188 0.694437 -1.618188
v 1.072220 0.179453 -1.857139
v 1.144232 0.694437 -1.981867
v 0.555022 0.179453 -2.071370
v 0.592298 0.694437 -2.210486
v 0.000000 0.179453 -2.144440
v 0.000000 0.694437 -2.288464
v -0.555022 0.179453 -2.071370
v -0.592298 0.694437 -2.210486
v -1.072220 0.179453 -1.857139
v -1.144232 0.694437 -1.981868
v -1.516348 0.179453 -1.516348
v -1.618188 0.694437 -1.618189
v -1.857139 0.179453 -1.072220
v -1.981868 0.694437 -1.144232
v -2.071370 0.179453 -0.555022
v -2.210487 0.694437 -0.592298
v -2.144441 0.179453 -0.000000
v -2.288464 0.694437 -0.000000
v -2.071370 0.179453 0.555022
v -2.210487 0.694437 0.592298
v -1.857140 0.179453 1.072220
v -1.981868 0.694437 1.144232
v -1.516348 0.179453 1.516348
v -1.618189 0.694437 1.618188
v -1.072221 0.179453 1.857140
v -1.144232 0.694437 1.981868
v -0.555022 0.179453 2.071370
v -0.592298 0.694437 2.210487
v 0.000000 0.179453 2.144441
v 0.000000 0.694437 2.288464
v 0.555022 0.179453 2.071371
v 0.592298 0.694437 2.210487
v 1.072220 0.179453 1.857140
v 1.144232 0.694437 1.981869
v 1.516348 0.179453 1.516349
v 1.618189 0.694437 1.618189
v 1.857140 0.179453 1.072221
v 1.981869 0.694437 1.144232
v 2.071371 0.179453 0.555022
v 2.210487 0.694437 0.592298
v 2.144441 0.179453 -0.000000
v 2.288465 0.694437 -0.000000
v 2.335937 2.801158 -0.625912
v 2.094344 2.801158 -1.209169
v 2.094344 3.308199 -1.209169
v 2.335937 3.308199 -0.625912
v 1.710024 2.801158 -1.710024
v 1.710024 3.308199 -1.710024
v 1.209170 2.801158 -2.094344
v 1.209170 3.308199 -2.094344
v 0.625912 2.801158 -2.335937
v 0.625912 3.308199 -2.335937
v 0.000000 2.801158 -2.418339
v 0.000000 3.308199 -2.418339
v -0.625912 2.801158 -2.335937
v -0.625912 3.308199 -2.335937
v -1.209170 2.801158 -2.094344
v -1.209170 3.308199 -2.094344
v -1.710025 2.801158 -1.710025
v -1.710025 3.308199 -1.710025
v -2.094344 2.801158 -1.209170
v -2.094344 3.308199 -1.209170
v -2.335938 2.801158 -0.625913
v -2.335938 3.308199 -0.625913
v -2.418340 2.801158 -0.000000
v -2.418339 3.308199 -0.000000
v -2.335938 2.801158 0.625912
v -2.335938 3.308199 0.625912
v -2.094345 2.801158 1.209170
v -2.094345 3.308199 1.209170
v -1.710025 2.801158 1.710025
v -1.710025 3.308199 1.710025
v -1.209170 2.801158 2.094344
v -1.209170 3.308199 2.094344
v -0.625913 2.801158 2.335938
v -0.625913 3.308199 2.335938
v 0.000000 2.801158 2.418340
v 0.000000 3.308199 2.418340
v 0.625912 2.801158 2.335938
v 0.625912 3.308199 2.335938
v 1.209170 2.801158 2.094345
v 1.209170 3.308199 2.094345
v 1.710025 2.801158 1.710025
v 1.710025 3.308199 1.710025
v 2.094345 2.801158 1.209170
v 2.094345 3.308199 1.209170
v 2.335938 2.801158 0.625913
v 2.335938 3.308199 0.625913
v 2.418340 2.801158 -0.000000
v 2.418340 3.308199 -0.000000
v 2.048451 5.366955 -0.548880
v 1.836590 5.366955 -1.060356
v 1.743622 5.859987 -1.006681
v 1.944758 5.859987 -0.521096
v 1.499570 5.366955 -1.499570
v 1.423662 5.859987 -1.423661
v 1.060356 5.366955 -1.836590
v 1.006681 5.859987 -1.743622
v 0.548881 5.366955 -2.048450
v 0.521097 5.859987 -1.944759
v 0.000000 5.366955 -2.120713
v 0.000000 5.859987 -2.013362
v -0.548880 5.366955 -2.048451
v -0.521096 5.859987 -1.944759
v -1.060356 5.366955 -1.836591
v -1.006681 5.859987 -1.743622
v -1.499570 5.366955 -1.499570
v -1.423662 5.859987 -1.423662
v -1.836591 5.366955 -1.060356
v -1.743622 5.859987 -1.006681
v -2.048451 5.366955 -0.548881
v -1.944758 5.859987 -0.521097
v -2.120712 5.366955 -0.000000
v -2.013362 5.859987 -0.000000
v -2.048451 5.366955 0.548881
v -1.944758 5.859987 0.521096
v -1.836591 5.366955 1.060356
v -1.743623 5.859987 1.006680
v -1.499570 5.366955 1.499570
v -1.423662 5.859987 1.423661
v -1.060356 5.366955 1.836591
v -1.006681 5.859987 1.743623
v -0.548881 5.366955 2.048450
v -0.521097 5.859987 1.944759
v 0.000000 5.366955 2.120713
v 0.000000 5.859987 2.013361
v 0.548881 5.366955 2.048450
v 0.521097 5.859987 1.944759
v 1.060356 5.366955 1.836591
v 1.006681 5.859987 1.743623
v 1.499570 5.366955 1.499570
v 1.423662 5.859987 1.423661
v 1.836591 5.366955 1.060356
v 1.743623 5.859987 1.006680
v 2.048452 5.366955 0.548881
v 1.944759 5.859987 0.521097
v 2.120713 5.366955 -0.000000
v 2.013363 5.859987 -0.000000
v 1.919438 0.203655 -0.514312
v 1.720921 0.203655 -0.993574
v 1.842659 0.718639 -1.063860
v 2.055219 0.718639 -0.550694
v 1.405126 0.203655 -1.405126
v 1.504525 0.718639 -1.504525
v 0.993574 0.203655 -1.720920
v 1.063860 0.718639 -1.842659
v 0.514312 0.203655 -1.919438
v 0.550695 0.718639 -2.055219
v 0.000000 0.203655 -1.987149
v 0.000000 0.718639 -2.127719
v -0.514312 0.203655 -1.919438
v -0.550694 0.718639 -2.055220
v -0.993574 0.203655 -1.720921
v -1.063860 0.718639 -1.842659
v -1.405126 0.203655 -1.405126
v -1.504525 0.718639 -1.504525
v -1.720921 0.203655 -0.993575
v -1.842659 0.718639 -1.063860
v -1.919438 0.203655 -0.514312
v -2.055220 0.718639 -0.550695
v -1.987149 0.203655 -0.000000
v -2.127720 0.718639 -0.000000
v -1.919438 0.203655 0.514312
v -2.055220 0.718639 0.550694
v -1.720921 0.203655 0.993574
v -1.842660 0.718639 1.063860
v -1.405126 0.203655 1.405126
v -1.504525 0.718639 1.504525
v -0.993575 0.203655 1.720921
v -1.063860 0.718639 1.842660
v -0.514312 0.203655 1.919438
v -0.550695 0.718639 2.055220
v 0.000000 0.203655 1.987149
v 0.000000 0.718639 2.127720
v 0.514312 0.203655 1.919439
v 0.550694 0.718639 2.055220
v 0.993575 0.203655 1.720921
v 1.063860 0.718639 1.842660
v 1.405126 0.203655 1.405126
v 1.504525 0.718639 1.504526
v 1.720921 0.203655 0.993575
v 1.842660 0.718639 1.063860
v 1.919439 0.203655 0.514312
v 2.055220 0.718639 0.550695
v 1.987149 0.203655 -0.000000
v 2.127720 0.718639 -0.000000
vn 0.9021 -0.2160 -0.3736
vn 0.9021 -0.2159 -0.3737
vn 0.9021 -0.2159 -0.3736
vn 0.6685 -0.3258 -0.6685
vn 0.6954 -0.1814 -0.6954
vn 0.4727 -0.3258 -0.8188
vn 0.4917 -0.1813 -0.8517
vn 0.2447 -0.3258 -0.9132
vn 0.2545 -0.1814 -0.9499
vn -0.0000 -0.3258 -0.9455
vn -0.0000 -0.1814 -0.9834
vn -0.2447 -0.3258 -0.9132
vn -0.2545 -0.1814 -0.9499
vn -0.4727 -0.3258 -0.8188
vn -0.4917 -0.1814 -0.8517
vn -0.6685 -0.3258 -0.6685
vn -0.6954 -0.1813 -0.6954
vn -0.8188 -0.3258 -0.4727
vn -0.8517 -0.1814 -0.4917
vn -0.9132 -0.3258 -0.2447
vn -0.9499 -0.1814 -0.2545
vn -0.9455 -0.3258 -0.0000
vn -0.9834 -0.1814 -0.0000
vn -0.9132 -0.3258 0.2447
vn -0.9499 -0.1814 0.2545
vn -0.8188 -0.3258 0.4727
vn -0.8517 -0.1814 0.4917
vn -0.6685 -0.3258 0.6685
vn -0.6954 -0.1814 0.6954
vn -0.4727 -0.3258 0.8188
vn -0.4917 -0.1813 0.8517
vn -0.2447 -0.3258 0.9132
vn -0.2545 -0.1814 0.9499
vn -0.0000 -0.3258 0.9455
vn -0.0000 -0.1814 0.9834
vn 0.2447 -0.3258 0.9132
vn 0.2545 -0.1814 0.9499
vn 0.4727 -0.3258 0.8188
vn 0.4917 -0.1813 0.8517
vn 0.6685 -0.3258 0.6685
vn 0.6954 -0.1814 0.6954
vn 0.8188 -0.3258 0.4727
vn 0.8517 -0.1814 0.4917
vn 0.9132 -0.3258 0.2447
vn 0.9499 -0.1814 0.2545
vn 0.9455 -0.3258 -0.0000
vn 0.9834 -0.1814 -0.0000
vn 0.9633 -0.0733 -0.2581
vn 0.8637 -0.0732 -0.4987
vn 0.7052 -0.0732 -0.7052
vn 0.4987 -0.0731 -0.8637
vn 0.2581 -0.0732 -0.9633
vn -0.0000 -0.0731 -0.9973
vn -0.2581 -0.0732 -0.9633
vn -0.4987 -0.0732 -0.8637
vn -0.7052 -0.0732 -0.7052
vn -0.8637 -0.0732 -0.4987
vn -0.9633 -0.0732 -0.2581
vn -0.9973 -0.0732 -0.0000
vn -0.9633 -0.0731 0.2581
vn -0.8637 -0.0732 0.4987
vn -0.7052 -0.0732 0.7052
vn -0.4987 -0.0732 0.8637
vn -0.2581 -0.0732 0.9633
vn -0.0000 -0.0732 0.9973
vn 0.2581 -0.0732 0.9633
vn 0.4987 -0.0732 0.8637
vn 0.7052 -0.0732 0.7052
vn 0.8637 -0.0731 0.4987
vn 0.9633 -0.0732 0.2581
vn 0.9973 -0.0732 -0.0000
vn 0.9633 0.0733 -0.2581
vn 0.8637 0.0732 -0.4987
vn 0.7052 0.0732 -0.7052
vn 0.4987 0.0732 -0.8637
vn 0.2581 0.0732 -0.9633
vn -0.0000 0.0732 -0.9973
vn -0.2581 0.0732 -0.9633
vn -0.4987 0.0731 -0.8637
vn -0.7052 0.0732 -0.7052
vn -0.8637 0.0731 -0.4987
vn -0.9633 0.0732 -0.2581
vn -0.9973 0.0732 -0.0000
vn -0.9633 0.0732 0.2581
vn -0.8637 0.0732 0.4987
vn -0.7052 0.0732 0.7052
vn -0.4987 0.0732 0.8637
vn -0.2581 0.0732 0.9633
vn -0.0000 0.0732 0.9973
vn 0.2581 0.0732 0.9633
vn 0.4987 0.0732 0.8637
vn 0.7052 0.0732 0.7052
vn 0.8637 0.0731 0.4987
vn 0.9633 0.0731 0.2581
vn 0.9973 0.0733 -0.0000
vn 0.9499 0.1814 -0.2545
vn 0.8517 0.1813 -0.4917
vn 0.6954 0.1814 -0.6954
vn 0.4917 0.1814 -0.8517
vn 0.2545 0.1814 -0.9499
vn -0.0000 0.1814 -0.9834
vn -0.2545 0.1814 -0.9499
vn -0.4917 0.1814 -0.8517
vn -0.6954 0.1813 -0.6954
vn -0.8517 0.1813 -0.4917
vn -0.9499 0.1814 -0.2545
vn -0.9834 0.1814 -0.0000
vn -0.9499 0.1814 0.2545
vn -0.8517 0.1814 0.4917
vn -0.6954 0.1814 0.6954
vn -0.4917 0.1813 0.8517
vn -0.2545 0.1814 0.9499
vn -0.0000 0.1814 0.9834
vn 0.2545 0.1814 0.9499
vn 0.4917 0.1814 0.8517
vn 0.6954 0.1814 0.6954
vn 0.8517 0.1814 0.4917
vn 0.9499 0.1814 0.2545
vn 0.9834 0.1814 -0.0000
vn 0.9132 0.3258 -0.2447
vn 0.8188 0.3258 -0.4727
vn 0.6685 0.3258 -0.6686
vn 0.4727 0.3258 -0.8188
vn 0.2447 0.3258 -0.9132
vn -0.0000 0.3258 -0.9455
vn -0.2447 0.3258 -0.9132
vn -0.4727 0.3258 -0.8188
vn -0.6686 0.3258 -0.6685
vn -0.8188 0.3258 -0.4727
vn -0.9132 0.3258 -0.2447
vn -0.9455 0.3258 -0.0000
vn -0.9132 0.3258 0.2447
vn -0.8188 0.3258 0.4727
vn -0.6685 0.3258 0.6686
vn -0.4727 0.3258 0.8188
vn -0.2447 0.3258 0.9132
vn -0.0000 0.3258 0.9455
vn 0.2447 0.3258 0.9132
vn 0.4727 0.3258 0.8188
vn 0.6686 0.3258 0.6685
vn 0.8188 0.3258 0.4727
vn 0.9132 0.3258 0.2447
vn 0.9455 0.3258 -0.0000
vn -0.3263 -0.9263 0.1884
vn -0.3639 -0.9263 0.0976
vn -0.0000 -1.0000 -0.0000
vn -0.2664 -0.9263 0.2664
vn -0.1884 -0.9263 0.3263
vn -0.0975 -0.9263 0.3639
vn -0.0000 -0.9263 0.3768
vn 0.0975 -0.9263 0.3639
vn 0.1884 -0.9263 0.3263
vn 0.2664 -0.9263 0.2664
vn 0.3263 -0.9263 0.1884
vn 0.3639 -0.9263 0.0975
vn 0.3768 -0.9263 -0.0000
vn 0.3639 -0.9263 -0.0975
vn 0.3263 -0.9263 -0.1884
vn 0.2664 -0.9263 -0.2664
vn 0.1884 -0.9263 -0.3263
vn 0.0975 -0.9263 -0.3639
vn -0.0000 -0.9263 -0.3768
vn -0.0975 -0.9263 -0.3639
vn -0.1884 -0.9263 -0.3263
vn -0.2664 -0.9263 -0.2664
vn -0.3263 -0.9263 -0.1884
vn -0.3639 -0.9263 -0.0975
vn -0.3768 -0.9263 -0.0000
vn -0.3639 0.9263 0.0975
vn -0.3264 0.9263 0.1883
vn -0.0000 1.0000 -0.0000
vn -0.2665 0.9263 0.2663
vn -0.1884 0.9263 0.3263
vn -0.0976 0.9263 0.3639
vn -0.0000 0.9263 0.3768
vn 0.0974 0.9263 0.3640
vn 0.1883 0.9263 0.3263
vn 0.2664 0.9263 0.2664
vn 0.3263 0.9263 0.1884
vn 0.3639 0.9263 0.0976
vn 0.3768 0.9263 -0.0000
vn 0.3639 0.9263 -0.0975
vn 0.3264 0.9263 -0.1883
vn 0.2664 0.9263 -0.2664
vn 0.1885 0.9263 -0.3262
vn 0.0976 0.9263 -0.3639
vn 0.0001 0.9263 -0.3768
vn -0.0975 0.9263 -0.3639
vn -0.1883 0.9263 -0.3263
vn -0.2664 0.9263 -0.2664
vn -0.3263 0.9263 -0.1884
vn -0.3639 0.9263 -0.0976
vn -0.3768 0.9263 -0.0002
vn -0.7896 -0.4108 0.4558
vn -0.8806 -0.4108 0.2360
vn -0.6447 -0.4108 0.6446
vn -0.4557 -0.4108 0.7896
vn -0.2360 -0.4108 0.8806
vn -0.0002 -0.4108 0.9117
vn 0.2359 -0.4108 0.8806
vn 0.4558 -0.4108 0.7896
vn 0.6447 -0.4108 0.6447
vn 0.7895 -0.4108 0.4559
vn 0.8806 -0.4108 0.2360
vn 0.9117 -0.4108 -0.0000
vn 0.8806 -0.4108 -0.2359
vn 0.7896 -0.4108 -0.4558
vn 0.6447 -0.4108 -0.6447
vn 0.4559 -0.4108 -0.7895
vn 0.2361 -0.4108 -0.8806
vn -0.0000 -0.4108 -0.9117
vn -0.2359 -0.4108 -0.8806
vn -0.4558 -0.4108 -0.7896
vn -0.6447 -0.4108 -0.6447
vn -0.7895 -0.4108 -0.4559
vn -0.8806 -0.4108 -0.2360
vn -0.9117 -0.4108 -0.0000
vn -0.8806 0.4108 0.2360
vn -0.7896 0.4108 0.4558
vn -0.6447 0.4108 0.6446
vn -0.4559 0.4108 0.7895
vn -0.2360 0.4108 0.8806
vn -0.0000 0.4108 0.9117
vn 0.2359 0.4108 0.8807
vn 0.4558 0.4108 0.7896
vn 0.6446 0.4108 0.6447
vn 0.7895 0.4108 0.4559
vn 0.8806 0.4108 0.2360
vn 0.9117 0.4108 -0.0000
vn 0.8807 0.4108 -0.2359
vn 0.7896 0.4108 -0.4558
vn 0.6447 0.4108 -0.6446
vn 0.4559 0.4108 -0.7895
vn 0.2360 0.4108 -0.8806
vn -0.0000 0.4108 -0.9117
vn -0.2359 0.4108 -0.8807
vn -0.4558 0.4108 -0.7896
vn -0.6446 0.4108 -0.6447
vn -0.7895 0.4108 -0.4559
vn -0.8806 0.4108 -0.2360
vn -0.9117 0.4108 -0.0000
vn 0.9257 0.2857 -0.2480
vn 0.9257 -0.2857 -0.2481
vn 0.8300 -0.2857 -0.4791
vn 0.8300 0.2857 -0.4791
vn 0.6777 -0.2857 -0.6776
vn 0.6777 0.2857 -0.6776
vn 0.4792 -0.2857 -0.8299
vn 0.4792 0.2857 -0.8299
vn 0.2481 -0.2857 -0.9257
vn 0.2481 0.2857 -0.9257
vn -0.0000 -0.2857 -0.9583
vn -0.0000 0.2857 -0.9583
vn -0.2480 -0.2857 -0.9257
vn -0.2480 0.2857 -0.9257
vn -0.4791 -0.2857 -0.8300
vn -0.4791 0.2857 -0.8300
vn -0.6776 -0.2857 -0.6777
vn -0.6776 0.2857 -0.6777
vn -0.8299 -0.2857 -0.4792
vn -0.8299 0.2857 -0.4792
vn -0.9257 -0.2857 -0.2481
vn -0.9257 0.2857 -0.2481
vn -0.9583 -0.2857 -0.0000
vn -0.9583 0.2857 -0.0000
vn -0.9257 -0.2857 0.2480
vn -0.9257 0.2857 0.2480
vn -0.8300 -0.2857 0.4791
vn -0.8300 0.2857 0.4791
vn -0.6777 -0.2857 0.6776
vn -0.6777 0.2857 0.6776
vn -0.4792 -0.2857 0.8299
vn -0.4792 0.2857 0.8299
vn -0.2481 -0.2857 0.9257
vn -0.2481 0.2857 0.9257
vn -0.0000 -0.2857 0.9583
vn -0.0000 0.2857 0.9583
vn 0.2480 -0.2857 0.9257
vn 0.2480 0.2857 0.9257
vn 0.4791 -0.2857 0.8300
vn 0.4791 0.2857 0.8300
vn 0.6776 -0.2857 0.6777
vn 0.6776 0.2857 0.6777
vn 0.8299 -0.2857 0.4792
vn 0.8299 0.2857 0.4792
vn 0.9257 -0.2857 0.2481
vn 0.9257 0.2857 0.2481
vn 0.9583 -0.2857 -0.0000
vn 0.9583 0.2857 -0.0000
vn 0.8593 0.4568 -0.2302
vn 0.9631 -0.0763 -0.2581
vn 0.8635 -0.0763 -0.4985
vn 0.7704 0.4568 -0.4447
vn 0.7051 -0.0763 -0.7050
vn 0.6291 0.4568 -0.6290
vn 0.4986 -0.0763 -0.8635
vn 0.4448 0.4568 -0.7704
vn 0.2581 -0.0763 -0.9631
vn 0.2303 0.4568 -0.8593
vn -0.0000 -0.0763 -0.9971
vn 0.0001 0.4568 -0.8896
vn -0.2580 -0.0763 -0.9631
vn -0.2302 0.4568 -0.8593
vn -0.4985 -0.0763 -0.8635
vn -0.4447 0.4568 -0.7704
vn -0.7050 -0.0763 -0.7051
vn -0.6290 0.4568 -0.6291
vn -0.8635 -0.0763 -0.4986
vn -0.7704 0.4568 -0.4448
vn -0.9631 -0.0763 -0.2581
vn -0.8593 0.4568 -0.2303
vn -0.9971 -0.0763 -0.0000
vn -0.8896 0.4568 -0.0000
vn -0.9631 -0.0763 0.2580
vn -0.8593 0.4568 0.2302
vn -0.8635 -0.0763 0.4985
vn -0.7704 0.4568 0.4448
vn -0.7051 -0.0763 0.7050
vn -0.6291 0.4568 0.6290
vn -0.4986 -0.0763 0.8635
vn -0.4448 0.4568 0.7704
vn -0.2581 -0.0763 0.9631
vn -0.2303 0.4568 0.8593
vn -0.0000 -0.0763 0.9971
vn -0.0001 0.4568 0.8896
vn 0.2580 -0.0763 0.9631
vn 0.2302 0.4568 0.8593
vn 0.4985 -0.0763 0.8635
vn 0.4448 0.4568 0.7704
vn 0.7050 -0.0763 0.7051
vn 0.6290 0.4568 0.6291
vn 0.8635 -0.0763 0.4986
vn 0.7704 0.4568 0.4448
vn 0.9631 -0.0763 0.2581
vn 0.8593 0.4568 0.2303
vn 0.9971 -0.0763 -0.0000
vn 0.8896 0.4568 -0.0000
vn 0.9658 0.0142 -0.2588
vn 0.8448 -0.4848 -0.2264
vn 0.7574 -0.4848 -0.4373
vn 0.8659 0.0142 -0.5000
vn 0.6185 -0.4848 -0.6184
vn 0.7070 0.0142 -0.7070
vn 0.4373 -0.4848 -0.7574
vn 0.4999 0.0142 -0.8659
vn 0.2264 -0.4848 -0.8448
vn 0.2588 0.0142 -0.9658
vn -0.0000 -0.4848 -0.8746
vn -0.0000 0.0142 -0.9999
vn -0.2264 -0.4848 -0.8448
vn -0.2588 0.0142 -0.9658
vn -0.4373 -0.4848 -0.7574
vn -0.5000 0.0142 -0.8659
vn -0.6184 -0.4848 -0.6185
vn -0.7070 0.0142 -0.7070
vn -0.7574 -0.4848 -0.4373
vn -0.8659 0.0142 -0.4999
vn -0.8448 -0.4848 -0.2264
vn -0.9658 0.0142 -0.2588
vn -0.8746 -0.4848 -0.0000
vn -0.9999 0.0142 -0.0000
vn -0.8448 -0.4848 0.2264
vn -0.9658 0.0142 0.2588
vn -0.7574 -0.4848 0.4373
vn -0.8659 0.0142 0.5000
vn -0.6185 -0.4848 0.6184
vn -0.7070 0.0142 0.7070
vn -0.4373 -0.4848 0.7574
vn -0.4999 0.0142 0.8659
vn -0.2264 -0.4848 0.8448
vn -0.2588 0.0142 0.9658
vn -0.0000 -0.4848 0.8746
vn -0.0000 0.0142 0.9999
vn 0.2264 -0.4848 0.8448
vn 0.2588 0.0142 0.9658
vn 0.4373 -0.4848 0.7574
vn 0.5000 0.0142 0.8659
vn 0.6184 -0.4848 0.6185
vn 0.7070 0.0142 0.7070
vn 0.7574 -0.4848 0.4373
vn 0.8659 0.0142 0.4999
vn 0.8448 -0.4848 0.2264
vn 0.9658 0.0142 0.2588
vn 0.8746 -0.4848 -0.0000
vn 0.9999 0.0142 -0.0000
vn 0.1440 -0.9888 -0.0386
vn 0.1291 -0.9888 -0.0745
vn -0.1312 0.9885 0.0757
vn -0.1463 0.9885 0.0392
vn 0.1054 -0.9888 -0.1054
vn -0.1071 0.9885 0.1071
vn 0.0745 -0.9888 -0.1291
vn -0.0757 0.9885 0.1312
vn 0.0386 -0.9888 -0.1440
vn -0.0392 0.9885 0.1463
vn -0.0000 -0.9888 -0.1490
vn -0.0000 0.9885 0.1515
vn -0.0386 -0.9888 -0.1440
vn 0.0392 0.9885 0.1463
vn -0.0745 -0.9888 -0.1291
vn 0.0757 0.9885 0.1312
vn -0.1054 -0.9888 -0.1054
vn 0.1071 0.9885 0.1071
vn -0.1291 -0.9888 -0.0745
vn 0.1312 0.9885 0.0757
vn -0.1440 -0.9888 -0.0386
vn 0.1463 0.9885 0.0392
vn -0.1490 -0.9888 -0.0000
vn 0.1515 0.9885 -0.0000
vn -0.1440 -0.9888 0.0386
vn 0.1463 0.9885 -0.0392
vn -0.1291 -0.9888 0.0745
vn 0.1312 0.9885 -0.0757
vn -0.1054 -0.9888 0.1054
vn 0.1071 0.9885 -0.1071
vn -0.0745 -0.9888 0.1291
vn 0.0757 0.9885 -0.1312
vn -0.0386 -0.9888 0.1440
vn 0.0392 0.9885 -0.1463
vn -0.0000 -0.9888 0.1490
vn -0.0000 0.9885 -0.1515
vn 0.0386 -0.9888 0.1440
vn -0.0392 0.9885 -0.1463
vn 0.0745 -0.9888 0.1291
vn -0.0757 0.9885 -0.1312
vn 0.1054 -0.9888 0.1054
vn -0.1071 0.9885 -0.1071
vn 0.1291 -0.9888 0.0745
vn -0.1312 0.9885 -0.0757
vn 0.1440 -0.9888 0.0386
vn -0.1463 0.9885 -0.0392
vn 0.1490 -0.9888 -0.0000
vn -0.1515 0.9885 -0.0000
vn -0.1469 -0.9884 0.0394
vn -0.1317 -0.9884 0.0760
vn 0.1289 0.9889 -0.0744
vn 0.1438 0.9889 -0.0385
vn -0.1075 -0.9884 0.1075
vn 0.1053 0.9889 -0.1053
vn -0.0760 -0.9884 0.1317
vn 0.0744 0.9889 -0.1289
vn -0.0394 -0.9884 0.1469
vn 0.0385 0.9889 -0.1438
vn -0.0000 -0.9884 0.1521
vn -0.0000 0.9889 -0.1489
vn 0.0394 -0.9884 0.1469
vn -0.0385 0.9889 -0.1438
vn 0.0760 -0.9884 0.1317
vn -0.0744 0.9889 -0.1289
vn 0.1075 -0.9884 0.1075
vn -0.1053 0.9889 -0.1053
vn 0.1317 -0.9884 0.0760
vn -0.1289 0.9889 -0.0744
vn 0.1469 -0.9884 0.0394
vn -0.1438 0.9889 -0.0385
vn 0.1521 -0.9884 -0.0000
vn -0.1489 0.9889 -0.0000
vn 0.1469 -0.9884 -0.0394
vn -0.1438 0.9889 0.0385
vn 0.1317 -0.9884 -0.0760
vn -0.1289 0.9889 0.0744
vn 0.1075 -0.9884 -0.1075
vn -0.1053 0.9889 0.1053
vn 0.0760 -0.9884 -0.1317
vn -0.0744 0.9889 0.1289
vn 0.0394 -0.9884 -0.1469
vn -0.0385 0.9889 0.1438
vn -0.0000 -0.9884 -0.1521
vn -0.0000 0.9889 0.1489
vn -0.0394 -0.9884 -0.1469
vn 0.0385 0.9889 0.1438
vn -0.0760 -0.9884 -0.1317
vn 0.0744 0.9889 0.1289
vn -0.1075 -0.9884 -0.1075
vn 0.1053 0.9889 0.1053
vn -0.1317 -0.9884 -0.0760
vn 0.1289 0.9889 0.0744
vn -0.1469 -0.9884 -0.0394
vn 0.1438 0.9889 0.0385
vn -0.1521 -0.9884 -0.0000
vn 0.1489 0.9889 -0.0000
vt 0.729884 0.079842
vt 0.729884 0.000000
vt 0.768298 0.000000
vt 0.768298 0.079842
vt 0.806713 0.000000
vt 0.806713 0.079842
vt 0.845128 0.000000
vt 0.845128 0.079842
vt 0.883543 0.000000
vt 0.883543 0.079842
vt 0.921958 0.000000
vt 0.921958 0.079842
vt 0.000000 0.079842
vt 0.000000 0.000000
vt 0.038415 0.000000
vt 0.038415 0.079842
vt 0.076830 0.000000
vt 0.076830 0.079842
vt 0.115245 0.000000
vt 0.115245 0.079842
vt 0.153660 0.000000
vt 0.153660 0.079842
vt 0.192075 0.000000
vt 0.192075 0.079842
vt 0.230489 0.000000
vt 0.230489 0.079842
vt 0.268904 0.000000
vt 0.268904 0.079842
vt 0.307319 0.000000
vt 0.307319 0.079842
vt 0.345734 0.000000
vt 0.345734 0.079842
vt 0.384149 0.000000
vt 0.384149 0.079842
vt 0.422564 0.000000
vt 0.422564 0.079842
vt 0.460979 0.000000
vt 0.460979 0.079842
vt 0.499394 0.000000
vt 0.499394 0.079842
vt 0.537809 0.000000
vt 0.537809 0.079842
vt 0.576224 0.000000
vt 0.576224 0.079842
vt 0.614639 0.000000
vt 0.614639 0.079842
vt 0.653054 0.000000
vt 0.653054 0.079842
vt 0.691469 0.000000
vt 0.691469 0.079842
vt 0.729884 0.159683
vt 0.768298 0.159683
vt 0.806713 0.159683
vt 0.845128 0.159683
vt 0.883543 0.159683
vt 0.921958 0.159683
vt 0.000000 0.159683
vt 0.038415 0.159683
vt 0.076830 0.159683
vt 0.115245 0.159683
vt 0.153660 0.159683
vt 0.192075 0.159683
vt 0.230489 0.159683
vt 0.268904 0.159683
vt 0.307319 0.159683
vt 0.345734 0.159683
vt 0.384149 0.159683
vt 0.422564 0.159683
vt 0.460979 0.159683
vt 0.499394 0.159683
vt 0.537809 0.159683
vt 0.576224 0.159683
vt 0.614639 0.159683
vt 0.653054 0.159683
vt 0.691469 0.159683
vt 0.729884 0.239525
vt 0.768298 0.239525
vt 0.806713 0.239525
vt 0.845128 0.239525
vt 0.883543 0.239525
vt 0.921958 0.239525
vt 0.000000 0.239525
vt 0.038415 0.239525
vt 0.076830 0.239525
vt 0.115245 0.239525
vt 0.153660 0.239525
vt 0.192075 0.239525
vt 0.230489 0.239525
vt 0.268904 0.239525
vt 0.307319 0.239525
vt 0.345734 0.239525
vt 0.384149 0.239525
vt 0.422564 0.239525
vt 0.460979 0.239525
vt 0.499394 0.239525
vt 0.537809 0.239525
vt 0.576224 0.239525
vt 0.614639 0.239525
vt 0.653054 0.239525
vt 0.691469 0.239525
vt 0.729884 0.319366
vt 0.768298 0.319366
vt 0.806713 0.319366
vt 0.845128 0.319366
vt 0.883543 0.319366
vt 0.921958 0.319366
vt 0.000000 0.319366
vt 0.038415 0.319366
vt 0.076830 0.319366
vt 0.115245 0.319366
vt 0.153660 0.319366
vt 0.192075 0.319366
vt 0.230489 0.319366
vt 0.268904 0.319366
vt 0.307319 0.319366
vt 0.345734 0.319366
vt 0.384149 0.319366
vt 0.422564 0.319366
vt 0.460979 0.319366
vt 0.499394 0.319366
vt 0.537809 0.319366
vt 0.576224 0.319366
vt 0.614639 0.319366
vt 0.653054 0.319366
vt 0.691469 0.319366
vt 0.729884 0.399208
vt 0.768298 0.399208
vt 0.806713 0.399208
vt 0.845128 0.399208
vt 0.883543 0.399208
vt 0.921958 0.399208
vt 0.000000 0.399208
vt 0.038415 0.399208
vt 0.076830 0.399208
vt 0.115245 0.399208
vt 0.153660 0.399208
vt 0.192075 0.399208
vt 0.230489 0.399208
vt 0.268904 0.399208
vt 0.307319 0.399208
vt 0.345734 0.399202
vt 0.384149 0.399201
vt 0.422564 0.399201
vt 0.460979 0.399208
vt 0.499394 0.399208
vt 0.537809 0.399208
vt 0.576224 0.399208
vt 0.614639 0.399208
vt 0.653054 0.399208
vt 0.691469 0.399208
vt 0.578524 0.499938
vt 0.588306 0.531434
vt 0.463797 0.552837
vt 0.560924 0.472046
vt 0.536704 0.449661
vt 0.507516 0.434307
vt 0.475348 0.427030
vt 0.442394 0.428327
vt 0.410897 0.438109
vt 0.383006 0.455710
vt 0.360621 0.479930
vt 0.345267 0.509118
vt 0.337990 0.541285
vt 0.339287 0.574240
vt 0.349069 0.605736
vt 0.366670 0.633627
vt 0.390890 0.656013
vt 0.420078 0.671367
vt 0.452245 0.678644
vt 0.485200 0.677347
vt 0.516696 0.667564
vt 0.544587 0.649964
vt 0.566973 0.625744
vt 0.582327 0.596556
vt 0.589604 0.564388
vt 0.273911 0.593020
vt 0.259524 0.622697
vt 0.154009 0.553216
vt 0.237945 0.647638
vt 0.210647 0.666145
vt 0.179489 0.676956
vt 0.146595 0.679334
vt 0.114206 0.673118
vt 0.084529 0.658731
vt 0.059588 0.637152
vt 0.041081 0.609854
vt 0.030270 0.578696
vt 0.027891 0.545802
vt 0.034108 0.513413
vt 0.048495 0.483736
vt 0.070073 0.458795
vt 0.097371 0.440288
vt 0.128529 0.429477
vt 0.161424 0.427098
vt 0.193813 0.433315
vt 0.223490 0.447702
vt 0.248431 0.469280
vt 0.266938 0.496578
vt 0.277749 0.527736
vt 0.280128 0.560631
vt 0.592908 0.493286
vt 0.603894 0.488233
vt 0.615841 0.526694
vt 0.603922 0.528732
vt 0.573096 0.461899
vt 0.582399 0.454175
vt 0.545835 0.436709
vt 0.552822 0.426840
vt 0.512984 0.419433
vt 0.517179 0.408092
vt 0.476780 0.411248
vt 0.477897 0.399208
vt 0.439692 0.412712
vt 0.437654 0.400793
vt 0.404246 0.423726
vt 0.399193 0.412740
vt 0.372859 0.443538
vt 0.365135 0.434234
vt 0.347669 0.470798
vt 0.337800 0.463811
vt 0.330393 0.503650
vt 0.319052 0.499455
vt 0.322208 0.539853
vt 0.310167 0.538737
vt 0.323672 0.576942
vt 0.311753 0.578979
vt 0.334685 0.612387
vt 0.323700 0.617441
vt 0.354498 0.643775
vt 0.345194 0.651499
vt 0.381758 0.668965
vt 0.374771 0.678834
vt 0.414610 0.686241
vt 0.410415 0.697582
vt 0.450813 0.694426
vt 0.449697 0.706466
vt 0.487902 0.692962
vt 0.489940 0.704881
vt 0.523347 0.681948
vt 0.528401 0.692934
vt 0.554735 0.662136
vt 0.562459 0.671439
vt 0.579925 0.634875
vt 0.589794 0.641863
vt 0.597201 0.602024
vt 0.608542 0.606219
vt 0.605386 0.565820
vt 0.617426 0.566937
vt 0.288957 0.597996
vt 0.300429 0.601817
vt 0.282861 0.638057
vt 0.272768 0.631398
vt 0.256513 0.668515
vt 0.248487 0.659471
vt 0.223178 0.691116
vt 0.217767 0.680303
vt 0.185130 0.704320
vt 0.182702 0.692474
vt 0.144961 0.707226
vt 0.145682 0.695155
vt 0.105409 0.699636
vt 0.109229 0.688164
vt 0.069169 0.682068
vt 0.075828 0.671975
vt 0.038710 0.655720
vt 0.047755 0.647694
vt 0.016109 0.622385
vt 0.026923 0.616974
vt 0.002906 0.584337
vt 0.014752 0.581909
vt -0.000000 0.544168
vt 0.012071 0.544889
vt 0.007589 0.504616
vt 0.019062 0.508436
vt 0.025157 0.468376
vt 0.035250 0.475035
vt 0.051539 0.437979
vt 0.059842 0.447136
vt 0.084909 0.415484
vt 0.090536 0.426571
vt 0.122909 0.402182
vt 0.125387 0.414305
vt 0.163057 0.399207
vt 0.162337 0.411278
vt 0.202610 0.406796
vt 0.198790 0.418269
vt 0.238850 0.424364
vt 0.232191 0.434457
vt 0.269308 0.450713
vt 0.260264 0.458739
vt 0.291910 0.484048
vt 0.281096 0.489459
vt 0.305113 0.522096
vt 0.293267 0.524523
vt 0.308019 0.562265
vt 0.295948 0.561544
vt 0.000000 0.756475
vt 0.000000 0.717896
vt 0.041667 0.717896
vt 0.041667 0.756475
vt 0.083333 0.717896
vt 0.083333 0.756475
vt 0.125000 0.717896
vt 0.125000 0.756475
vt 0.166666 0.717896
vt 0.166666 0.756475
vt 0.208333 0.717896
vt 0.208333 0.756475
vt 0.250000 0.717896
vt 0.250000 0.756475
vt 0.291666 0.717896
vt 0.291666 0.756475
vt 0.333333 0.717896
vt 0.333333 0.756475
vt 0.374999 0.717896
vt 0.374999 0.756475
vt 0.416666 0.717896
vt 0.416666 0.756475
vt 0.458333 0.717896
vt 0.458333 0.756475
vt 0.499999 0.717896
vt 0.499999 0.756475
vt 0.541666 0.717896
vt 0.541666 0.756475
vt 0.583333 0.717896
vt 0.583333 0.756475
vt 0.624999 0.717896
vt 0.624999 0.756475
vt 0.666666 0.717896
vt 0.666666 0.756475
vt 0.708333 0.717896
vt 0.708333 0.756475
vt 0.750000 0.717896
vt 0.750000 0.756475
vt 0.791666 0.717896
vt 0.791666 0.756475
vt 0.833333 0.717896
vt 0.833333 0.756475
vt 0.875000 0.717896
vt 0.875000 0.756475
vt 0.916667 0.717896
vt 0.916667 0.756475
vt 0.958333 0.717896
vt 0.958333 0.756475
vt 1.000000 0.717896
vt 1.000000 0.756475
vt 0.000000 0.878038
vt 0.000000 0.843205
vt 0.038689 0.843205
vt 0.038689 0.878038
vt 0.077378 0.843205
vt 0.077378 0.878038
vt 0.116067 0.843205
vt 0.116067 0.878038
vt 0.154756 0.843205
vt 0.154756 0.878038
vt 0.193445 0.843205
vt 0.193445 0.878038
vt 0.232134 0.843205
vt 0.232134 0.878038
vt 0.270823 0.843205
vt 0.270823 0.878038
vt 0.309512 0.843205
vt 0.309512 0.878038
vt 0.348201 0.843205
vt 0.348201 0.878038
vt 0.386890 0.843205
vt 0.386890 0.878038
vt 0.425579 0.843205
vt 0.425579 0.878038
vt 0.464268 0.843205
vt 0.464268 0.878038
vt 0.502958 0.843205
vt 0.502958 0.878038
vt 0.541647 0.843205
vt 0.541647 0.878038
vt 0.580336 0.843205
vt 0.580336 0.878038
vt 0.619025 0.843205
vt 0.619025 0.878038
vt 0.657714 0.843205
vt 0.657714 0.878038
vt 0.696403 0.843205
vt 0.696403 0.878038
vt 0.735093 0.843205
vt 0.735093 0.878038
vt 0.773782 0.843205
vt 0.773782 0.878038
vt 0.812471 0.843205
vt 0.812471 0.878038
vt 0.851160 0.843205
vt 0.851160 0.878038
vt 0.889849 0.843205
vt 0.889849 0.878038
vt 0.928538 0.843205
vt 0.928538 0.878038
vt 0.000000 0.820771
vt 0.000000 0.779689
vt 0.034846 0.779689
vt 0.034846 0.820771
vt 0.069693 0.779689
vt 0.069693 0.820771
vt 0.104539 0.779689
vt 0.104539 0.820771
vt 0.139385 0.779689
vt 0.139385 0.820771
vt 0.174231 0.779689
vt 0.174231 0.820771
vt 0.209078 0.779689
vt 0.209078 0.820771
vt 0.243924 0.779689
vt 0.243924 0.820771
vt 0.278770 0.779689
vt 0.278770 0.820771
vt 0.313617 0.779689
vt 0.313617 0.820771
vt 0.348463 0.779689
vt 0.348463 0.820771
vt 0.383309 0.779689
vt 0.383309 0.820771
vt 0.418156 0.779689
vt 0.418156 0.820771
vt 0.453002 0.779689
vt 0.453002 0.820771
vt 0.487848 0.779689
vt 0.487848 0.820771
vt 0.522695 0.779689
vt 0.522695 0.820771
vt 0.557541 0.779689
vt 0.557541 0.820771
vt 0.592387 0.779689
vt 0.592387 0.820771
vt 0.627234 0.779689
vt 0.627234 0.820771
vt 0.662080 0.779689
vt 0.662080 0.820771
vt 0.696927 0.779689
vt 0.696927 0.820771
vt 0.731773 0.779689
vt 0.731773 0.820771
vt 0.766620 0.779689
vt 0.766620 0.820771
vt 0.801466 0.779689
vt 0.801466 0.820771
vt 0.836312 0.779689
vt 0.836312 0.820771
vt 0.000000 0.707224
vt 0.041667 0.707224
vt 0.041667 0.768669
vt 0.000000 0.768669
vt 0.083333 0.707224
vt 0.083333 0.768669
vt 0.125000 0.707224
vt 0.125000 0.768669
vt 0.166666 0.707224
vt 0.166666 0.768669
vt 0.208333 0.707224
vt 0.208333 0.768669
vt 0.250000 0.707224
vt 0.250000 0.768669
vt 0.291666 0.707224
vt 0.291666 0.768669
vt 0.333333 0.707224
vt 0.333333 0.768669
vt 0.374999 0.707224
vt 0.374999 0.768669
vt 0.416666 0.707224
vt 0.416666 0.768669
vt 0.458333 0.707224
vt 0.458333 0.768669
vt 0.499999 0.707224
vt 0.499999 0.768669
vt 0.541666 0.707224
vt 0.541666 0.768669
vt 0.583333 0.707224
vt 0.583333 0.768669
vt 0.624999 0.707224
vt 0.624999 0.768669
vt 0.666666 0.707224
vt 0.666666 0.768669
vt 0.708333 0.707224
vt 0.708333 0.768669
vt 0.750000 0.707224
vt 0.750000 0.768669
vt 0.791666 0.707224
vt 0.791666 0.768669
vt 0.833333 0.707224
vt 0.833333 0.768669
vt 0.875000 0.707224
vt 0.875000 0.768669
vt 0.916667 0.707224
vt 0.916667 0.768669
vt 0.958333 0.707224
vt 0.958333 0.768669
vt 1.000000 0.707224
vt 1.000000 0.768669
vt 0.000000 0.832182
vt 0.038689 0.832182
vt 0.038689 0.887660
vt 0.000000 0.887660
vt 0.077378 0.832182
vt 0.077378 0.887660
vt 0.116067 0.832182
vt 0.116067 0.887660
vt 0.154756 0.832182
vt 0.154756 0.887660
vt 0.193445 0.832182
vt 0.193445 0.887660
vt 0.232134 0.832182
vt 0.232134 0.887660
vt 0.270823 0.832182
vt 0.270823 0.887660
vt 0.309512 0.832182
vt 0.309512 0.887660
vt 0.348201 0.832182
vt 0.348201 0.887660
vt 0.386890 0.832182
vt 0.386890 0.887660
vt 0.425579 0.832182
vt 0.425579 0.887660
vt 0.464268 0.832182
vt 0.464268 0.887660
vt 0.502958 0.832182
vt 0.502958 0.887660
vt 0.541647 0.832182
vt 0.541647 0.887660
vt 0.580336 0.832182
vt 0.580336 0.887660
vt 0.619025 0.832182
vt 0.619025 0.887660
vt 0.657714 0.832182
vt 0.657714 0.887660
vt 0.696403 0.832182
vt 0.696403 0.887660
vt 0.735093 0.832182
vt 0.735093 0.887660
vt 0.773782 0.832182
vt 0.773782 0.887660
vt 0.812471 0.832182
vt 0.812471 0.887660
vt 0.851160 0.832182
vt 0.851160 0.887660
vt 0.889849 0.832182
vt 0.889849 0.887660
vt 0.928538 0.832182
vt 0.928538 0.887660
vt 0.034846 0.768669
vt 0.034846 0.832182
vt 0.069693 0.768669
vt 0.069693 0.832182
vt 0.104539 0.768669
vt 0.104539 0.832182
vt 0.139385 0.768669
vt 0.139385 0.832182
vt 0.174231 0.768669
vt 0.174231 0.832182
vt 0.209078 0.768669
vt 0.209078 0.832182
vt 0.243924 0.768669
vt 0.243924 0.832182
vt 0.278770 0.768669
vt 0.278770 0.832182
vt 0.313617 0.768669
vt 0.313617 0.832182
vt 0.348463 0.768669
vt 0.348463 0.832182
vt 0.383309 0.768669
vt 0.383309 0.832182
vt 0.418156 0.768669
vt 0.418156 0.832182
vt 0.453002 0.768669
vt 0.453002 0.832182
vt 0.487848 0.768669
vt 0.487848 0.832182
vt 0.522695 0.768669
vt 0.522695 0.832182
vt 0.557541 0.768669
vt 0.557541 0.832182
vt 0.592387 0.768669
vt 0.592387 0.832182
vt 0.627234 0.768669
vt 0.627234 0.832182
vt 0.662080 0.768669
vt 0.662080 0.832182
vt 0.696927 0.768669
vt 0.696927 0.832182
vt 0.731773 0.768669
vt 0.731773 0.832182
vt 0.766620 0.768669
vt 0.766620 0.832182
vt 0.801466 0.768669
vt 0.801466 0.832182
vt 0.836312 0.768669
vt 0.836312 0.832182
s 1
usemtl barrel_low_initialShadingGroup
f 4/1/1 1/2/2 2/3/3
f 2/3/3 3/4/2 4/1/1
f 3/4/2 2/3/3 5/5/4
f 5/5/4 6/6/5 3/4/2
f 6/6/5 5/5/4 7/7/6
f 7/7/6 8/8/7 6/6/5
f 8/8/7 7/7/6 9/9/8
f 9/9/8 10/10/9 8/8/7
f 10/10/9 9/9/8 11/11/10
f 11/11/10 12/12/11 10/10/9
f 12/13/11 11/14/10 13/15/12
f 13/15/12 14/16/13 12/13/11
f 14/16/13 13/15/12 15/17/14
f 15/17/14 16/18/15 14/16/13
f 16/18/15 15/17/14 17/19/16
f 17/19/16 18/20/17 16/18/15
f 18/20/17 17/19/16 19/21/18
f 19/21/18 20/22/19 18/20/17
f 20/22/19 19/21/18 21/23/20
f 21/23/20 22/24/21 20/22/19
f 22/24/21 21/23/20 23/25/22
f 23/25/22 24/26/23 22/24/21
f 24/26/23 23/25/22 25/27/24
f 25/27/24 26/28/25 24/26/23
f 26/28/25 25/27/24 27/29/26
f 27/29/26 28/30/27 26/28/25
f 28/30/27 27/29/26 29/31/28
f 29/31/28 30/32/29 28/30/27
f 30/32/29 29/31/28 31/33/30
f 31/33/30 32/34/31 30/32/29
f 32/34/31 31/33/30 33/35/32
f 33/35/32 34/36/33 32/34/31
f 34/36/33 33/35/32 35/37/34
f 35/37/34 36/38/35 34/36/33
f 36/38/35 35/37/34 37/39/36
f 37/39/36 38/40/37 36/38/35
f 38/40/37 37/39/36 39/41/38
f 39/41/38 40/42/39 38/40/37
f 40/42/39 39/41/38 41/43/40
f 41/43/40 42/44/41 40/42/39
f 42/44/41 41/43/40 43/45/42
f 43/45/42 44/46/43 42/44/41
f 44/46/43 43/45/42 45/47/44
f 45/47/44 46/48/45 44/46/43
f 46/48/45 45/47/44 47/49/46
f 47/49/46 48/50/47 46/48/45
f 48/50/47 47/49/46 1/2/2
f 1/2/2 4/1/1 48/50/47
f 50/51/48 4/1/1 3/4/2
f 3/4/2 49/52/49 50/51/48
f 49/52/49 3/4/2 6/6/5
f 6/6/5 51/53/50 49/52/49
f 51/53/50 6/6/5 8/8/7
f 8/8/7 52/54/51 51/53/50
f 52/54/51 8/8/7 10/10/9
f 10/10/9 53/55/52 52/54/51
f 53/55/52 10/10/9 12/12/11
f 12/12/11 54/56/53 53/55/52
f 54/57/53 12/13/11 14/16/13
f 14/16/13 55/58/54 54/57/53
f 55/58/54 14/16/13 16/18/15
f 16/18/15 56/59/55 55/58/54
f 56/59/55 16/18/15 18/20/17
f 18/20/17 57/60/56 56/59/55
f 57/60/56 18/20/17 20/22/19
f 20/22/19 58/61/57 57/60/56
f 58/61/57 20/22/19 22/24/21
f 22/24/21 59/62/58 58/61/57
f 59/62/58 22/24/21 24/26/23
f 24/26/23 60/63/59 59/62/58
f 60/63/59 24/26/23 26/28/25
f 26/28/25 61/64/60 60/63/59
f 61/64/60 26/28/25 28/30/27
f 28/30/27 62/65/61 61/64/60
f 62/65/61 28/30/27 30/32/29
f 30/32/29 63/66/62 62/65/61
f 63/66/62 30/32/29 32/34/31
f 32/34/31 64/67/63 63/66/62
f 64/67/63 32/34/31 34/36/33
f 34/36/33 65/68/64 64/67/63
f 65/68/64 34/36/33 36/38/35
f 36/38/35 66/69/65 65/68/64
f 66/69/65 36/38/35 38/40/37
f 38/40/37 67/70/66 66/69/65
f 67/70/66 38/40/37 40/42/39
f 40/42/39 68/71/67 67/70/66
f 68/71/67 40/42/39 42/44/41
f 42/44/41 69/72/68 68/71/67
f 69/72/68 42/44/41 44/46/43
f 44/46/43 70/73/69 69/72/68
f 70/73/69 44/46/43 46/48/45
f 46/48/45 71/74/70 70/73/69
f 71/74/70 46/48/45 48/50/47
f 48/50/47 72/75/71 71/74/70
f 72/75/71 48/50/47 4/1/1
f 4/1/1 50/51/48 72/75/71
f 74/76/72 50/51/48 49/52/49
f 49/52/49 73/77/73 74/76/72
f 73/77/73 49/52/49 51/53/50
f 51/53/50 75/78/74 73/77/73
f 75/78/74 51/53/50 52/54/51
f 52/54/51 76/79/75 75/78/74
f 76/79/75 52/54/51 53/55/52
f 53/55/52 77/80/76 76/79/75
f 77/80/76 53/55/52 54/56/53
f 54/56/53 78/81/77 77/80/76
f 78/82/77 54/57/53 55/58/54
f 55/58/54 79/83/78 78/82/77
f 79/83/78 55/58/54 56/59/55
f 56/59/55 80/84/79 79/83/78
f 80/84/79 56/59/55 57/60/56
f 57/60/56 81/85/80 80/84/79
f 81/85/80 57/60/56 58/61/57
f 58/61/57 82/86/81 81/85/80
f 82/86/81 58/61/57 59/62/58
f 59/62/58 83/87/82 82/86/81
f 83/87/82 59/62/58 60/63/59
f 60/63/59 84/88/83 83/87/82
f 84/88/83 60/63/59 61/64/60
f 61/64/60 85/89/84 84/88/83
f 85/89/84 61/64/60 62/65/61
f 62/65/61 86/90/85 85/89/84
f 86/90/85 62/65/61 63/66/62
f 63/66/62 87/91/86 86/90/85
f 87/91/86 63/66/62 64/67/63
f 64/67/63 88/92/87 87/91/86
f 88/92/87 64/67/63 65/68/64
f 65/68/64 89/93/88 88/92/87
f 89/93/88 65/68/64 66/69/65
f 66/69/65 90/94/89 89/93/88
f 90/94/89 66/69/65 67/70/66
f 67/70/66 91/95/90 90/94/89
f 91/95/90 67/70/66 68/71/67
f 68/71/67 92/96/91 91/95/90
f 92/96/91 68/71/67 69/72/68
f 69/72/68 93/97/92 92/96/91
f 93/97/92 69/72/68 70/73/69
f 70/73/69 94/98/93 93/97/92
f 94/98/93 70/73/69 71/74/70
f 71/74/70 95/99/94 94/98/93
f 95/99/94 71/74/70 72/75/71
f 72/75/71 96/100/95 95/99/94
f 96/100/95 72/75/71 50/51/48
f 50/51/48 74/76/72 96/100/95
f 98/101/96 74/76/72 73/77/73
f 73/77/73 97/102/97 98/101/96
f 97/102/97 73/77/73 75/78/74
f 75/78/74 99/103/98 97/102/97
f 99/103/98 75/78/74 76/79/75
f 76/79/75 100/104/99 99/103/98
f 100/104/99 76/79/75 77/80/76
f 77/80/76 101/105/100 100/104/99
f 101/105/100 77/80/76 78/81/77
f 78/81/77 102/106/101 101/105/100
f 102/107/101 78/82/77 79/83/78
f 79/83/78 103/108/102 102/107/101
f 103/108/102 79/83/78 80/84/79
f 80/84/79 104/109/103 103/108/102
f 104/109/103 80/84/79 81/85/80
f 81/85/80 105/110/104 104/109/103
f 105/110/104 81/85/80 82/86/81
f 82/86/81 106/111/105 105/110/104
f 106/111/105 82/86/81 83/87/82
f 83/87/82 107/112/106 106/111/105
f 107/112/106 83/87/82 84/88/83
f 84/88/83 108/113/107 107/112/106
f 108/113/107 84/88/83 85/89/84
f 85/89/84 109/114/108 108/113/107
f 109/114/108 85/89/84 86/90/85
f 86/90/85 110/115/109 109/114/108
f 110/115/109 86/90/85 87/91/86
f 87/91/86 111/116/110 110/115/109
f 111/116/110 87/91/86 88/92/87
f 88/92/87 112/117/111 111/116/110
f 112/117/111 88/92/87 89/93/88
f 89/93/88 113/118/112 112/117/111
f 113/118/112 89/93/88 90/94/89
f 90/94/89 114/119/113 113/118/112
f 114/119/113 90/94/89 91/95/90
f 91/95/90 115/120/114 114/119/113
f 115/120/114 91/95/90 92/96/91
f 92/96/91 116/121/115 115/120/114
f 116/121/115 92/96/91 93/97/92
f 93/97/92 117/122/116 116/121/115
f 117/122/116 93/97/92 94/98/93
f 94/98/93 118/123/117 117/122/116
f 118/123/117 94/98/93 95/99/94
f 95/99/94 119/124/118 118/123/117
f 119/124/118 95/99/94 96/100/95
f 96/100/95 120/125/119 119/124/118
f 120/125/119 96/100/95 74/76/72
f 74/76/72 98/101/96 120/125/119
f 122/126/120 98/101/96 97/102/97
f 97/102/97 121/127/121 122/126/120
f 121/127/121 97/102/97 99/103/98
f 99/103/98 123/128/122 121/127/121
f 123/128/122 99/103/98 100/104/99
f 100/104/99 124/129/123 123/128/122
f 124/129/123 100/104/99 101/105/100
f 101/105/100 125/130/124 124/129/123
f 125/130/124 101/105/100 102/106/101
f 102/106/101 126/131/125 125/130/124
f 126/132/125 102/107/101 103/108/102
f 103/108/102 127/133/126 126/132/125
f 127/133/126 103/108/102 104/109/103
f 104/109/103 128/134/127 127/133/126
f 128/134/127 104/109/103 105/110/104
f 105/110/104 129/135/128 128/134/127
f 129/135/128 105/110/104 106/111/105
f 106/111/105 130/136/129 129/135/128
f 130/136/129 106/111/105 107/112/106
f 107/112/106 131/137/130 130/136/129
f 131/137/130 107/112/106 108/113/107
f 108/113/107 132/138/131 131/137/130
f 132/138/131 108/113/107 109/114/108
f 109/114/108 133/139/132 132/138/131
f 133/139/132 109/114/108 110/115/109
f 110/115/109 134/140/133 133/139/132
f 134/140/133 110/115/109 111/116/110
f 111/116/110 135/141/134 134/140/133
f 135/141/134 111/116/110 112/117/111
f 112/117/111 136/142/135 135/141/134
f 136/142/135 112/117/111 113/118/112
f 113/118/112 137/143/136 136/142/135
f 137/143/136 113/118/112 114/119/113
f 114/119/113 138/144/137 137/143/136
f 138/144/137 114/119/113 115/120/114
f 115/120/114 139/145/138 138/144/137
f 139/145/138 115/120/114 116/121/115
f 116/121/115 140/146/139 139/145/138
f 140/146/139 116/121/115 117/122/116
f 117/122/116 141/147/140 140/146/139
f 141/147/140 117/122/116 118/123/117
f 118/123/117 142/148/141 141/147/140
f 142/148/141 118/123/117 119/124/118
f 119/124/118 143/149/142 142/148/141
f 143/149/142 119/124/118 120/125/119
f 120/125/119 144/150/143 143/149/142
f 144/150/143 120/125/119 98/101/96
f 98/101/96 122/126/120 144/150/143
f 145/151/144 146/152/145 147/153/146
f 148/154/147 145/151/144 147/153/146
f 149/155/148 148/154/147 147/153/146
f 150/156/149 149/155/148 147/153/146
f 151/157/150 150/156/149 147/153/146
f 152/158/151 151/157/150 147/153/146
f 153/159/152 152/158/151 147/153/146
f 154/160/153 153/159/152 147/153/146
f 155/161/154 154/160/153 147/153/146
f 156/162/155 155/161/154 147/153/146
f 157/163/156 156/162/155 147/153/146
f 158/164/157 157/163/156 147/153/146
f 159/165/158 158/164/157 147/153/146
f 160/166/159 159/165/158 147/153/146
f 161/167/160 160/166/159 147/153/146
f 162/168/161 161/167/160 147/153/146
f 163/169/162 162/168/161 147/153/146
f 164/170/163 163/169/162 147/153/146
f 165/171/164 164/170/163 147/153/146
f 166/172/165 165/171/164 147/153/146
f 167/173/166 166/172/165 147/153/146
f 168/174/167 167/173/166 147/153/146
f 169/175/168 168/174/167 147/153/146
f 146/152/145 169/175/168 147/153/146
f 170/176/169 171/177/170 172/178/171
f 171/177/170 173/179/172 172/178/171
f 173/179/172 174/180/173 172/178/171
f 174/180/173 175/181/174 172/178/171
f 175/181/174 176/182/175 172/178/171
f 176/182/175 177/183/176 172/178/171
f 177/183/176 178/184/177 172/178/171
f 178/184/177 179/185/178 172/178/171
f 179/185/178 180/186/179 172/178/171
f 180/186/179 181/187/180 172/178/171
f 181/187/180 182/188/181 172/178/171
f 182/188/181 183/189/182 172/178/171
f 183/189/182 184/190/183 172/178/171
f 184/190/183 185/191/184 172/178/171
f 185/191/184 186/192/185 172/178/171
f 186/192/185 187/193/186 172/178/171
f 187/193/186 188/194/187 172/178/171
f 188/194/187 189/195/188 172/178/171
f 189/195/188 190/196/189 172/178/171
f 190/196/189 191/197/190 172/178/171
f 191/197/190 192/198/191 172/178/171
f 192/198/191 193/199/192 172/178/171
f 193/199/192 194/200/193 172/178/171
f 194/200/193 170/176/169 172/178/171
f 196/201/194 2/202/3 1/203/2
f 1/203/2 195/204/195 196/201/194
f 197/205/196 5/206/4 2/202/3
f 2/202/3 196/201/194 197/205/196
f 198/207/197 7/208/6 5/206/4
f 5/206/4 197/205/196 198/207/197
f 199/209/198 9/210/8 7/208/6
f 7/208/6 198/207/197 199/209/198
f 200/211/199 11/212/10 9/210/8
f 9/210/8 199/209/198 200/211/199
f 201/213/200 13/214/12 11/212/10
f 11/212/10 200/211/199 201/213/200
f 202/215/201 15/216/14 13/214/12
f 13/214/12 201/213/200 202/215/201
f 203/217/202 17/218/16 15/216/14
f 15/216/14 202/215/201 203/217/202
f 204/219/203 19/220/18 17/218/16
f 17/218/16 203/217/202 204/219/203
f 205/221/204 21/222/20 19/220/18
f 19/220/18 204/219/203 205/221/204
f 206/223/205 23/224/22 21/222/20
f 21/222/20 205/221/204 206/223/205
f 207/225/206 25/226/24 23/224/22
f 23/224/22 206/223/205 207/225/206
f 208/227/207 27/228/26 25/226/24
f 25/226/24 207/225/206 208/227/207
f 209/229/208 29/230/28 27/228/26
f 27/228/26 208/227/207 209/229/208
f 210/231/209 31/232/30 29/230/28
f 29/230/28 209/229/208 210/231/209
f 211/233/210 33/234/32 31/232/30
f 31/232/30 210/231/209 211/233/210
f 212/235/211 35/236/34 33/234/32
f 33/234/32 211/233/210 212/235/211
f 213/237/212 37/238/36 35/236/34
f 35/236/34 212/235/211 213/237/212
f 214/239/213 39/240/38 37/238/36
f 37/238/36 213/237/212 214/239/213
f 215/241/214 41/242/40 39/240/38
f 39/240/38 214/239/213 215/241/214
f 216/243/215 43/244/42 41/242/40
f 41/242/40 215/241/214 216/243/215
f 217/245/216 45/246/44 43/244/42
f 43/244/42 216/243/215 217/245/216
f 218/247/217 47/248/46 45/246/44
f 45/246/44 217/245/216 218/247/217
f 195/204/195 1/203/2 47/248/46
f 47/248/46 218/247/217 195/204/195
f 220/249/218 122/250/120 121/251/121
f 121/251/121 219/252/219 220/249/218
f 219/252/219 121/251/121 123/253/122
f 123/253/122 221/254/220 219/252/219
f 221/254/220 123/253/122 124/255/123
f 124/255/123 222/256/221 221/254/220
f 222/256/221 124/255/123 125/257/124
f 125/257/124 223/258/222 222/256/221
f 223/258/222 125/257/124 126/259/125
f 126/259/125 224/260/223 223/258/222
f 224/260/223 126/259/125 127/261/126
f 127/261/126 225/262/224 224/260/223
f 225/262/224 127/261/126 128/263/127
f 128/263/127 226/264/225 225/262/224
f 226/264/225 128/263/127 129/265/128
f 129/265/128 227/266/226 226/264/225
f 227/266/226 129/265/128 130/267/129
f 130/267/129 228/268/227 227/266/226
f 228/268/227 130/267/129 131/269/130
f 131/269/130 229/270/228 228/268/227
f 229/270/228 131/269/130 132/271/131
f 132/271/131 230/272/229 229/270/228
f 230/272/229 132/271/131 133/273/132
f 133/273/132 231/274/230 230/272/229
f 231/274/230 133/273/132 134/275/133
f 134/275/133 232/276/231 231/274/230
f 232/276/231 134/275/133 135/277/134
f 135/277/134 233/278/232 232/276/231
f 233/278/232 135/277/134 136/279/135
f 136/279/135 234/280/233 233/278/232
f 234/280/233 136/279/135 137/281/136
f 137/281/136 235/282/234 234/280/233
f 235/282/234 137/281/136 138/283/137
f 138/283/137 236/284/235 235/282/234
f 236/284/235 138/283/137 139/285/138
f 139/285/138 237/286/236 236/284/235
f 237/286/236 139/285/138 140/287/139
f 140/287/139 238/288/237 237/286/236
f 238/288/237 140/287/139 141/289/140
f 141/289/140 239/290/238 238/288/237
f 239/290/238 141/289/140 142/291/141
f 142/291/141 240/292/239 239/290/238
f 240/292/239 142/291/141 143/293/142
f 143/293/142 241/294/240 240/292/239
f 241/294/240 143/293/142 144/295/143
f 144/295/143 242/296/241 241/294/240
f 242/296/241 144/295/143 122/250/120
f 122/250/120 220/249/218 242/296/241
f 145/151/144 196/201/194 195/204/195
f 195/204/195 146/152/145 145/151/144
f 148/154/147 197/205/196 196/201/194
f 196/201/194 145/151/144 148/154/147
f 149/155/148 198/207/197 197/205/196
f 197/205/196 148/154/147 149/155/148
f 150/156/149 199/209/198 198/207/197
f 198/207/197 149/155/148 150/156/149
f 151/157/150 200/211/199 199/209/198
f 199/209/198 150/156/149 151/157/150
f 152/158/151 201/213/200 200/211/199
f 200/211/199 151/157/150 152/158/151
f 153/159/152 202/215/201 201/213/200
f 201/213/200 152/158/151 153/159/152
f 154/160/153 203/217/202 202/215/201
f 202/215/201 153/159/152 154/160/153
f 155/161/154 204/219/203 203/217/202
f 203/217/202 154/160/153 155/161/154
f 156/162/155 205/221/204 204/219/203
f 204/219/203 155/161/154 156/162/155
f 157/163/156 206/223/205 205/221/204
f 205/221/204 156/162/155 157/163/156
f 158/164/157 207/225/206 206/223/205
f 206/223/205 157/163/156 158/164/157
f 159/165/158 208/227/207 207/225/206
f 207/225/206 158/164/157 159/165/158
f 160/166/159 209/229/208 208/227/207
f 208/227/207 159/165/158 160/166/159
f 161/167/160 210/231/209 209/229/208
f 209/229/208 160/166/159 161/167/160
f 162/168/161 211/233/210 210/231/209
f 210/231/209 161/167/160 162/168/161
f 163/169/162 212/235/211 211/233/210
f 211/233/210 162/168/161 163/169/162
f 164/170/163 213/237/212 212/235/211
f 212/235/211 163/169/162 164/170/163
f 165/171/164 214/239/213 213/237/212
f 213/237/212 164/170/163 165/171/164
f 166/172/165 215/241/214 214/239/213
f 214/239/213 165/171/164 166/172/165
f 167/173/166 216/243/215 215/241/214
f 215/241/214 166/172/165 167/173/166
f 168/174/167 217/245/216 216/243/215
f 216/243/215 167/173/166 168/174/167
f 169/175/168 218/247/217 217/245/216
f 217/245/216 168/174/167 169/175/168
f 146/152/145 195/204/195 218/247/217
f 218/247/217 169/175/168 146/152/145
f 170/176/169 220/249/218 219/252/219
f 219/252/219 171/177/170 170/176/169
f 171/177/170 219/252/219 221/254/220
f 221/254/220 173/179/172 171/177/170
f 173/179/172 221/254/220 222/256/221
f 222/256/221 174/180/173 173/179/172
f 174/180/173 222/256/221 223/258/222
f 223/258/222 175/181/174 174/180/173
f 175/181/174 223/258/222 224/260/223
f 224/260/223 176/182/175 175/181/174
f 176/182/175 224/260/223 225/262/224
f 225/262/224 177/183/176 176/182/175
f 177/183/176 225/262/224 226/264/225
f 226/264/225 178/184/177 177/183/176
f 178/184/177 226/264/225 227/266/226
f 227/266/226 179/185/178 178/184/177
f 179/185/178 227/266/226 228/268/227
f 228/268/227 180/186/179 179/185/178
f 180/186/179 228/268/227 229/270/228
f 229/270/228 181/187/180 180/186/179
f 181/187/180 229/270/228 230/272/229
f 230/272/229 182/188/181 181/187/180
f 182/188/181 230/272/229 231/274/230
f 231/274/230 183/189/182 182/188/181
f 183/189/182 231/274/230 232/276/231
f 232/276/231 184/190/183 183/189/182
f 184/190/183 232/276/231 233/278/232
f 233/278/232 185/191/184 184/190/183
f 185/191/184 233/278/232 234/280/233
f 234/280/233 186/192/185 185/191/184
f 186/192/185 234/280/233 235/282/234
f 235/282/234 187/193/186 186/192/185
f 187/193/186 235/282/234 236/284/235
f 236/284/235 188/194/187 187/193/186
f 188/194/187 236/284/235 237/286/236
f 237/286/236 189/195/188 188/194/187
f 189/195/188 237/286/236 238/288/237
f 238/288/237 190/196/189 189/195/188
f 190/196/189 238/288/237 239/290/238
f 239/290/238 191/197/190 190/196/189
f 191/197/190 239/290/238 240/292/239
f 240/292/239 192/198/191 191/197/190
f 192/198/191 240/292/239 241/294/240
f 241/294/240 193/199/192 192/198/191
f 193/199/192 241/294/240 242/296/241
f 242/296/241 194/200/193 193/199/192
f 194/200/193 242/296/241 220/249/218
f 220/249/218 170/176/169 194/200/193
f 246/297/242 243/298/243 244/299/244
f 244/299/244 245/300/245 246/297/242
f 245/300/245 244/299/244 247/301/246
f 247/301/246 248/302/247 245/300/245
f 248/302/247 247/301/246 249/303/248
f 249/303/248 250/304/249 248/302/247
f 250/304/249 249/303/248 251/305/250
f 251/305/250 252/306/251 250/304/249
f 252/306/251 251/305/250 253/307/252
f 253/307/252 254/308/253 252/306/251
f 254/308/253 253/307/252 255/309/254
f 255/309/254 256/310/255 254/308/253
f 256/310/255 255/309/254 257/311/256
f 257/311/256 258/312/257 256/310/255
f 258/312/257 257/311/256 259/313/258
f 259/313/258 260/314/259 258/312/257
f 260/314/259 259/313/258 261/315/260
f 261/315/260 262/316/261 260/314/259
f 262/316/261 261/315/260 263/317/262
f 263/317/262 264/318/263 262/316/261
f 264/318/263 263/317/262 265/319/264
f 265/319/264 266/320/265 264/318/263
f 266/320/265 265/319/264 267/321/266
f 267/321/266 268/322/267 266/320/265
f 268/322/267 267/321/266 269/323/268
f 269/323/268 270/324/269 268/322/267
f 270/324/269 269/323/268 271/325/270
f 271/325/270 272/326/271 270/324/269
f 272/326/271 271/325/270 273/327/272
f 273/327/272 274/328/273 272/326/271
f 274/328/273 273/327/272 275/329/274
f 275/329/274 276/330/275 274/328/273
f 276/330/275 275/329/274 277/331/276
f 277/331/276 278/332/277 276/330/275
f 278/332/277 277/331/276 279/333/278
f 279/333/278 280/334/279 278/332/277
f 280/334/279 279/333/278 281/335/280
f 281/335/280 282/336/281 280/334/279
f 282/336/281 281/335/280 283/337/282
f 283/337/282 284/338/283 282/336/281
f 284/338/283 283/337/282 285/339/284
f 285/339/284 286/340/285 284/338/283
f 286/340/285 285/339/284 287/341/286
f 287/341/286 288/342/287 286/340/285
f 288/342/287 287/341/286 289/343/288
f 289/343/288 290/344/289 288/342/287
f 290/344/289 289/343/288 243/345/243
f 243/345/243 246/346/242 290/344/289
f 294/347/290 291/348/291 292/349/292
f 292/349/292 293/350/293 294/347/290
f 293/350/293 292/349/292 295/351/294
f 295/351/294 296/352/295 293/350/293
f 296/352/295 295/351/294 297/353/296
f 297/353/296 298/354/297 296/352/295
f 298/354/297 297/353/296 299/355/298
f 299/355/298 300/356/299 298/354/297
f 300/356/299 299/355/298 301/357/300
f 301/357/300 302/358/301 300/356/299
f 302/358/301 301/357/300 303/359/302
f 303/359/302 304/360/303 302/358/301
f 304/360/303 303/359/302 305/361/304
f 305/361/304 306/362/305 304/360/303
f 306/362/305 305/361/304 307/363/306
f 307/363/306 308/364/307 306/362/305
f 308/364/307 307/363/306 309/365/308
f 309/365/308 310/366/309 308/364/307
f 310/366/309 309/365/308 311/367/310
f 311/367/310 312/368/311 310/366/309
f 312/368/311 311/367/310 313/369/312
f 313/369/312 314/370/313 312/368/311
f 314/370/313 313/369/312 315/371/314
f 315/371/314 316/372/315 314/370/313
f 316/372/315 315/371/314 317/373/316
f 317/373/316 318/374/317 316/372/315
f 318/374/317 317/373/316 319/375/318
f 319/375/318 320/376/319 318/374/317
f 320/376/319 319/375/318 321/377/320
f 321/377/320 322/378/321 320/376/319
f 322/378/321 321/377/320 323/379/322
f 323/379/322 324/380/323 322/378/321
f 324/380/323 323/379/322 325/381/324
f 325/381/324 326/382/325 324/380/323
f 326/382/325 325/381/324 327/383/326
f 327/383/326 328/384/327 326/382/325
f 328/384/327 327/383/326 329/385/328
f 329/385/328 330/386/329 328/384/327
f 330/386/329 329/385/328 331/387/330
f 331/387/330 332/388/331 330/386/329
f 332/388/331 331/387/330 333/389/332
f 333/389/332 334/390/333 332/388/331
f 334/390/333 333/389/332 335/391/334
f 335/391/334 336/392/335 334/390/333
f 336/392/335 335/391/334 337/393/336
f 337/393/336 338/394/337 336/392/335
f 338/394/337 337/393/336 291/395/291
f 291/395/291 294/396/290 338/394/337
f 342/397/338 339/398/339 340/399/340
f 340/399/340 341/400/341 342/397/338
f 341/400/341 340/399/340 343/401/342
f 343/401/342 344/402/343 341/400/341
f 344/402/343 343/401/342 345/403/344
f 345/403/344 346/404/345 344/402/343
f 346/404/345 345/403/344 347/405/346
f 347/405/346 348/406/347 346/404/345
f 348/406/347 347/405/346 349/407/348
f 349/407/348 350/408/349 348/406/347
f 350/408/349 349/407/348 351/409/350
f 351/409/350 352/410/351 350/408/349
f 352/410/351 351/409/350 353/411/352
f 353/411/352 354/412/353 352/410/351
f 354/412/353 353/411/352 355/413/354
f 355/413/354 356/414/355 354/412/353
f 356/414/355 355/413/354 357/415/356
f 357/415/356 358/416/357 356/414/355
f 358/416/357 357/415/356 359/417/358
f 359/417/358 360/418/359 358/416/357
f 360/418/359 359/417/358 361/419/360
f 361/419/360 362/420/361 360/418/359
f 362/420/361 361/419/360 363/421/362
f 363/421/362 364/422/363 362/420/361
f 364/422/363 363/421/362 365/423/364
f 365/423/364 366/424/365 364/422/363
f 366/424/365 365/423/364 367/425/366
f 367/425/366 368/426/367 366/424/365
f 368/426/367 367/425/366 369/427/368
f 369/427/368 370/428/369 368/426/367
f 370/428/369 369/427/368 371/429/370
f 371/429/370 372/430/371 370/428/369
f 372/430/371 371/429/370 373/431/372
f 373/431/372 374/432/373 372/430/371
f 374/432/373 373/431/372 375/433/374
f 375/433/374 376/434/375 374/432/373
f 376/434/375 375/433/374 377/435/376
f 377/435/376 378/436/377 376/434/375
f 378/436/377 377/435/376 379/437/378
f 379/437/378 380/438/379 378/436/377
f 380/438/379 379/437/378 381/439/380
f 381/439/380 382/440/381 380/438/379
f 382/440/381 381/439/380 383/441/382
f 383/441/382 384/442/383 382/440/381
f 384/442/383 383/441/382 385/443/384
f 385/443/384 386/444/385 384/442/383
f 386/444/385 385/443/384 339/445/339
f 339/445/339 342/446/338 386/444/385
f 243/298/243 387/447/146 388/448/146
f 388/448/146 244/299/244 243/298/243
f 245/300/245 389/449/171 390/450/171
f 390/450/171 246/297/242 245/300/245
f 244/299/244 388/448/146 391/451/146
f 391/451/146 247/301/246 244/299/244
f 248/302/247 392/452/171 389/449/171
f 389/449/171 245/300/245 248/302/247
f 247/301/246 391/451/146 393/453/146
f 393/453/146 249/303/248 247/301/246
f 250/304/249 394/454/171 392/452/171
f 392/452/171 248/302/247 250/304/249
f 249/303/248 393/453/146 395/455/146
f 395/455/146 251/305/250 249/303/248
f 252/306/251 396/456/171 394/454/171
f 394/454/171 250/304/249 252/306/251
f 251/305/250 395/455/146 397/457/146
f 397/457/146 253/307/252 251/305/250
f 254/308/253 398/458/171 396/456/171
f 396/456/171 252/306/251 254/308/253
f 253/307/252 397/457/146 399/459/146
f 399/459/146 255/309/254 253/307/252
f 256/310/255 400/460/171 398/458/171
f 398/458/171 254/308/253 256/310/255
f 255/309/254 399/459/146 401/461/146
f 401/461/146 257/311/256 255/309/254
f 258/312/257 402/462/171 400/460/171
f 400/460/171 256/310/255 258/312/257
f 257/311/256 401/461/146 403/463/146
f 403/463/146 259/313/258 257/311/256
f 260/314/259 404/464/171 402/462/171
f 402/462/171 258/312/257 260/314/259
f 259/313/258 403/463/146 405/465/146
f 405/465/146 261/315/260 259/313/258
f 262/316/261 406/466/171 404/464/171
f 404/464/171 260/314/259 262/316/261
f 261/315/260 405/465/146 407/467/146
f 407/467/146 263/317/262 261/315/260
f 264/318/263 408/468/171 406/466/171
f 406/466/171 262/316/261 264/318/263
f 263/317/262 407/467/146 409/469/146
f 409/469/146 265/319/264 263/317/262
f 266/320/265 410/470/171 408/468/171
f 408/468/171 264/318/263 266/320/265
f 265/319/264 409/469/146 411/471/146
f 411/471/146 267/321/266 265/319/264
f 268/322/267 412/472/171 410/470/171
f 410/470/171 266/320/265 268/322/267
f 267/321/266 411/471/146 413/473/146
f 413/473/146 269/323/268 267/321/266
f 270/324/269 414/474/171 412/472/171
f 412/472/171 268/322/267 270/324/269
f 269/323/268 413/473/146 415/475/146
f 415/475/146 271/325/270 269/323/268
f 272/326/271 416/476/171 414/474/171
f 414/474/171 270/324/269 272/326/271
f 271/325/270 415/475/146 417/477/146
f 417/477/146 273/327/272 271/325/270
f 274/328/273 418/478/171 416/476/171
f 416/476/171 272/326/271 274/328/273
f 273/327/272 417/477/146 419/479/146
f 419/479/146 275/329/274 273/327/272
f 276/330/275 420/480/171 418/478/171
f 418/478/171 274/328/273 276/330/275
f 275/329/274 419/479/146 421/481/146
f 421/481/146 277/331/276 275/329/274
f 278/332/277 422/482/171 420/480/171
f 420/480/171 276/330/275 278/332/277
f 277/331/276 421/481/146 423/483/146
f 423/483/146 279/333/278 277/331/276
f 280/334/279 424/484/171 422/482/171
f 422/482/171 278/332/277 280/334/279
f 279/333/278 423/483/146 425/485/146
f 425/485/146 281/335/280 279/333/278
f 282/336/281 426/486/171 424/484/171
f 424/484/171 280/334/279 282/336/281
f 281/335/280 425/485/146 427/487/146
f 427/487/146 283/337/282 281/335/280
f 284/338/283 428/488/171 426/486/171
f 426/486/171 282/336/281 284/338/283
f 283/337/282 427/487/146 429/489/146
f 429/489/146 285/339/284 283/337/282
f 286/340/285 430/490/171 428/488/171
f 428/488/171 284/338/283 286/340/285
f 285/339/284 429/489/146 431/491/146
f 431/491/146 287/341/286 285/339/284
f 288/342/287 432/492/171 430/490/171
f 430/490/171 286/340/285 288/342/287
f 287/341/286 431/491/146 433/493/146
f 433/493/146 289/343/288 287/341/286
f 290/344/289 434/494/171 432/492/171
f 432/492/171 288/342/287 290/344/289
f 289/343/288 433/493/146 387/495/146
f 387/495/146 243/345/243 289/343/288
f 246/346/242 390/496/171 434/494/171
f 434/494/171 290/344/289 246/346/242
f 291/348/291 435/497/386 436/498/387
f 436/498/387 292/349/292 291/348/291
f 293/350/293 437/499/388 438/500/389
f 438/500/389 294/347/290 293/350/293
f 292/349/292 436/498/387 439/501/390
f 439/501/390 295/351/294 292/349/292
f 296/352/295 440/502/391 437/499/388
f 437/499/388 293/350/293 296/352/295
f 295/351/294 439/501/390 441/503/392
f 441/503/392 297/353/296 295/351/294
f 298/354/297 442/504/393 440/502/391
f 440/502/391 296/352/295 298/354/297
f 297/353/296 441/503/392 443/505/394
f 443/505/394 299/355/298 297/353/296
f 300/356/299 444/506/395 442/504/393
f 442/504/393 298/354/297 300/356/299
f 299/355/298 443/505/394 445/507/396
f 445/507/396 301/357/300 299/355/298
f 302/358/301 446/508/397 444/506/395
f 444/506/395 300/356/299 302/358/301
f 301/357/300 445/507/396 447/509/398
f 447/509/398 303/359/302 301/357/300
f 304/360/303 448/510/399 446/508/397
f 446/508/397 302/358/301 304/360/303
f 303/359/302 447/509/398 449/511/400
f 449/511/400 305/361/304 303/359/302
f 306/362/305 450/512/401 448/510/399
f 448/510/399 304/360/303 306/362/305
f 305/361/304 449/511/400 451/513/402
f 451/513/402 307/363/306 305/361/304
f 308/364/307 452/514/403 450/512/401
f 450/512/401 306/362/305 308/364/307
f 307/363/306 451/513/402 453/515/404
f 453/515/404 309/365/308 307/363/306
f 310/366/309 454/516/405 452/514/403
f 452/514/403 308/364/307 310/366/309
f 309/365/308 453/515/404 455/517/406
f 455/517/406 311/367/310 309/365/308
f 312/368/311 456/518/407 454/516/405
f 454/516/405 310/366/309 312/368/311
f 311/367/310 455/517/406 457/519/408
f 457/519/408 313/369/312 311/367/310
f 314/370/313 458/520/409 456/518/407
f 456/518/407 312/368/311 314/370/313
f 313/369/312 457/519/408 459/521/410
f 459/521/410 315/371/314 313/369/312
f 316/372/315 460/522/411 458/520/409
f 458/520/409 314/370/313 316/372/315
f 315/371/314 459/521/410 461/523/412
f 461/523/412 317/373/316 315/371/314
f 318/374/317 462/524/413 460/522/411
f 460/522/411 316/372/315 318/374/317
f 317/373/316 461/523/412 463/525/414
f 463/525/414 319/375/318 317/373/316
f 320/376/319 464/526/415 462/524/413
f 462/524/413 318/374/317 320/376/319
f 319/375/318 463/525/414 465/527/416
f 465/527/416 321/377/320 319/375/318
f 322/378/321 466/528/417 464/526/415
f 464/526/415 320/376/319 322/378/321
f 321/377/320 465/527/416 467/529/418
f 467/529/418 323/379/322 321/377/320
f 324/380/323 468/530/419 466/528/417
f 466/528/417 322/378/321 324/380/323
f 323/379/322 467/529/418 469/531/420
f 469/531/420 325/381/324 323/379/322
f 326/382/325 470/532/421 468/530/419
f 468/530/419 324/380/323 326/382/325
f 325/381/324 469/531/420 471/533/422
f 471/533/422 327/383/326 325/381/324
f 328/384/327 472/534/423 470/532/421
f 470/532/421 326/382/325 328/384/327
f 327/383/326 471/533/422 473/535/424
f 473/535/424 329/385/328 327/383/326
f 330/386/329 474/536/425 472/534/423
f 472/534/423 328/384/327 330/386/329
f 329/385/328 473/535/424 475/537/426
f 475/537/426 331/387/330 329/385/328
f 332/388/331 476/538/427 474/536/425
f 474/536/425 330/386/329 332/388/331
f 331/387/330 475/537/426 477/539/428
f 477/539/428 333/389/332 331/387/330
f 334/390/333 478/540/429 476/538/427
f 476/538/427 332/388/331 334/390/333
f 333/389/332 477/539/428 479/541/430
f 479/541/430 335/391/334 333/389/332
f 336/392/335 480/542/431 478/540/429
f 478/540/429 334/390/333 336/392/335
f 335/391/334 479/541/430 481/543/432
f 481/543/432 337/393/336 335/391/334
f 338/394/337 482/544/433 480/542/431
f 480/542/431 336/392/335 338/394/337
f 337/393/336 481/543/432 435/545/386
f 435/545/386 291/395/291 337/393/336
f 294/396/290 438/546/389 482/544/433
f 482/544/433 338/394/337 294/396/290
f 339/398/339 483/450/434 484/547/435
f 484/547/435 340/399/340 339/398/339
f 341/400/341 485/548/436 486/497/437
f 486/497/437 342/397/338 341/400/341
f 340/399/340 484/547/435 487/549/438
f 487/549/438 343/401/342 340/399/340
f 344/402/343 488/550/439 485/548/436
f 485/548/436 341/400/341 344/402/343
f 343/401/342 487/549/438 489/551/440
f 489/551/440 345/403/344 343/401/342
f 346/404/345 490/552/441 488/550/439
f 488/550/439 344/402/343 346/404/345
f 345/403/344 489/551/440 491/553/442
f 491/553/442 347/405/346 345/403/344
f 348/406/347 492/554/443 490/552/441
f 490/552/441 346/404/345 348/406/347
f 347/405/346 491/553/442 493/555/444
f 493/555/444 349/407/348 347/405/346
f 350/408/349 494/556/445 492/554/443
f 492/554/443 348/406/347 350/408/349
f 349/407/348 493/555/444 495/557/446
f 495/557/446 351/409/350 349/407/348
f 352/410/351 496/558/447 494/556/445
f 494/556/445 350/408/349 352/410/351
f 351/409/350 495/557/446 497/559/448
f 497/559/448 353/411/352 351/409/350
f 354/412/353 498/560/449 496/558/447
f 496/558/447 352/410/351 354/412/353
f 353/411/352 497/559/448 499/561/450
f 499/561/450 355/413/354 353/411/352
f 356/414/355 500/562/451 498/560/449
f 498/560/449 354/412/353 356/414/355
f 355/413/354 499/561/450 501/563/452
f 501/563/452 357/415/356 355/413/354
f 358/416/357 502/564/453 500/562/451
f 500/562/451 356/414/355 358/416/357
f 357/415/356 501/563/452 503/565/454
f 503/565/454 359/417/358 357/415/356
f 360/418/359 504/566/455 502/564/453
f 502/564/453 358/416/357 360/418/359
f 359/417/358 503/565/454 505/567/456
f 505/567/456 361/419/360 359/417/358
f 362/420/361 506/568/457 504/566/455
f 504/566/455 360/418/359 362/420/361
f 361/419/360 505/567/456 507/569/458
f 507/569/458 363/421/362 361/419/360
f 364/422/363 508/570/459 506/568/457
f 506/568/457 362/420/361 364/422/363
f 363/421/362 507/569/458 509/571/460
f 509/571/460 365/423/364 363/421/362
f 366/424/365 510/572/461 508/570/459
f 508/570/459 364/422/363 366/424/365
f 365/423/364 509/571/460 511/573/462
f 511/573/462 367/425/366 365/423/364
f 368/426/367 512/574/463 510/572/461
f 510/572/461 366/424/365 368/426/367
f 367/425/366 511/573/462 513/575/464
f 513/575/464 369/427/368 367/425/366
f 370/428/369 514/576/465 512/574/463
f 512/574/463 368/426/367 370/428/369
f 369/427/368 513/575/464 515/577/466
f 515/577/466 371/429/370 369/427/368
f 372/430/371 516/578/467 514/576/465
f 514/576/465 370/428/369 372/430/371
f 371/429/370 515/577/466 517/579/468
f 517/579/468 373/431/372 371/429/370
f 374/432/373 518/580/469 516/578/467
f 516/578/467 372/430/371 374/432/373
f 373/431/372 517/579/468 519/581/470
f 519/581/470 375/433/374 373/431/372
f 376/434/375 520/582/471 518/580/469
f 518/580/469 374/432/373 376/434/375
f 375/433/374 519/581/470 521/583/472
f 521/583/472 377/435/376 375/433/374
f 378/436/377 522/584/473 520/582/471
f 520/582/471 376/434/375 378/436/377
f 377/435/376 521/583/472 523/585/474
f 523/585/474 379/437/378 377/435/376
f 380/438/379 524/586/475 522/584/473
f 522/584/473 378/436/377 380/438/379
f 379/437/378 523/585/474 525/587/476
f 525/587/476 381/439/380 379/437/378
f 382/440/381 526/588/477 524/586/475
f 524/586/475 380/438/379 382/440/381
f 381/439/380 525/587/476 527/589/478
f 527/589/478 383/441/382 381/439/380
f 384/442/383 528/590/479 526/588/477
f 526/588/477 382/440/381 384/442/383
f 383/441/382 527/589/478 529/591/480
f 529/591/480 385/443/384 383/441/382
f 386/444/385 530/592/481 528/590/479
f 528/590/479 384/442/383 386/444/385
f 385/443/384 529/591/480 483/593/434
f 483/593/434 339/445/339 385/443/384
f 342/446/338 486/594/437 530/592/481
f 530/592/481 386/444/385 342/446/338
