# Blender 4.3.0
# www.blender.org
mtllib DuckTarget.mtl
o Cube.001
v -0.143916 -2.596293 0.120278
v -0.143916 -0.596293 0.120278
v -0.143916 -2.596293 -0.120278
v -0.143916 -0.596293 -0.120278
v -0.051885 -2.596293 0.120278
v -0.051885 -0.596293 0.120278
v -0.051885 -2.596293 -0.120278
v -0.051885 -0.596293 -0.120278
v 0.043823 -1.324489 0.604076
v 0.043823 0.049448 1.908461
v 0.039862 1.523378 -2.136812
v 0.043823 -0.362079 1.793080
v 0.043823 -0.792911 1.559200
v 0.043823 -1.064403 1.239838
v 0.043823 -1.237704 0.940307
v 0.043823 -1.278736 -0.205157
v 0.043823 -1.023999 -0.641118
v 0.043823 -0.741906 -0.968801
v 0.043823 -0.385729 -1.173959
v 0.043823 -0.035251 -1.296484
v 0.043823 0.340871 -1.344923
v 0.043823 0.668554 -1.333526
v 0.043823 0.962044 -1.182507
v 0.043823 1.124460 -1.062831
v 0.043823 1.261232 -1.182507
v 0.043823 1.261232 -1.438954
v 0.043823 1.218491 -1.752390
v 0.043823 1.323919 -2.014536
v 0.039862 1.697193 -2.136812
v 0.043823 1.811170 -2.088621
v 0.043823 1.908050 -1.974644
v 0.043823 1.922297 -1.886312
v 0.043823 1.888103 -1.752390
v 0.043823 1.859609 -1.589973
v 0.043823 1.868158 -1.495942
v 0.043823 1.922297 -1.433256
v 0.043823 2.093261 -1.396213
v 0.043823 2.263941 -1.325320
v 0.043823 2.428068 -1.210431
v 0.043823 2.538853 -1.107852
v 0.043823 2.616133 -0.144216
v 0.043823 0.394742 1.908461
v 0.043823 2.651478 -0.942667
v 0.043823 2.708466 -0.788799
v 0.043823 2.722713 -0.617834
v 0.043823 2.708466 -0.424074
v 0.043823 2.674273 -0.238862
v 0.043823 2.551748 -0.039403
v 0.043823 2.423524 0.066025
v 0.043823 2.295301 0.145809
v 0.043823 2.124336 0.188550
v 0.043823 1.961919 0.202797
v 0.043823 1.805202 0.154357
v 0.043823 1.631387 0.054628
v 0.043823 1.520260 -0.016608
v 0.043823 1.397735 -0.096392
v 0.043823 1.292307 -0.144832
v 0.043823 1.107095 -0.104940
v 0.043823 0.956076 0.003338
v 0.043823 0.870593 0.137260
v 0.043823 0.785111 0.293978
v 0.043823 0.742370 0.493437
v 0.043823 0.742370 0.678649
v 0.043823 0.805057 0.886657
v 0.043823 0.876292 1.020579
v 0.043823 0.984570 1.128857
v 0.043823 1.098547 1.228586
v 0.043823 1.189728 1.299822
v 0.043823 1.332199 1.371057
v 0.043823 1.446176 1.399551
v 0.043823 1.306554 1.533473
v 0.043823 1.127041 1.675944
v 0.043823 0.941829 1.769974
v 0.043823 0.713876 1.841210
v 0.043823 1.883162 -1.456130
v 0.043823 -1.330676 0.199459
v 0.043823 0.827852 0.215619
v -0.049729 -1.324476 0.604194
v -0.049729 0.049461 1.908579
v -0.053690 1.523392 -2.136693
v -0.049729 -0.362066 1.793198
v -0.049729 -0.792898 1.559318
v -0.049729 -1.064390 1.239956
v -0.049729 -1.237691 0.940425
v -0.049729 -1.278723 -0.205040
v -0.049729 -1.023985 -0.641000
v -0.049729 -0.741893 -0.968683
v -0.049729 -0.385716 -1.173841
v -0.049729 -0.035238 -1.296365
v -0.049729 0.340884 -1.344806
v -0.049729 0.668567 -1.333408
v -0.049729 0.962057 -1.182389
v -0.049729 1.124473 -1.062713
v -0.049729 1.261246 -1.182389
v -0.049729 1.261245 -1.438836
v -0.049729 1.218504 -1.752272
v -0.049729 1.323933 -2.014418
v -0.053690 1.697206 -2.136693
v -0.049729 1.811183 -2.088503
v -0.049729 1.908063 -1.974526
v -0.049729 1.922310 -1.886194
v -0.049729 1.888117 -1.752272
v -0.049729 1.859622 -1.589855
v -0.049729 1.868171 -1.495824
v -0.049729 1.922310 -1.433138
v -0.049729 2.093275 -1.396095
v -0.049729 2.263955 -1.325202
v -0.049729 2.428081 -1.210313
v -0.049729 2.538867 -1.107734
v -0.049729 2.616146 -0.144098
v -0.049729 0.394755 1.908579
v -0.049729 2.651491 -0.942549
v -0.049729 2.708479 -0.788681
v -0.049729 2.722726 -0.617716
v -0.049729 2.708479 -0.423956
v -0.049729 2.674286 -0.238744
v -0.049729 2.551762 -0.039285
v -0.049729 2.423537 0.066143
v -0.049729 2.295314 0.145927
v -0.049729 2.124349 0.188668
v -0.049729 1.961933 0.202915
v -0.049729 1.805215 0.154475
v -0.049729 1.631400 0.054745
v -0.049729 1.520274 -0.016490
v -0.049729 1.397748 -0.096274
v -0.049729 1.292320 -0.144714
v -0.049729 1.107108 -0.104822
v -0.049729 0.956089 0.003456
v -0.049729 0.870607 0.137378
v -0.049729 0.785124 0.294096
v -0.049729 0.742383 0.493555
v -0.049729 0.742383 0.678767
v -0.049729 0.805070 0.886774
v -0.049729 0.876306 1.020697
v -0.049729 0.984583 1.128975
v -0.049729 1.098560 1.228705
v -0.049729 1.189741 1.299940
v -0.049729 1.332212 1.371175
v -0.049729 1.446189 1.399669
v -0.049729 1.306568 1.533591
v -0.049729 1.127054 1.676062
v -0.049729 0.941842 1.770092
v -0.049729 0.713889 1.841328
v -0.049729 1.883175 -1.456012
v -0.049729 -1.330663 0.199577
v -0.049729 0.827865 0.215737
vn -1.0000 -0.0000 -0.0000
vn -0.0000 -0.0000 -1.0000
vn 1.0000 -0.0000 -0.0000
vn -0.0000 -0.0000 1.0000
vn -0.0000 -1.0000 -0.0000
vn -0.0000 1.0000 -0.0000
vn 1.0000 -0.0009 -0.0078
vn 0.9988 -0.0055 -0.0492
vn 0.9993 -0.0041 -0.0364
vn -1.0000 0.0009 0.0078
vn -0.9988 0.0055 0.0492
vn -0.9993 0.0041 0.0364
vn 0.0012 -0.2953 0.9554
vn 0.0011 -0.3745 0.9272
vn 0.0011 -0.3758 0.9267
vn -0.0007 -0.8707 -0.4919
vn -0.0007 -0.8678 -0.4969
vn -0.0001 -0.9977 0.0676
vn -0.0001 -0.9977 0.0685
vn 0.0010 -0.5179 0.8555
vn 0.0010 -0.5182 0.8553
vn -0.0003 -0.9915 -0.1299
vn -0.0003 -0.9911 -0.1334
vn 0.0010 -0.5426 0.8400
vn 0.0010 -0.5427 0.8399
vn -0.0010 -0.7043 -0.7099
vn -0.0010 -0.7020 -0.7122
vn 0.0010 -0.4752 0.8799
vn 0.0010 -0.4744 0.8803
vn -0.0011 -0.5227 -0.8525
vn 0.0011 -0.4175 0.9087
vn -0.0011 0.3895 -0.9210
vn -0.0010 0.5319 -0.8468
vn -0.0010 0.5306 -0.8476
vn 0.0013 0.2106 0.9776
vn 0.0012 0.3250 0.9457
vn 0.0012 0.3230 0.9464
vn -0.0004 0.8935 -0.4490
vn -0.0004 0.8919 -0.4523
vn 0.0010 0.7029 0.7113
vn 0.0010 0.7011 0.7130
vn 0.0002 0.9988 0.0483
vn 0.0002 0.9990 0.0456
vn 0.0008 0.8607 0.5091
vn 0.0008 0.8605 0.5095
vn 0.0004 0.9776 0.2103
vn 0.0004 0.9775 0.2108
vn 0.0009 -0.6306 0.7761
vn 0.0007 0.8779 0.4789
vn 0.0006 0.9352 0.3541
vn 0.0006 0.9345 0.3559
vn 0.0002 0.9991 0.0413
vn 0.0002 0.9991 0.0431
vn 0.0003 0.9944 0.1058
vn 0.0003 0.9942 0.1072
vn -0.0004 0.9019 -0.4319
vn -0.0004 0.9037 -0.4281
vn 0.0013 -0.0000 1.0000
vn -0.0000 0.9887 -0.1499
vn -0.0000 0.9890 -0.1480
vn -0.0011 0.3554 -0.9347
vn -0.0011 0.3581 -0.9337
vn -0.0013 -0.0000 -1.0000
vn -0.0000 0.9909 -0.1346
vn 0.0002 0.9984 0.0569
vn 0.0002 0.9984 0.0560
vn -0.0000 0.9907 -0.1362
vn -0.0004 0.9229 -0.3851
vn -0.0004 0.9234 -0.3839
vn -0.0012 0.2118 -0.9773
vn 0.0012 -0.2700 0.9629
vn 0.0011 -0.3492 0.9371
vn 0.0011 -0.3504 0.9366
vn -0.0007 0.7935 -0.6086
vn -0.0007 0.7947 -0.6070
vn -0.0011 0.3836 -0.9235
vn -0.0011 0.4641 -0.8858
vn -0.0011 0.4629 -0.8864
vn 0.0009 -0.5967 0.8024
vn 0.0009 -0.5986 0.8010
vn -0.0008 0.6822 -0.7312
vn -0.0008 0.6825 -0.7309
vn -0.0009 0.6239 -0.7815
vn -0.0009 0.6232 -0.7821
vn 0.0007 -0.7619 0.6477
vn -0.0009 0.6365 -0.7713
vn -0.0009 0.6368 -0.7711
vn -0.0007 0.7511 -0.6602
vn -0.0007 0.7501 -0.6614
vn -0.0005 0.8656 -0.5008
vn -0.0004 0.9229 -0.3850
vn -0.0004 0.9222 -0.3866
vn -0.0010 0.5207 -0.8537
vn -0.0010 0.5218 -0.8530
vn -0.0006 0.8262 -0.5633
vn -0.0011 0.3193 -0.9477
vn -0.0011 0.3205 -0.9473
vn 0.0006 0.9416 0.3367
vn 0.0006 0.9425 0.3342
vn -0.0012 0.2425 -0.9701
vn -0.0001 0.9750 -0.2221
vn -0.0001 0.9754 -0.2203
vn 0.0001 1.0000 -0.0044
vn 0.0001 1.0000 -0.0054
vn 0.0008 0.8634 0.5045
vn 0.0010 0.6922 0.7217
vn 0.0010 0.6556 0.7551
vn 0.0010 0.6561 0.7547
vn 0.0003 0.9917 0.1284
vn 0.0003 0.9918 0.1276
vn -0.0009 -0.7579 -0.6524
vn -0.0011 -0.6120 -0.7908
vn -0.0011 -0.6103 -0.7921
vn 0.0011 0.5266 0.8501
vn 0.0011 0.5277 0.8494
vn 0.0006 0.9283 0.3719
vn 0.0006 0.9292 0.3696
vn -0.0012 -0.4009 -0.9161
vn -0.0012 -0.3999 -0.9166
vn 0.0012 0.3619 0.9322
vn 0.0012 0.3629 0.9318
vn 0.0008 0.8521 0.5234
vn -0.0013 -0.1967 -0.9805
vn -0.0013 -0.1957 -0.9807
vn 0.0013 0.2454 0.9694
vn 0.0013 0.2460 0.9693
vn 0.0010 0.7374 0.6755
vn 0.0010 0.7388 0.6739
vn -0.0013 -0.1277 -0.9918
vn 0.0013 0.2062 0.9785
vn 0.0011 0.5779 0.8161
vn 0.0011 0.5786 0.8156
vn -0.0013 0.0348 -0.9994
vn 0.0012 0.3407 0.9402
vn 0.0012 0.3423 0.9396
vn -0.0011 0.4575 -0.8892
vn -0.0010 0.5191 -0.8547
vn -0.0010 0.5183 -0.8552
vn 0.0013 0.1426 0.9898
vn 0.0013 0.1433 0.9897
vn -0.0009 0.5932 -0.8051
vn 0.0013 0.0874 0.9962
vn -0.0010 -0.6585 -0.7526
vn -0.0003 0.9377 -0.3473
vt 0.735099 0.087035
vt 0.807469 0.087035
vt 0.807469 0.159405
vt 0.735099 0.159405
vt 0.807469 0.231775
vt 0.735099 0.231775
vt 0.807469 0.304145
vt 0.735099 0.304145
vt 0.807469 0.376515
vt 0.735099 0.376515
vt 0.662729 0.231775
vt 0.662729 0.304145
vt 0.879839 0.231775
vt 0.879839 0.304145
vt 0.535225 0.726888
vt 0.536787 0.716878
vt 0.543727 0.718634
vt 0.528110 0.712488
vt 0.524293 0.735669
vt 0.522558 0.708097
vt 0.513014 0.741465
vt 0.515617 0.701951
vt 0.499132 0.745855
vt 0.509023 0.695277
vt 0.479697 0.750000
vt 0.458670 0.750000
vt 0.433609 0.742889
vt 0.407372 0.728474
vt 0.504685 0.687023
vt 0.391880 0.707737
vt 0.500867 0.674203
vt 0.380285 0.690330
vt 0.500867 0.662788
vt 0.375000 0.669607
vt 0.503470 0.650495
vt 0.377122 0.644669
vt 0.379244 0.619731
vt 0.508676 0.640836
vt 0.506073 0.645665
vt 0.393299 0.592862
vt 0.513881 0.632582
vt 0.410478 0.572666
vt 0.523078 0.625908
vt 0.432168 0.560021
vt 0.534357 0.623450
vt 0.453512 0.552470
vt 0.540778 0.626435
vt 0.476417 0.549484
vt 0.548239 0.631352
vt 0.496372 0.550187
vt 0.555006 0.635743
vt 0.514245 0.559495
vt 0.565591 0.641889
vt 0.524136 0.566871
vt 0.575135 0.644875
vt 0.532465 0.559495
vt 0.585026 0.643997
vt 0.532465 0.543689
vt 0.595437 0.641363
vt 0.529862 0.524371
vt 0.603246 0.636445
vt 0.536037 0.508200
vt 0.611054 0.629947
vt 0.614975 0.623488
vt 0.618516 0.617654
vt 0.620598 0.606239
vt 0.570339 0.542630
vt 0.621466 0.594297
vt 0.559014 0.500000
vt 0.565955 0.503648
vt 0.548429 0.500000
vt 0.572722 0.544040
vt 0.569425 0.540177
vt 0.568905 0.534381
vt 0.571855 0.510673
vt 0.570640 0.524371
vt 0.572722 0.516117
vt 0.583134 0.546323
vt 0.620598 0.583760
vt 0.617128 0.574277
vt 0.610269 0.564096
vt 0.603522 0.557774
vt 0.593528 0.550693
s 1
usemtl Material.001
f 1/1/1 2/2/1 4/3/1 3/4/1
f 3/4/2 4/3/2 8/5/2 7/6/2
f 7/6/3 8/5/3 6/7/3 5/8/3
f 5/8/4 6/7/4 2/9/4 1/10/4
f 3/11/5 7/6/5 5/8/5 1/12/5
f 8/5/6 4/13/6 2/14/6 6/7/6
f 71/15/3 69/16/3 70/17/3
f 68/18/3 69/16/3 71/15/3 72/19/3
f 67/20/3 68/18/3 72/19/3 73/21/3
f 66/22/3 67/20/3 73/21/3 74/23/3
f 65/24/3 66/22/3 74/23/3 42/25/3
f 42/25/3 10/26/3 12/27/3 65/24/3
f 12/27/3 13/28/3 64/29/3 65/24/3
f 13/28/3 14/30/3 63/31/3 64/29/3
f 14/30/3 15/32/3 62/33/3 63/31/3
f 15/32/3 9/34/3 61/35/3 62/33/3
f 76/36/3 16/37/3 60/38/3 77/39/3
f 16/37/3 17/40/3 59/41/3 60/38/3
f 17/40/3 18/42/3 58/43/3 59/41/3
f 18/42/3 19/44/3 57/45/3 58/43/3
f 19/44/3 20/46/3 56/47/3 57/45/3
f 20/46/3 21/48/3 55/49/3 56/47/3
f 21/48/3 22/50/3 54/51/3 55/49/3
f 22/50/3 23/52/3 53/53/3 54/51/3
f 23/52/3 24/54/3 52/55/3 53/53/3
f 24/54/3 25/56/3 51/57/3 52/55/3
f 25/56/3 26/58/3 50/59/3 51/57/3
f 26/58/3 27/60/3 49/61/3 50/59/3
f 27/60/3 28/62/7 48/63/3 49/61/3
f 48/63/3 28/62/7 41/64/3
f 41/64/3 28/62/7 47/65/3
f 47/65/3 28/62/7 46/66/3
f 46/66/3 28/62/7 75/67/3 45/68/3
f 29/69/8 30/70/9 28/62/7 11/71/8
f 36/72/3 75/62/3 35/73/3
f 75/62/3 28/62/7 35/73/3
f 34/74/3 35/73/3 28/62/7 30/70/9
f 30/70/9 31/75/3 33/76/3 34/74/3
f 33/76/3 31/75/3 32/77/3
f 75/62/3 36/72/3 45/68/3
f 36/72/3 37/78/3 45/68/3
f 45/68/3 37/78/3 44/79/3
f 44/79/1 43/80/1 37/78/1
f 37/78/3 40/81/3 43/80/3 44/79/3
f 40/81/3 37/78/3 39/82/3
f 39/82/3 37/78/3 38/83/3
f 9/34/3 76/36/3 77/39/3 61/35/3
f 140/15/1 139/17/1 138/16/1
f 137/18/1 141/19/1 140/15/1 138/16/1
f 136/20/1 142/21/1 141/19/1 137/18/1
f 135/22/1 143/23/1 142/21/1 136/20/1
f 134/24/1 111/25/1 143/23/1 135/22/1
f 111/25/1 134/24/1 81/27/1 79/26/1
f 81/27/1 134/24/1 133/29/1 82/28/1
f 82/28/1 133/29/1 132/31/1 83/30/1
f 83/30/1 132/31/1 131/33/1 84/32/1
f 84/32/1 131/33/1 130/35/1 78/34/1
f 145/36/1 146/39/1 129/38/1 85/37/1
f 85/37/1 129/38/1 128/41/1 86/40/1
f 86/40/1 128/41/1 127/43/1 87/42/1
f 87/42/1 127/43/1 126/45/1 88/44/1
f 88/44/1 126/45/1 125/47/1 89/46/1
f 89/46/1 125/47/1 124/49/1 90/48/1
f 90/48/1 124/49/1 123/51/1 91/50/1
f 91/50/1 123/51/1 122/53/1 92/52/1
f 92/52/1 122/53/1 121/55/1 93/54/1
f 93/54/1 121/55/1 120/57/1 94/56/1
f 94/56/1 120/57/1 119/59/1 95/58/1
f 95/58/1 119/59/1 118/61/1 96/60/1
f 96/60/1 118/61/1 117/63/1 97/62/10
f 117/63/1 110/64/1 97/62/10
f 110/64/1 116/65/1 97/62/10
f 116/65/1 115/66/1 97/62/10
f 115/66/1 114/68/1 144/67/1 97/62/10
f 98/69/11 80/71/11 97/62/10 99/70/12
f 105/72/1 104/73/1 144/62/1
f 144/62/1 104/73/1 97/62/10
f 103/74/1 99/70/12 97/62/10 104/73/1
f 99/70/12 103/74/1 102/76/1 100/75/1
f 102/76/1 101/77/1 100/75/1
f 144/62/1 114/68/1 105/72/1
f 105/72/1 114/68/1 106/78/1
f 114/68/1 113/79/1 106/78/1
f 113/79/3 106/78/3 112/80/3
f 106/78/1 113/79/1 112/80/1 109/81/1
f 109/81/1 108/82/1 106/78/1
f 108/82/1 107/83/1 106/78/1
f 78/34/1 130/35/1 146/39/1 145/36/1
f 52/55/13 121/55/13 122/53/14 53/53/15
f 25/56/16 94/56/17 95/58/18 26/58/19
f 53/53/15 122/53/14 123/51/20 54/51/21
f 26/58/19 95/58/18 96/60/22 27/60/23
f 54/51/21 123/51/20 124/49/24 55/49/25
f 27/60/23 96/60/22 97/62/26 28/62/27
f 55/49/25 124/49/24 125/47/28 56/47/29
f 28/62/27 97/62/26 80/71/30 11/71/30
f 56/47/29 125/47/28 126/45/31 57/45/31
f 29/69/32 98/69/32 99/70/33 30/70/34
f 57/45/35 126/45/35 127/43/36 58/43/37
f 30/70/34 99/70/33 100/75/38 31/75/39
f 58/43/37 127/43/36 128/41/40 59/41/41
f 31/75/39 100/75/38 101/77/42 32/77/43
f 59/41/41 128/41/40 129/38/44 60/38/45
f 32/77/43 101/77/42 102/76/46 33/76/47
f 37/78/48 43/80/48 112/80/48 106/78/48
f 77/39/49 146/39/49 130/35/50 61/35/51
f 33/76/47 102/76/46 103/74/52 34/74/53
f 61/35/51 130/35/50 131/33/54 62/33/55
f 34/74/53 103/74/52 104/73/56 35/73/57
f 42/25/58 111/25/58 79/26/58 10/26/58
f 62/33/55 131/33/54 132/31/59 63/31/60
f 35/73/57 104/73/56 105/72/61 36/72/62
f 11/71/63 80/71/63 98/69/63 29/69/63
f 9/34/64 76/36/65 145/36/66 78/34/67
f 63/31/60 132/31/59 133/29/68 64/29/69
f 36/72/62 105/72/61 106/78/70 37/78/70
f 10/26/71 79/26/71 81/27/72 12/27/73
f 60/38/45 129/38/44 146/39/49 77/39/49
f 64/29/69 133/29/68 134/24/74 65/24/75
f 37/78/76 106/78/76 107/83/77 38/83/78
f 12/27/73 81/27/72 82/28/79 13/28/80
f 65/24/75 134/24/74 135/22/81 66/22/82
f 38/83/78 107/83/77 108/82/83 39/82/84
f 13/28/80 82/28/79 83/30/85 14/30/85
f 66/22/82 135/22/81 136/20/86 67/20/87
f 39/82/84 108/82/83 109/81/88 40/81/89
f 14/30/90 15/32/91 84/32/92 83/30/90
f 67/20/87 136/20/86 137/18/93 68/18/94
f 43/80/95 40/81/89 109/81/88 112/80/95
f 15/32/91 9/34/64 78/34/67 84/32/92
f 68/18/94 137/18/93 138/16/96 69/16/97
f 76/36/65 16/37/98 85/37/99 145/36/66
f 69/16/97 138/16/96 139/17/100 70/17/100
f 44/79/101 113/79/102 114/68/103 45/68/104
f 16/37/98 17/40/105 86/40/105 85/37/99
f 70/17/106 139/17/106 140/15/107 71/15/108
f 45/68/104 114/68/103 115/66/109 46/66/110
f 17/40/111 86/40/111 87/42/112 18/42/113
f 71/15/108 140/15/107 141/19/114 72/19/115
f 46/66/110 115/66/109 116/65/116 47/65/117
f 18/42/113 87/42/112 88/44/118 19/44/119
f 72/19/115 141/19/114 142/21/120 73/21/121
f 47/65/117 116/65/116 110/64/122 41/64/122
f 19/44/119 88/44/118 89/46/123 20/46/124
f 73/21/121 142/21/120 143/23/125 74/23/126
f 41/64/122 110/64/122 117/63/127 48/63/128
f 20/46/124 89/46/123 90/48/129 21/48/129
f 74/23/126 143/23/125 111/25/130 42/25/130
f 48/63/128 117/63/127 118/61/131 49/61/132
f 21/48/133 90/48/133 91/50/133 22/50/133
f 49/61/132 118/61/131 119/59/134 50/59/135
f 22/50/136 91/50/136 92/52/137 23/52/138
f 50/59/135 119/59/134 120/57/139 51/57/140
f 23/52/138 92/52/137 93/54/141 24/54/141
f 51/57/140 120/57/139 121/55/142 52/55/142
f 24/54/143 93/54/143 94/56/17 25/56/16
f 44/79/101 43/80/144 112/80/144 113/79/102
